<svg width="46" height="46" viewBox="0 0 46 46" fill="none" xmlns="http://www.w3.org/2000/svg">
<rect width="46" height="46" fill="white"/>
<path d="M28.7781 22.7586L20.3228 14.3035C20.1273 14.1078 19.8662 14 19.5879 14C19.3095 14 19.0485 14.1078 18.8529 14.3035L18.2302 14.926C17.8251 15.3317 17.8251 15.991 18.2302 16.396L25.3303 23.4961L18.2224 30.604C18.0268 30.7997 17.9188 31.0606 17.9188 31.3388C17.9188 31.6173 18.0268 31.8782 18.2224 32.0741L18.845 32.6965C19.0407 32.8922 19.3016 33 19.58 33C19.8584 33 20.1194 32.8922 20.315 32.6965L28.7781 24.2337C28.9741 24.0373 29.0818 23.7752 29.0812 23.4965C29.0818 23.2168 28.9741 22.9548 28.7781 22.7586Z" fill="black"/>
</svg>
