<svg width="46" height="46" viewBox="0 0 46 46" fill="none" xmlns="http://www.w3.org/2000/svg">
<rect x="-0.5" y="0.5" width="45" height="45" transform="matrix(-1 0 0 1 45 0)" stroke="white"/>
<path d="M17.2219 22.7586L25.6772 14.3035C25.8727 14.1078 26.1338 14 26.4121 14C26.6905 14 26.9515 14.1078 27.1471 14.3035L27.7698 14.926C28.1749 15.3317 28.1749 15.991 27.7698 16.396L20.6697 23.4961L27.7776 30.604C27.9732 30.7997 28.0812 31.0606 28.0812 31.3388C28.0812 31.6173 27.9732 31.8782 27.7776 32.0741L27.155 32.6965C26.9593 32.8922 26.6984 33 26.42 33C26.1416 33 25.8806 32.8922 25.685 32.6965L17.2219 24.2337C17.0259 24.0373 16.9182 23.7752 16.9188 23.4965C16.9182 23.2168 17.0259 22.9548 17.2219 22.7586Z" fill="white"/>
</svg>
