<svg width="46" height="46" viewBox="0 0 46 46" fill="none" xmlns="http://www.w3.org/2000/svg">
<path d="M40.5481 38.0732C40.4458 31.8216 34.054 29.9746 29.3868 28.6259C28.8422 28.4686 28.3185 28.3172 27.8278 28.1661V25.5872C28.7819 24.9891 29.618 24.2194 30.2925 23.3216H33.1355C34.5267 23.3216 35.6587 22.1896 35.6587 20.7984V17.744C35.8273 17.3509 35.921 16.9182 35.921 16.4638V15.5139C35.921 15.06 35.8273 14.6276 35.6587 14.2347V12.659C35.6587 5.67887 29.98 0 22.9999 0C16.0212 0 10.3437 5.67887 10.3437 12.6591V14.1897C10.3437 14.2017 10.345 14.2133 10.3455 14.2253C10.1742 14.6208 10.0788 15.0563 10.0788 15.514V16.4639C10.0788 18.2596 11.5386 19.7206 13.3329 19.7206H14.0753C14.5896 22.1866 16.1036 24.2899 18.1721 25.5867V28.1661C17.6812 28.3172 17.1576 28.4685 16.6131 28.6259C11.9459 29.9746 5.55399 31.8217 5.45175 38.0732C5.45166 38.0782 5.45166 38.083 5.45166 38.088V45.1016C5.45166 45.5978 5.85398 46 6.3501 46H9.0138C9.50992 46 9.91224 45.5978 9.91224 45.1016C9.91224 44.6053 9.50992 44.2031 9.0138 44.2031H7.24845V38.0954C7.28628 35.9143 8.28822 34.2792 10.4014 32.95C11.7959 32.0728 13.5007 31.4479 15.1811 30.9251L17.3519 35.1544C17.5938 35.6258 18.2133 35.786 18.6535 35.489L19.6214 34.8361L20.4524 37.9593L19.0286 44.203H17.0815C16.5854 44.203 16.1831 44.6053 16.1831 45.1015C16.1831 45.5977 16.5854 45.9999 17.0815 45.9999H39.6497C40.1459 45.9999 40.5482 45.5977 40.5482 45.1015V38.0879C40.5482 38.083 40.5482 38.0782 40.5481 38.0732ZM28.8879 30.3521C28.9472 30.3692 29.0073 30.3867 29.067 30.404L27.5139 33.433L24.6073 31.473L27.07 29.8119C27.6422 29.9919 28.2506 30.1679 28.8879 30.3521ZM23.0006 32.5568L24.8021 33.7717L23.9314 37.0443H22.0684L21.198 33.7727L23.0006 32.5568ZM23.0004 30.3895L19.9688 28.3453V26.4539C20.9177 26.7894 21.9375 26.9735 22.9998 26.9735C24.0621 26.9735 25.0821 26.7901 26.0308 26.4545V28.3453L23.0004 30.3895ZM30.3194 12.8234C30.3071 12.8156 30.2949 12.8078 30.2826 12.8C28.4391 11.6265 26.8469 10.6129 24.3521 11.3267C24.3289 11.3334 24.3059 11.3409 24.2833 11.3494C23.7544 11.548 23.2735 11.7332 22.8083 11.9122C19.9671 13.0059 18.4159 13.6032 15.6803 13.5263V12.8068C15.6803 8.77067 18.9639 5.48705 22.9998 5.48705C27.0358 5.48705 30.3193 8.77067 30.3193 12.8068L30.3194 12.8234ZM33.8618 20.7984C33.8618 21.1989 33.536 21.5247 33.1355 21.5247H31.3451C31.5979 20.9516 31.7938 20.3479 31.9246 19.7205H32.6671C33.0889 19.7205 33.4916 19.6389 33.8619 19.492V20.7984H33.8618ZM34.1241 16.4638C34.1241 17.2688 33.4705 17.9236 32.667 17.9236H32.1155C32.1157 17.9013 32.1164 14.0566 32.1164 14.0566H32.6671C33.4705 14.0566 34.1242 14.7104 34.1242 15.5139L34.1241 16.4638ZM13.3329 17.9237C12.5294 17.9237 11.8757 17.2688 11.8757 16.4639V15.514C11.8757 14.7104 12.5293 14.0567 13.3329 14.0567H13.8835C13.8835 14.0567 13.8842 17.9014 13.8844 17.9237H13.3329ZM13.9003 12.2598H13.3328C12.9128 12.2598 12.5116 12.3406 12.1427 12.4862C12.2355 6.57623 17.0698 1.79688 22.9999 1.79688C28.9317 1.79688 33.7674 6.57677 33.8596 12.4872C33.49 12.341 33.0879 12.2598 32.667 12.2598H32.0994C31.8155 7.48653 27.843 3.69017 22.9999 3.69017C18.1568 3.69017 14.1842 7.48662 13.9003 12.2598ZM15.7344 18.731C15.7343 18.7301 15.7341 18.7292 15.734 18.7283C15.7 18.4423 15.6804 18.1519 15.6804 17.857V15.3231C18.7542 15.398 20.5879 14.6926 23.4538 13.5893C23.9052 13.4155 24.3717 13.2359 24.88 13.0448C26.5772 12.5711 27.5537 13.1929 29.3177 14.3158C29.6238 14.5107 29.9595 14.7243 30.3194 14.9436V17.857C30.3194 19.193 29.9579 20.4455 29.3302 21.5248H22.9999C22.5038 21.5248 22.1015 21.927 22.1015 22.4232C22.1015 22.9194 22.5038 23.3216 22.9999 23.3216H27.8626C26.5687 24.4744 24.8651 25.1767 22.9999 25.1767C19.2598 25.1767 16.1679 22.3563 15.7344 18.731ZM18.4881 33.4331L16.9333 30.4038C16.9928 30.3866 17.0528 30.3692 17.1119 30.3521C17.7493 30.1679 18.3577 29.9918 18.93 29.8118L21.3937 31.4732L18.4881 33.4331ZM20.8717 44.2031L22.0944 38.8412H23.9057L25.1303 44.2031H20.8717ZM38.7513 44.2031H26.9735L25.5475 37.9592L26.3788 34.8348L27.349 35.489C27.7894 35.786 28.4089 35.6258 28.6508 35.1541L30.8191 30.9252C32.4994 31.448 34.2041 32.0729 35.5985 32.95C37.7116 34.2791 38.7137 35.9143 38.7515 38.0954V44.2031H38.7513Z" fill="black"/>
<path d="M35.2034 39.7107H30.6755C30.1794 39.7107 29.7771 40.1129 29.7771 40.6091C29.7771 41.1053 30.1794 41.5076 30.6755 41.5076H35.2034C35.6995 41.5076 36.1018 41.1053 36.1018 40.6091C36.1018 40.1129 35.6996 39.7107 35.2034 39.7107Z" fill="black"/>
<path d="M13.0476 44.2031C12.5515 44.2031 12.1492 44.6054 12.1492 45.1016C12.1492 45.5978 12.5515 46 13.0476 46H13.0501C13.5462 46 13.9472 45.5978 13.9472 45.1016C13.9472 44.6054 13.5437 44.2031 13.0476 44.2031Z" fill="black"/>
</svg>
