<svg width="20" height="20" viewBox="0 0 20 20" fill="none" xmlns="http://www.w3.org/2000/svg">
<g clip-path="url(#clip0_167_2346)">
<path d="M19.7706 8.6707L16.3644 4.81652C16.2903 4.73262 16.1837 4.68457 16.0717 4.68457H3.92764C3.81569 4.68457 3.70909 4.73262 3.63495 4.81652L0.228773 8.6707C0.127055 8.78582 0.10225 8.94984 0.165375 9.08992C0.189164 9.14273 0.223852 9.18836 0.266039 9.2248C0.266859 9.2257 0.267484 9.22672 0.268305 9.22766L9.70745 19.8689C9.78159 19.9525 9.88795 20.0003 9.99967 20.0003C10.1114 20.0003 10.2178 19.9524 10.2919 19.8689L19.731 9.22766C19.7319 9.22676 19.7325 9.22574 19.7333 9.2248C19.7755 9.18836 19.8101 9.1427 19.834 9.08992C19.8971 8.94984 19.8723 8.78582 19.7706 8.6707ZM15.3791 5.46578L13.6431 8.26438L10.8611 5.46578H15.3791ZM12.8143 8.53875H7.18506L9.99967 5.70738L12.8143 8.53875ZM9.13827 5.46582L6.35623 8.26441L4.62026 5.46582H9.13827ZM3.86702 5.73363L5.60705 8.53875H1.38799L3.86702 5.73363ZM1.39455 9.32H6.01088L9.19979 18.1193L1.39455 9.32ZM10.814 18.1029L13.0421 12.0728C13.1169 11.8704 13.0134 11.6457 12.8111 11.571C12.6086 11.4961 12.384 11.5996 12.3093 11.802L10.0032 18.0433L6.84186 9.32H18.6048L10.814 18.1029ZM14.3923 8.53875L16.1323 5.73363L18.6114 8.53875H14.3923Z" fill="black"/>
<path d="M10 0C9.7843 0 9.60938 0.174883 9.60938 0.390625V2.40285C9.60938 2.61859 9.7843 2.79348 10 2.79348C10.2157 2.79348 10.3906 2.61859 10.3906 2.40285V0.390625C10.3906 0.174883 10.2157 0 10 0Z" fill="black"/>
<path d="M13.5575 1.54409C13.405 1.39155 13.1577 1.39155 13.0051 1.54409L11.5822 2.96694C11.4296 3.11948 11.4296 3.36683 11.5822 3.51937C11.6585 3.59565 11.7585 3.63378 11.8584 3.63378C11.9584 3.63378 12.0583 3.59562 12.1346 3.51937L13.5575 2.09651C13.7101 1.94397 13.7101 1.69663 13.5575 1.54409Z" fill="black"/>
<path d="M8.34167 2.96694L6.91882 1.54409C6.76632 1.39155 6.51905 1.39155 6.36636 1.54409C6.21382 1.69663 6.21382 1.94397 6.36636 2.09651L7.78925 3.51937C7.86554 3.59565 7.9655 3.63378 8.06546 3.63378C8.16542 3.63378 8.26538 3.59562 8.34167 3.51937C8.49421 3.36683 8.49421 3.11948 8.34167 2.96694Z" fill="black"/>
<path d="M13.1807 10.873C13.3964 10.873 13.5713 10.6982 13.5713 10.4824C13.5713 10.2667 13.3964 10.0918 13.1807 10.0918C12.9649 10.0918 12.79 10.2667 12.79 10.4824C12.79 10.6982 12.9649 10.873 13.1807 10.873Z" fill="black"/>
</g>
<defs>
<clipPath id="clip0_167_2346">
<rect width="20" height="20" fill="white"/>
</clipPath>
</defs>
</svg>
