<svg width="27" height="27" viewBox="0 0 27 27" fill="none" xmlns="http://www.w3.org/2000/svg">
<g clip-path="url(#clip0_237_476)">
<path d="M26.137 13.0685C26.137 5.85019 20.2868 0 13.0685 0C5.85019 0 0 5.85019 0 13.0685C0 20.2868 5.85019 26.137 13.0685 26.137C13.1451 26.137 13.2216 26.137 13.2982 26.1319V15.963H10.4905V12.6907H13.2982V10.2812C13.2982 7.48886 15.0032 5.9676 17.4944 5.9676C18.689 5.9676 19.715 6.05439 20.0111 6.09523V9.01522H18.2959C16.9431 9.01522 16.6776 9.65843 16.6776 10.6028V12.6856H19.9192L19.4955 15.9579H16.6776V25.6316C22.1399 24.0644 26.137 19.0361 26.137 13.0685Z" fill="black"/>
</g>
<defs>
<clipPath id="clip0_237_476">
<rect width="26.137" height="26.137" fill="white"/>
</clipPath>
</defs>
</svg>
