<svg width="115" height="115" viewBox="0 0 115 115" fill="none" xmlns="http://www.w3.org/2000/svg">
<path d="M86.5528 35.1343C86.4106 34.9121 86.2147 34.7292 85.9833 34.6025C85.7519 34.4758 85.4924 34.4094 85.2285 34.4093H29.7716C29.5077 34.4094 29.2482 34.4758 29.0168 34.6025C28.7854 34.7292 28.5895 34.9121 28.4473 35.1343L25.1842 40.2338C24.0283 38.8761 23.3938 37.151 23.3945 35.3679C23.3945 34.9509 23.2288 34.551 22.934 34.2561C22.6391 33.9613 22.2392 33.7956 21.8222 33.7956C21.4052 33.7956 21.0053 33.9613 20.7104 34.2561C20.4156 34.551 20.2499 34.9509 20.2499 35.3679C20.2483 37.3673 19.4533 39.2843 18.0395 40.698C16.6257 42.1118 14.7087 42.9068 12.7094 42.9085C12.2924 42.9085 11.8924 43.0741 11.5976 43.369C11.3027 43.6638 11.1371 44.0637 11.1371 44.4807C11.1371 44.8977 11.3027 45.2976 11.5976 45.5925C11.8924 45.8874 12.2924 46.053 12.7094 46.053C14.0023 46.0546 15.2731 46.3889 16.3995 47.0236C17.5259 47.6583 18.4701 48.5722 19.1413 49.6773L14.5826 56.7992C14.3946 57.0931 14.3097 57.4412 14.3413 57.7886C14.3728 58.136 14.5191 58.4631 14.7569 58.7183L56.3545 103.362C56.5015 103.52 56.6794 103.646 56.8773 103.732C57.0751 103.818 57.2887 103.863 57.5045 103.863C57.7204 103.863 57.9339 103.818 58.1318 103.732C58.3297 103.646 58.5076 103.52 58.6545 103.362L75.4688 85.3111C76.6311 86.2959 77.5651 87.5219 78.2058 88.904C78.8466 90.286 79.1788 91.791 79.1793 93.3144C79.1793 93.7314 79.345 94.1313 79.6399 94.4262C79.9347 94.721 80.3346 94.8867 80.7516 94.8867C81.1686 94.8867 81.5685 94.721 81.8634 94.4262C82.1582 94.1313 82.3239 93.7314 82.3239 93.3144C82.3272 90.5261 83.4363 87.853 85.408 85.8814C87.3796 83.9097 90.0527 82.8006 92.841 82.7973C93.258 82.7973 93.6579 82.6317 93.9528 82.3368C94.2476 82.0419 94.4133 81.642 94.4133 81.225C94.4133 80.808 94.2476 80.4081 93.9528 80.1133C93.6579 79.8184 93.258 79.6528 92.841 79.6528C91.2381 79.6516 89.6569 79.2832 88.2185 78.576C86.7801 77.8688 85.5228 76.8415 84.543 75.573L100.245 58.7183C100.483 58.4631 100.629 58.136 100.661 57.7886C100.692 57.4412 100.607 57.0931 100.419 56.7992L86.5528 35.1343ZM96.2227 56.0751H74.237L85.2285 38.9023L96.2227 56.0751ZM43.6381 54.7274L32.6439 37.5547H54.6251L43.6381 54.7274ZM57.5001 38.9023L68.4915 56.0751H46.5086L57.5001 38.9023ZM42.4782 59.2196L53.9566 96.1804L19.5213 59.2196H42.4782ZM45.7701 59.2196H69.2301L57.5001 96.9899L45.7701 59.2196ZM71.3647 54.7274L60.3751 37.5547H82.3562L71.3647 54.7274ZM29.7716 38.9023L40.7631 56.0751H18.7774L20.2634 53.7526C20.3019 54.1545 20.494 54.526 20.7996 54.7898C21.1053 55.0536 21.5009 55.1894 21.9041 55.1687C22.3073 55.1481 22.687 54.9728 22.9641 54.6792C23.2412 54.3856 23.3944 53.9964 23.3918 53.5927C23.3937 51.5935 24.1888 49.6767 25.6025 48.2631C27.0163 46.8495 28.9331 46.0547 30.9324 46.053C31.3494 46.053 31.7493 45.8874 32.0441 45.5925C32.339 45.2976 32.5046 44.8977 32.5046 44.4807C32.5046 44.0637 32.339 43.6638 32.0441 43.369C31.7493 43.0741 31.3494 42.9085 30.9324 42.9085C29.8061 42.9074 28.6946 42.6519 27.6809 42.161L29.7716 38.9023ZM21.8222 40.9418C22.5284 42.0845 23.4427 43.0847 24.5175 43.8905C24.5589 43.9268 24.6021 43.961 24.6469 43.9929C24.6667 44.0055 24.6891 44.0127 24.7098 44.0243C24.9245 44.1798 25.1356 44.3415 25.3629 44.4807C23.9216 45.3656 22.7092 46.5777 21.824 48.0188C20.9388 46.578 19.7268 45.3659 18.286 44.4807C19.7264 43.5953 20.9379 42.3829 21.8222 40.9418ZM86.481 81.225C84.0388 82.5163 82.042 84.5131 80.7507 86.9553C79.6863 84.9479 78.1407 83.2359 76.2522 81.9725C76.1876 81.9195 76.1185 81.8723 76.0456 81.8315C75.7123 81.6159 75.3727 81.411 75.0205 81.225C77.463 79.9342 79.4599 77.9373 80.7507 75.4948C80.854 75.6907 80.969 75.8775 81.0813 76.0671C81.1269 76.1705 81.1835 76.2687 81.2503 76.36C82.5346 78.4143 84.3391 80.0926 86.481 81.225ZM82.323 69.1366C82.323 68.7196 82.1573 68.3197 81.8625 68.0248C81.5676 67.7299 81.1677 67.5643 80.7507 67.5643C80.3337 67.5643 79.9338 67.7299 79.639 68.0248C79.3441 68.3197 79.1785 68.7196 79.1785 69.1366C79.1739 71.924 78.0643 74.5959 76.0927 76.5664C74.1212 78.5369 71.4488 79.6452 68.6613 79.6483C68.2443 79.6483 67.8444 79.8139 67.5496 80.1088C67.2547 80.4036 67.0891 80.8036 67.0891 81.2205C67.0891 81.6375 67.2547 82.0374 67.5496 82.3323C67.8444 82.6272 68.2443 82.7928 68.6613 82.7928C70.0638 82.7912 71.4522 83.072 72.7438 83.6185L61.0435 96.1804L72.5219 59.2196H95.4788L82.9474 72.671C82.5368 71.5377 82.3255 70.3419 82.323 69.1366Z" fill="black"/>
<path d="M57.5 25.7977C57.7065 25.7978 57.911 25.7573 58.1018 25.6783C58.2926 25.5993 58.466 25.4835 58.612 25.3375C58.758 25.1915 58.8739 25.0181 58.9528 24.8273C59.0318 24.6365 59.0724 24.432 59.0723 24.2255V12.7093C59.0723 12.2923 58.9066 11.8924 58.6118 11.5975C58.3169 11.3027 57.917 11.137 57.5 11.137C57.083 11.137 56.6831 11.3027 56.3882 11.5975C56.0934 11.8924 55.9277 12.2923 55.9277 12.7093V24.2255C55.9276 24.432 55.9682 24.6365 56.0472 24.8273C56.1261 25.0181 56.242 25.1915 56.388 25.3375C56.534 25.4835 56.7074 25.5993 56.8982 25.6783C57.089 25.7573 57.2935 25.7978 57.5 25.7977Z" fill="black"/>
<path d="M45.2273 27.7222C45.5221 28.0169 45.9219 28.1825 46.3387 28.1825C46.7555 28.1825 47.1553 28.0169 47.4501 27.7222C47.7448 27.4274 47.9104 27.0277 47.9104 26.6108C47.9104 26.194 47.7448 25.7942 47.4501 25.4995L39.3075 17.356C39.1625 17.2058 38.989 17.086 38.7972 17.0036C38.6054 16.9211 38.3991 16.8777 38.1904 16.8759C37.9816 16.874 37.7746 16.9137 37.5813 16.9928C37.3881 17.0718 37.2125 17.1885 37.0649 17.3361C36.9172 17.4837 36.8004 17.6592 36.7213 17.8524C36.6422 18.0456 36.6024 18.2526 36.6042 18.4614C36.606 18.6702 36.6493 18.8765 36.7316 19.0683C36.814 19.2602 36.9338 19.4337 37.0839 19.5787L45.2273 27.7222Z" fill="black"/>
<path d="M68.6613 28.1831C68.8678 28.1833 69.0723 28.1427 69.263 28.0636C69.4538 27.9845 69.627 27.8685 69.7727 27.7222L77.9161 19.5787C78.0663 19.4337 78.186 19.2602 78.2684 19.0683C78.3507 18.8765 78.3941 18.6702 78.3958 18.4614C78.3976 18.2526 78.3578 18.0456 78.2787 17.8524C78.1996 17.6592 78.0828 17.4837 77.9352 17.3361C77.7875 17.1885 77.6119 17.0718 77.4187 16.9928C77.2255 16.9137 77.0184 16.874 76.8096 16.8759C76.6009 16.8777 76.3946 16.9211 76.2028 17.0036C76.011 17.086 75.8375 17.2058 75.6925 17.356L67.55 25.4995C67.3302 25.7193 67.1806 25.9994 67.12 26.3043C67.0594 26.6092 67.0905 26.9252 67.2095 27.2124C67.3284 27.4996 67.5298 27.7451 67.7882 27.9179C68.0466 28.0906 68.3505 28.1829 68.6613 28.1831Z" fill="black"/>
<path d="M102.273 25.0385C100.709 25.0369 99.2103 24.415 98.1048 23.3094C96.9994 22.2037 96.3777 20.7047 96.3763 19.1412C96.3763 18.7242 96.2106 18.3243 95.9158 18.0294C95.6209 17.7346 95.221 17.5689 94.804 17.5689C94.387 17.5689 93.9871 17.7346 93.6922 18.0294C93.3974 18.3243 93.2317 18.7242 93.2317 19.1412C93.2298 20.7048 92.6078 22.2039 91.502 23.3095C90.3963 24.4151 88.8971 25.0369 87.3335 25.0385C86.9165 25.0385 86.5166 25.2042 86.2217 25.4991C85.9269 25.7939 85.7612 26.1938 85.7612 26.6108C85.7612 27.0278 85.9269 27.4277 86.2217 27.7226C86.5166 28.0174 86.9165 28.1831 87.3335 28.1831C88.8971 28.1847 90.3963 28.8066 91.502 29.9122C92.6078 31.0177 93.2298 32.5168 93.2317 34.0804C93.2317 34.4974 93.3974 34.8973 93.6922 35.1922C93.9871 35.487 94.387 35.6527 94.804 35.6527C95.221 35.6527 95.6209 35.487 95.9158 35.1922C96.2106 34.8973 96.3763 34.4974 96.3763 34.0804C96.3777 32.5169 96.9994 31.0179 98.1048 29.9123C99.2103 28.8066 100.709 28.1847 102.273 28.1831C102.69 28.1831 103.09 28.0174 103.384 27.7226C103.679 27.4277 103.845 27.0278 103.845 26.6108C103.845 26.1938 103.679 25.7939 103.384 25.4991C103.09 25.2042 102.69 25.0385 102.273 25.0385ZM94.804 28.9917C94.1654 28.0574 93.3583 27.2504 92.424 26.6117C93.3582 25.9734 94.1653 25.1666 94.804 24.2326C95.4421 25.1668 96.2489 25.9736 97.1831 26.6117C96.249 27.2499 95.4422 28.0576 94.804 28.9917Z" fill="black"/>
</svg>
