<svg width="115" height="112" viewBox="0 0 115 112" fill="none" xmlns="http://www.w3.org/2000/svg">
<path d="M114.647 33.0863C94.7401 7.5618 95.5891 8.20126 94.5262 8.09704L63.3652 3.89978C55.5102 2.84165 50.1746 4.21693 47.4501 4.46333C46.5357 4.58641 45.8945 5.42757 46.0173 6.34195C46.1404 7.25633 46.9827 7.89894 47.896 7.77473C50.6591 7.52137 55.6146 6.22785 62.9191 7.21119L84.3176 10.0934C82.7161 10.4197 59.1021 15.2317 57.4995 15.5583L30.6822 10.0934L39.9518 8.84476C40.8662 8.72168 41.5074 7.88052 41.3846 6.96614C41.2615 6.05153 40.4185 5.41005 39.5059 5.53336L20.4749 8.09659C20.4722 8.09682 20.4695 8.09727 20.4668 8.09772L20.4416 8.10109C20.416 8.10468 20.3911 8.11029 20.3657 8.11501C20.3493 8.11816 20.3325 8.1204 20.3163 8.124C20.3026 8.12692 20.2889 8.12984 20.2754 8.13298C20.2563 8.1377 20.2374 8.14331 20.2186 8.14848C20.1894 8.15656 20.1602 8.16443 20.1314 8.17408C20.1195 8.17813 20.1083 8.18307 20.0964 8.18734C20.0912 8.18913 20.0861 8.19115 20.0811 8.19318C20.0645 8.19946 20.0472 8.2053 20.0308 8.21182C20.0007 8.22417 19.9715 8.23787 19.9423 8.25202C19.9295 8.25809 19.9169 8.2637 19.9044 8.26999C19.8902 8.27718 19.8765 8.28414 19.8628 8.29155C19.8495 8.29874 19.837 8.30683 19.8237 8.31469C19.0982 8.7374 19.4524 8.76727 0.35331 33.0861C-0.0437981 33.5955 -0.112079 34.288 0.178564 34.865C0.851042 36.1992 -0.937515 33.5656 35.9317 82.5049C36.4874 83.2416 37.535 83.3881 38.2717 82.8324C39.0082 82.2767 39.1546 81.2291 38.5992 80.4924L6.21537 37.5706L32.3827 45.8129C33.0103 47.468 52.1772 98.0222 52.5328 98.9602L43.3119 86.739C42.7562 86.0023 41.7089 85.8558 40.972 86.4115C40.2352 86.9672 40.089 88.0148 40.6445 88.7515C50.2997 101.546 51.2945 102.872 51.3632 102.949C52.5831 104.324 54.2701 105.194 55.8837 105.466C56.1225 105.506 58.9218 105.505 59.1558 105.46C61.1903 105.065 62.9088 103.915 63.7201 102.847L96.3319 59.6227C96.8873 58.886 96.7409 57.8384 96.0044 57.2827C95.2672 56.7275 94.2203 56.8739 93.6644 57.6102L62.4663 98.9611C63.4629 96.3325 81.8844 47.7447 82.6168 45.8131L108.784 37.5708L98.3608 51.3861C97.8053 52.1228 97.9515 53.1704 98.6882 53.726C99.4252 54.2817 100.473 54.1353 101.028 53.3986C115.022 34.8338 114.268 35.9591 114.82 34.8677C115.112 34.2902 115.044 33.5964 114.647 33.0863ZM57.4998 19.7978L77.6559 42.7921H37.3439L57.4998 19.7978ZM4.29676 33.4632L20.1463 13.1382L30.8917 41.8407L4.29676 33.4632ZM23.287 11.9962C26.595 12.6703 50.315 17.5043 54.3469 18.3259L34.2427 41.2609L23.287 11.9962ZM57.6844 102.149H57.3156L36.0777 46.1331H78.9223L57.6844 102.149ZM80.7569 41.2607L60.6526 18.3259C63.327 17.7808 87.6002 12.8345 91.7126 11.9962L80.7569 41.2607ZM84.1078 41.8402L94.8533 13.1377L110.703 33.463L84.1078 41.8402Z" fill="black"/>
</svg>
