<svg width="115" height="115" viewBox="0 0 115 115" fill="none" xmlns="http://www.w3.org/2000/svg">
<path d="M95.9783 43.125C94.8089 42.0111 93.2557 41.3897 91.6406 41.3897C90.0256 41.3897 88.4724 42.0111 87.303 43.125L73.8157 56.6123C76.4987 51.4987 78.3937 46.009 79.4363 40.3291L80.8307 32.6654C80.9004 32.2826 80.8441 31.8875 80.6701 31.5395C80.4961 31.1915 80.2138 30.9094 79.8657 30.7355L77.192 29.3987C73.7448 27.67 70.6918 25.2479 68.2243 22.2842C65.7569 19.3205 63.9282 15.8791 62.8529 12.1756C62.4522 6.23336 53.3474 1.79688 41.3281 1.79688C29.3089 1.79688 20.2041 6.23336 19.8034 12.1756C18.7281 15.8791 16.8994 19.3205 14.4319 22.2842C11.9645 25.2479 8.91153 27.67 5.46432 29.3987L2.79057 30.7355C2.44248 30.9094 2.16022 31.1915 1.98621 31.5395C1.81221 31.8875 1.75586 32.2826 1.82565 32.6654L3.22182 40.347C4.83556 49.1366 8.46822 57.4313 13.8336 64.5778C19.199 71.7243 26.1506 77.5273 34.1406 81.5296V91.8976C27.6485 92.372 16.1719 93.9029 16.1719 98.8281V106.016C16.1719 113.002 38.7532 113.203 41.3281 113.203C43.9031 113.203 66.4844 113.002 66.4844 106.016V98.8281C66.4844 93.9029 55.0078 92.372 48.5156 91.8976V81.5332C57.1649 77.1888 64.5834 70.7399 70.0889 62.7792C70.0889 62.817 70.0781 62.8529 70.0781 62.8906C70.0757 63.6966 70.2333 64.495 70.5417 65.2396C70.8502 65.9842 71.3034 66.6601 71.875 67.2283L84.4531 79.8064V92.0755C79.6878 92.6774 71.875 94.3467 71.875 98.8281V106.016C71.875 110.953 82.1172 113.203 91.6406 113.203C101.164 113.203 111.406 110.953 111.406 106.016V98.8281C111.406 94.3359 103.574 92.6756 98.8281 92.0755V79.8064L111.406 67.2283C112.557 66.0778 113.203 64.5175 113.203 62.8906C113.203 61.2637 112.557 59.7034 111.406 58.553L95.9783 43.125ZM61.0938 43.125C61.0938 43.4804 60.9884 43.8278 60.7909 44.1233C60.5935 44.4188 60.3129 44.6491 59.9845 44.7851C59.6562 44.9211 59.2949 44.9567 58.9463 44.8873C58.5978 44.818 58.2776 44.6469 58.0263 44.3956C57.775 44.1443 57.6039 43.8241 57.5346 43.4756C57.4652 43.127 57.5008 42.7657 57.6368 42.4374C57.7728 42.109 58.0031 41.8284 58.2986 41.631C58.5941 41.4335 58.9415 41.3281 59.2969 41.3281C59.7735 41.3281 60.2305 41.5174 60.5675 41.8544C60.9045 42.1914 61.0938 42.6484 61.0938 43.125ZM60.4092 37.853C60.0436 37.7742 59.6708 37.7345 59.2969 37.7344C57.9354 37.7381 56.626 38.2579 55.6327 39.1889C54.6393 40.1199 54.0359 41.3929 53.944 42.7512C52.1407 43.7774 50.2391 44.6202 48.2677 45.2669C47.5224 44.0919 46.4997 43.1181 45.2896 42.4313C44.0795 41.7444 42.7191 41.3656 41.3281 41.3281C39.9369 41.366 38.5763 41.7454 37.3661 42.4328C36.156 43.1203 35.1335 44.0948 34.3886 45.2705C32.4172 44.6238 30.5156 43.781 28.7123 42.7548C28.6213 41.3958 28.0182 40.1219 27.0248 39.1902C26.0313 38.2584 24.7214 37.7382 23.3594 37.7344C22.9855 37.7345 22.6127 37.7742 22.2471 37.853C19.1096 34.7412 16.671 30.9966 15.0938 26.8687C17.8924 24.0931 20.1473 20.8186 21.7422 17.2141C25.088 20.9084 32.3995 23.3594 41.3281 23.3594C50.2568 23.3594 57.5683 20.9084 60.9141 17.2141C62.509 20.8186 64.7639 24.0931 67.5625 26.8687C65.9853 30.9966 63.5467 34.7412 60.4092 37.853ZM46.7188 52.1094C46.7188 56.0733 44.3002 59.2969 41.3281 59.2969C38.3561 59.2969 35.9375 56.0733 35.9375 52.1094C35.9375 48.1455 38.3561 44.9219 41.3281 44.9219C44.3002 44.9219 46.7188 48.1455 46.7188 52.1094ZM23.3594 41.3281C23.7148 41.3281 24.0622 41.4335 24.3577 41.631C24.6532 41.8284 24.8835 42.109 25.0195 42.4374C25.1555 42.7657 25.1911 43.127 25.1217 43.4756C25.0524 43.8241 24.8813 44.1443 24.63 44.3956C24.3787 44.6469 24.0585 44.818 23.71 44.8873C23.3614 44.9567 23.0001 44.9211 22.6718 44.7851C22.3434 44.6491 22.0628 44.4188 21.8654 44.1233C21.6679 43.8278 21.5625 43.4804 21.5625 43.125C21.5625 42.6484 21.7518 42.1914 22.0888 41.8544C22.4258 41.5174 22.8828 41.3281 23.3594 41.3281ZM41.3281 5.39062C51.6135 5.39062 59.2969 9.18562 59.2969 12.5781C59.2969 15.9706 51.6135 19.7656 41.3281 19.7656C31.0428 19.7656 23.3594 15.9706 23.3594 12.5781C23.3594 9.18562 31.0428 5.39062 41.3281 5.39062ZM41.3281 109.609C28.5003 109.609 20.691 107.257 19.7656 105.893V102.909C26.2452 105.902 39.4001 106.016 41.3281 106.016C43.2562 106.016 56.4111 105.902 62.8906 102.909V105.893C61.9653 107.257 54.156 109.609 41.3281 109.609ZM41.3281 102.422C28.8884 102.422 21.1672 100.21 19.8681 98.8281C20.7665 97.9207 25.0898 96.1688 34.1928 95.4913C34.2376 95.8704 34.4041 96.2247 34.6671 96.5012C35.4014 97.2409 36.2752 97.8275 37.2378 98.2269C38.2005 98.6264 39.2329 98.8307 40.2752 98.8281H42.3811C43.4231 98.8312 44.4554 98.6274 45.418 98.2286C46.3807 97.8298 47.2546 97.2438 47.9892 96.5048C48.2522 96.2282 48.4187 95.8739 48.4635 95.4949C57.5665 96.1723 61.8916 97.9243 62.7882 98.8317C61.4891 100.21 53.7679 102.422 41.3281 102.422ZM44.9219 94.4114C44.1815 94.9439 43.2931 95.2317 42.3811 95.2344H40.2752C39.3632 95.2317 38.4748 94.9439 37.7344 94.4114V83.1755C38.7317 83.5924 39.7343 83.9967 40.7603 84.3579C41.1391 84.486 41.5501 84.4822 41.9265 84.3471C42.9417 83.9877 43.9354 83.5888 44.9219 83.1755V94.4114ZM41.3281 80.7444C32.4958 77.5005 24.6619 72.0097 18.5995 64.8138C12.5371 57.618 8.45571 48.9657 6.75807 39.7109L5.60268 33.3536L7.07252 32.6187C8.88995 31.7023 10.6135 30.6106 12.2188 29.3591C13.8696 33.2375 16.2126 36.7831 19.1331 39.8223C18.6885 40.383 18.3604 41.0269 18.1681 41.7162C17.9758 42.4055 17.9232 43.1262 18.0133 43.8361C18.1035 44.546 18.3346 45.2307 18.693 45.8501C19.0515 46.4694 19.5301 47.0108 20.1008 47.4426C20.6714 47.8744 21.3226 48.1877 22.0161 48.3643C22.7096 48.5409 23.4313 48.5771 24.139 48.4708C24.8466 48.3646 25.5259 48.118 26.1369 47.7455C26.748 47.373 27.2784 46.8822 27.6971 46.3019C29.3544 47.191 31.0815 47.9434 32.8613 48.5516C32.52 49.7068 32.3457 50.9048 32.3438 52.1094C32.3438 58.0552 36.3742 62.8906 41.3281 62.8906C46.2821 62.8906 50.3125 58.0552 50.3125 52.1094C50.3117 50.905 50.1387 49.7069 49.7986 48.5516C51.5788 47.9431 53.3065 47.1907 54.9646 46.3019C55.3817 46.8863 55.9117 47.3812 56.5233 47.7572C57.1349 48.1333 57.8157 48.3829 58.5254 48.4913C59.2352 48.5997 59.9594 48.5647 60.6554 48.3884C61.3514 48.2121 62.005 47.898 62.5775 47.4648C63.15 47.0315 63.6298 46.4879 63.9886 45.866C64.3474 45.2441 64.5779 44.5566 64.6664 43.8441C64.7548 43.1316 64.6996 42.4086 64.5039 41.7178C64.3081 41.027 63.9759 40.3825 63.5267 39.8223C66.446 36.7828 68.7878 33.2373 70.4375 29.3591C72.0418 30.6085 73.7642 31.6984 75.5802 32.6133L77.05 33.3482L75.8982 39.6858C74.2031 48.9445 70.1229 57.6012 64.0605 64.8015C57.9981 72.0019 50.1628 77.4969 41.3281 80.7444ZM88.0469 83.269C89.0872 84.0382 90.3469 84.4533 91.6406 84.4533C92.9344 84.4533 94.1941 84.0382 95.2344 83.269V94.4096C94.4942 94.9428 93.6058 95.2312 92.6936 95.2344H90.5877C89.6757 95.2317 88.7873 94.9439 88.0469 94.4114V83.269ZM91.6406 109.609C81.1289 109.609 75.7401 106.986 75.4688 106.016V103.191C79.2925 105.117 85.6085 106.016 91.6406 106.016C97.6728 106.016 103.991 105.108 107.813 103.189V105.989C107.541 106.986 102.152 109.609 91.6406 109.609ZM107.813 98.8012C107.541 99.7984 102.152 102.422 91.6406 102.422C81.1289 102.422 75.7581 99.8056 75.4688 98.8605V98.8497C75.6359 98.2783 78.1964 96.5425 84.5448 95.6908C84.6152 95.9958 84.7653 96.2767 84.9796 96.5048C85.7142 97.2438 86.5881 97.8298 87.5508 98.2286C88.5134 98.6274 89.5457 98.8312 90.5877 98.8281H92.6936C93.7356 98.8312 94.7679 98.6274 95.7305 98.2286C96.6932 97.8298 97.5671 97.2438 98.3017 96.5048C98.5166 96.2768 98.6672 95.9959 98.7383 95.6908C105.103 96.5443 107.66 98.2891 107.813 98.8012ZM108.865 64.6875L93.4375 80.1155C92.95 80.5708 92.3078 80.8241 91.6406 80.8241C90.9735 80.8241 90.3313 80.5708 89.8438 80.1155L74.4158 64.6875C73.9396 64.2108 73.6721 63.5645 73.6721 62.8906C73.6721 62.2168 73.9396 61.5705 74.4158 61.0938L89.8438 45.6658C90.3205 45.1896 90.9668 44.9221 91.6406 44.9221C92.3145 44.9221 92.9608 45.1896 93.4375 45.6658L108.865 61.0938C109.342 61.5705 109.609 62.2168 109.609 62.8906C109.609 63.5645 109.342 64.2108 108.865 64.6875Z" fill="black"/>
<path d="M98.8281 59.7227V53.9062H95.2344V59.7227C94.0627 60.4007 93.1048 61.3938 92.4695 62.5891C91.8342 63.7844 91.547 65.134 91.6406 66.4844C91.6406 70.5148 94.0089 73.6719 97.0312 73.6719C100.054 73.6719 102.422 70.5148 102.422 66.4844C102.515 65.134 102.228 63.7844 101.593 62.5891C100.958 61.3938 99.9997 60.4007 98.8281 59.7227ZM97.0312 70.0781C96.2981 70.0781 95.2344 68.6784 95.2344 66.4844C95.2344 64.2904 96.2981 62.8906 97.0312 62.8906C97.7644 62.8906 98.8281 64.2904 98.8281 66.4844C98.8281 68.6784 97.7644 70.0781 97.0312 70.0781Z" fill="black"/>
<path d="M88.0469 59.7227V53.9062H84.4531V59.7227C83.2815 60.4007 82.3235 61.3938 81.6883 62.5891C81.053 63.7844 80.7658 65.134 80.8594 66.4844C80.8594 70.5148 83.2276 73.6719 86.25 73.6719C89.2723 73.6719 91.6406 70.5148 91.6406 66.4844C91.7342 65.134 91.447 63.7844 90.8117 62.5891C90.1764 61.3938 89.2185 60.4007 88.0469 59.7227ZM86.25 70.0781C85.5169 70.0781 84.4531 68.6784 84.4531 66.4844C84.4531 64.2904 85.5169 62.8906 86.25 62.8906C86.9831 62.8906 88.0469 64.2904 88.0469 66.4844C88.0469 68.6784 86.9831 70.0781 86.25 70.0781Z" fill="black"/>
</svg>
