<svg width="83" height="84" viewBox="0 0 83 84" fill="none" xmlns="http://www.w3.org/2000/svg">
<rect x="0.288574" y="0.806641" width="82.3086" height="82.3086" rx="10" fill="white"/>
<g clip-path="url(#clip0_320_1183)">
<path d="M41.4071 17.9424V18.4886L40.1927 18.5204L38.9974 18.6093L37.8211 18.7618L36.6639 18.965L35.5258 19.2254L34.4067 19.543L33.3131 19.9114L32.2449 20.3306L31.2021 20.8006L30.1848 21.3214L29.1993 21.8867L28.2456 22.4965L27.3236 23.1507L26.4335 23.8494L25.5814 24.5862L24.7612 25.3674L23.9792 26.1868L23.2416 27.0379L22.5422 27.9271L21.8873 28.8481L21.2769 29.8008L20.711 30.7853L20.1896 31.8016L19.7191 32.8432L19.2995 33.9103L18.9307 35.0028L18.6128 36.1207L18.3521 37.2576L18.1486 38.4136L17.996 39.5886L17.907 40.7827L17.8752 41.9959H17.3284L17.3602 40.7573L17.4556 39.5378L17.6082 38.331L17.818 37.1433L18.0851 35.9809L18.4093 34.8377L18.7908 33.7198L19.2232 32.6273L19.7064 31.5602L20.2405 30.5249L20.8191 29.515L21.4422 28.5369L22.1162 27.5905L22.8347 26.6822L23.5913 25.8057L24.3861 24.9673L25.2254 24.1733L26.1028 23.4175L27.0121 22.6997L27.9594 22.0265L28.9386 21.404L29.9496 20.826L30.986 20.2925L32.0541 19.8098L33.1478 19.3779L34.2668 18.9968L35.4113 18.6728L36.5749 18.4061L37.7639 18.1965L38.9719 18.044L40.1927 17.9488L41.4326 17.917L41.4071 17.9424ZM17.3157 42.0086H17.8625L17.8943 43.2218L17.9833 44.4159L18.1359 45.5909L18.3394 46.7469L18.6001 47.8838L18.918 49.0017L19.2868 50.0942L19.7064 51.1613L20.1769 52.2029L20.6983 53.2192L21.2642 54.2037L21.8746 55.1564L22.5295 56.0774L23.2289 56.9666L23.9665 57.8177L24.7485 58.6371L25.5687 59.4183L26.4207 60.1551L27.3109 60.8538L28.2328 61.508L29.1866 62.1178L30.1721 62.6831L31.1894 63.2039L32.2322 63.6739L33.3004 64.0931L34.394 64.4615L35.513 64.7791L36.6512 65.0395L37.8084 65.2427L38.9846 65.3952L40.18 65.4841L41.3944 65.5159V66.0621L40.1546 66.0304L38.9338 65.9351L37.7257 65.7826L36.5367 65.573L35.3732 65.3063L34.2287 64.9823L33.1096 64.6012L32.016 64.1693L30.9478 63.6866L29.9114 63.1531L28.9005 62.5751L27.9213 61.9526L26.9739 61.2794L26.0647 60.5616L25.1872 59.8058L24.3479 59.0118L23.5532 58.1734L22.7965 57.2969L22.078 56.3886L21.4041 55.4422L20.781 54.4641L20.2024 53.4542L19.6683 52.4189L19.185 51.3518L18.7527 50.2593L18.3712 49.1415L18.0469 47.9982L17.7799 46.8358L17.57 45.6481L17.4174 44.4413L17.3221 43.2218L17.2903 41.9832L17.3157 42.0086ZM41.4135 66.0748V65.5286L42.6279 65.4968L43.8233 65.4079L44.9996 65.2555L46.1568 65.0522L47.2949 64.7918L48.4139 64.4742L49.5076 64.1058L50.5757 63.6866L51.6185 63.2166L52.6358 62.6958L53.6214 62.1305L54.5751 61.5207L55.497 60.8665L56.3872 60.1678L57.2392 59.431L58.0594 58.6498L58.8415 57.8304L59.579 56.9793L60.2784 56.0901L60.9333 55.1691L61.5437 54.2164L62.1096 53.2319L62.631 52.2156L63.1015 51.174L63.5212 50.1069L63.8899 49.0144L64.2078 47.8965L64.4685 46.7596L64.672 45.6036L64.8246 44.4286L64.9136 43.2345L64.9454 42.0213H65.4922L65.4604 43.2599L65.365 44.4794L65.2124 45.6862L65.0026 46.8739L64.7356 48.0363L64.4113 49.1796L64.0298 50.2974L63.5975 51.3899L63.1142 52.457L62.5801 53.4923L62.0015 54.5022L61.3784 55.4803L60.7044 56.4267L59.986 57.335L59.2293 58.2115L58.4346 59.0499L57.5953 59.8439L56.7178 60.5997L55.8086 61.3175L54.8612 61.9907L53.882 62.6132L52.8711 63.1912L51.8347 63.7247L50.7665 64.2074L49.6729 64.6393L48.5538 65.0204L47.4093 65.3444L46.2458 65.6111L45.0568 65.8207L43.8487 65.9732L42.6279 66.0685L41.3881 66.1002L41.4135 66.0748ZM65.5113 42.0086H64.9645L64.9327 40.7955L64.8437 39.6013L64.6911 38.4263L64.4876 37.2703L64.2269 36.1334L63.909 35.0155L63.5402 33.923L63.1206 32.856L62.6501 31.8143L62.1287 30.798L61.5628 29.8135L60.9524 28.8608L60.2975 27.9398L59.5981 27.0506L58.8606 26.1995L58.0785 25.3801L57.2583 24.5989L56.4063 23.8621L55.5161 23.1634L54.5942 22.5092L53.6404 21.8994L52.6549 21.3342L51.6376 20.8133L50.5948 20.3433L49.5266 19.9241L48.433 19.5557L47.314 19.2381L46.1758 18.9777L45.0186 18.7745L43.8424 18.622L42.647 18.5331L41.4326 18.5013V17.9551L42.6724 17.9869L43.8932 18.0821L45.1013 18.2346L46.2903 18.4442L47.4538 18.7109L48.5983 19.0349L49.7174 19.416L50.811 19.8479L51.8792 20.3306L52.9156 20.8641L53.9265 21.4421L54.9057 22.0646L55.8531 22.7379L56.7623 23.4556L57.6398 24.2114L58.4791 25.0054L59.2738 25.8438L60.0305 26.7203L60.749 27.6286L61.4229 28.575L62.046 29.5531L62.6246 30.563L63.1587 31.5983L63.642 32.6654L64.0743 33.7579L64.4558 34.8758L64.7801 36.019L65.0471 37.1814L65.257 38.3691L65.4095 39.5759L65.5049 40.7955L65.5367 42.034L65.5113 42.0086Z" fill="#D6992D"/>
<path fill-rule="evenodd" clip-rule="evenodd" d="M21.6964 35.4346L22.3132 36.381L23.3178 36.0888L22.612 36.9653L23.197 37.8291L22.1415 37.4353L21.4993 38.2547L21.5566 37.1304L20.5774 36.7748L21.6647 36.4762L21.6964 35.4346Z" fill="#D6992D"/>
<path fill-rule="evenodd" clip-rule="evenodd" d="M37.4775 50.812H38.9018L41.3942 55.1946L43.8739 50.812H45.2918L41.3942 57.6908L37.4775 50.812Z" fill="#D6992D"/>
<path fill-rule="evenodd" clip-rule="evenodd" d="M35.3984 30.436H26.5667L33.3828 42.593H32.6707L25.3396 29.6294H34.6926L35.3984 30.436Z" fill="#D6992D"/>
<path fill-rule="evenodd" clip-rule="evenodd" d="M31.4817 31.2618C32.1684 30.9823 32.9123 30.8299 33.8152 30.9569C34.4574 31.0712 35.2267 31.3824 35.7099 31.8144C35.3475 32.0557 34.4319 32.2272 33.6117 32.1573C32.7088 32.0748 32.0412 31.7318 31.4817 31.2618ZM31.1447 31.4206C31.8568 32.0049 32.6771 32.386 33.6435 32.4686C34.4828 32.5067 35.2776 32.4178 35.9897 32.0494L36.4539 32.5702L36.0024 33.0466C35.1313 32.6655 34.4319 32.6274 33.6817 32.6464C32.6135 32.6972 31.7996 33.1736 31.1638 33.6944C30.6297 33.4213 30.2037 33.0148 29.8286 32.5448C30.2164 32.0748 30.6488 31.681 31.1511 31.4142L31.1447 31.4206ZM36.9053 32.4686V32.6591L36.8417 32.5511L36.9053 32.4686ZM36.6319 32.8306C36.7718 32.9957 36.8799 33.199 36.7273 33.5039L36.2949 33.2117L36.6319 32.8306ZM37.0388 33.5864L37.077 33.777L36.9689 33.7198L37.0325 33.5864H37.0388ZM36.8608 34.0374C37.0833 34.139 37.1914 34.3296 37.1533 34.6472L36.6255 34.5011L36.8671 34.0374H36.8608ZM37.4394 34.6789L37.5157 34.825H37.414L37.4394 34.6789ZM37.3885 35.1108C37.6429 35.1743 37.8082 35.3331 37.8209 35.6634L37.2804 35.6317L37.3885 35.1108ZM38.1324 35.5999L38.266 35.7333L38.1197 35.746L38.1324 35.5999ZM39.0226 36.2922L39.1879 36.3939L39.0353 36.4256L39.0226 36.2922ZM40.0717 36.7622L40.2688 36.8194L40.1416 36.8956L40.0717 36.7622ZM38.196 36.0255C38.4694 36.0445 38.6729 36.1588 38.7301 36.4701L38.2151 36.5526L38.196 36.0255ZM39.1943 36.6987C39.4804 36.6352 39.7029 36.6987 39.7983 36.9655L39.3469 37.2196L39.1943 36.6987ZM40.3515 37.1243C40.5867 37.0354 40.7965 37.0544 41 37.1878L40.6249 37.5562L40.3515 37.1243ZM41.5723 37.2069C41.7312 37.0608 41.941 37.01 42.2272 37.1179L41.941 37.5498L41.5723 37.2132V37.2069ZM42.3289 36.8131L42.5069 36.7559L42.4688 36.8766L42.3225 36.8067L42.3289 36.8131ZM42.7485 36.9719C42.8693 36.7368 43.0792 36.6479 43.3716 36.6987L43.2381 37.2513L42.7485 36.9719ZM43.4225 36.3748L43.5497 36.3176L43.537 36.4129L43.4225 36.3748ZM43.8358 36.4574C43.8867 36.216 44.0583 36.0636 44.389 36.0191L44.3508 36.5653L43.8358 36.4574ZM44.319 35.7079L44.4525 35.619V35.7142H44.319V35.7079ZM44.7514 35.638C44.7832 35.3903 44.8976 35.2061 45.1837 35.1362L45.2918 35.638H44.7514ZM45.0311 34.8187L45.1138 34.6662L45.1647 34.8187H45.0311ZM45.4317 34.6281C45.3745 34.3804 45.4635 34.1708 45.7051 34.0057L45.9531 34.5011L45.4381 34.6345L45.4317 34.6281ZM45.4762 33.7643L45.5589 33.5674L45.6225 33.7389L45.4826 33.7643H45.4762ZM45.845 33.4975C45.7051 33.2562 45.7433 33.0402 45.9277 32.837L46.271 33.2117L45.845 33.4975ZM29.6124 32.837C29.9875 33.2371 30.3944 33.6055 30.8713 33.9167C30.458 34.3423 30.1592 34.7996 29.9621 35.276C29.5552 34.9647 29.2627 34.59 29.0719 34.1517C29.1482 33.7198 29.3008 33.2879 29.6124 32.837ZM31.4944 33.8405C32.0094 33.3705 32.7216 33.0529 33.7262 32.9449C34.3683 32.9005 35.0233 32.9576 35.7099 33.2879C35.1949 33.7452 34.5464 34.0057 33.8025 34.139C32.9759 34.2788 32.2129 34.1581 31.4944 33.8405ZM31.2337 34.0819C32.0794 34.4757 33.0331 34.6154 34.1522 34.3804C34.8452 34.1898 35.5001 33.9421 36.0151 33.4213C36.2186 33.5229 36.4157 33.6436 36.581 33.8088C36.5492 34.012 36.4602 34.2026 36.3203 34.3804C35.303 34.2534 34.4192 34.3931 33.6372 34.717C32.8042 35.1235 32.2193 35.6507 31.8187 36.2605C31.1956 36.1461 30.6742 35.8857 30.2355 35.5237C30.4262 34.9902 30.7314 34.4947 31.2401 34.0819H31.2337ZM32.143 36.343C32.5245 35.8032 33.0522 35.3395 33.7898 34.9838C34.5019 34.6853 35.2649 34.5709 36.0914 34.6853C35.7227 35.2442 35.1822 35.6825 34.4892 36.0128C33.6753 36.324 32.8996 36.4129 32.143 36.3367V36.343ZM31.3355 38.2612C31.4626 37.6832 31.6216 37.1179 31.9331 36.6289C32.8805 36.7305 33.847 36.7051 34.8961 36.1652C35.5065 35.7968 36.0596 35.3712 36.4411 34.7615L37.0833 34.9647L36.9689 35.6317C36.0151 35.7269 35.2649 36.0128 34.699 36.4574C33.9042 37.0417 33.351 37.7467 33.0967 38.5852C32.4799 38.6296 31.895 38.528 31.3418 38.2739L31.3355 38.2612ZM33.44 38.5534C33.758 37.8166 34.1903 37.2069 34.7944 36.775C35.3475 36.3621 36.0024 36.0572 36.8417 35.9429C36.6319 36.5781 36.1805 37.1433 35.6019 37.6578C34.9597 38.2041 34.2348 38.4899 33.44 38.5534ZM33.1794 40.6431C33.0586 40.0333 33.1158 39.449 33.3256 38.89C34.5972 38.7694 35.4874 38.2358 36.1995 37.5244C36.6828 36.9973 37.0197 36.4701 37.166 35.9238L37.859 35.9556L37.8845 36.6479C36.9371 37.0163 36.3013 37.5562 35.8053 38.1723C35.2394 38.9599 34.966 39.7411 34.9342 40.5224C34.3175 40.7256 33.7325 40.7701 33.173 40.6367L33.1794 40.6431ZM33.7898 42.3262C33.5036 41.9261 33.332 41.4688 33.2429 40.967C33.7961 41.0051 34.3493 40.9924 34.9088 40.8336C34.9406 41.3926 35.0233 41.9579 35.2204 42.5168C34.7244 42.5359 34.2475 42.4723 33.7898 42.3199V42.3262ZM35.2458 40.4081C35.3602 39.6205 35.6336 38.9027 36.1296 38.2866C36.581 37.7213 37.1533 37.2831 37.8654 36.9973C37.7955 37.7086 37.5538 38.3756 37.1024 38.979C36.5874 39.6967 35.9388 40.1032 35.2458 40.4081ZM38.8382 36.7368L39.0798 37.3911C38.3677 37.8738 37.9035 38.4772 37.5793 39.1441C37.1533 40.027 37.0452 40.9416 37.2041 41.8816C36.6382 42.2373 36.0851 42.4279 35.5637 42.4533C35.2839 41.8816 35.2076 41.31 35.2394 40.7256C36.3712 40.3382 37.0007 39.6903 37.4966 38.979C37.8972 38.2993 38.1515 37.6007 38.1833 36.8639L38.8446 36.7368H38.8382ZM39.1243 37.7595C39.2324 38.5216 39.1625 39.2838 38.8509 40.0333C38.5394 40.7002 38.1006 41.2655 37.4839 41.7101C37.3758 40.9098 37.4585 40.1222 37.8082 39.3537C38.1261 38.7567 38.533 38.2041 39.1243 37.7595ZM40.5486 38.1342C40.7965 38.6487 40.9682 39.2457 40.8983 40.1413C40.7838 41.0813 40.4532 41.7864 39.9763 42.3517C39.6839 41.6085 39.5821 40.8654 39.6648 40.1222C39.7983 39.3982 40.0463 38.7249 40.5486 38.1405V38.1342ZM42.011 38.1215C42.3543 38.5407 42.6595 39.0552 42.8375 39.8745C42.9901 40.732 42.9329 41.5641 42.5832 42.358C42.0491 41.6911 41.7757 40.9543 41.6613 40.1667C41.6168 39.4553 41.6867 38.763 42.011 38.1151V38.1215ZM43.4161 37.7595C44.6624 38.4962 45.2855 40.3446 45.0502 41.6784C44.5098 41.3227 44.1156 40.8019 43.8167 40.1858C43.4034 39.3664 43.3017 38.5598 43.4161 37.7658V37.7595ZM43.7023 36.7495L44.3381 36.902C44.4271 37.6578 44.6942 38.42 45.2028 39.1759C45.756 39.8682 46.4109 40.4462 47.3074 40.7383C47.3265 41.329 47.2883 41.907 46.9958 42.4533C46.4808 42.4152 45.9277 42.2246 45.3491 41.9325C45.5271 40.9352 45.3936 39.938 44.8913 38.9408C44.5543 38.2803 44.052 37.8039 43.4734 37.4038L43.6959 36.7432L43.7023 36.7495ZM47.638 40.8527C48.2039 40.9988 48.7634 41.0242 49.3293 40.9607C49.2403 41.437 49.0623 41.888 48.7889 42.3199C48.3692 42.4723 47.8796 42.5168 47.3519 42.5041C47.5427 41.9833 47.6507 41.437 47.6317 40.8527H47.638ZM44.6878 36.9973C45.3681 37.2577 45.9149 37.6896 46.3791 38.2168C46.9386 38.8519 47.2311 39.576 47.2883 40.389C46.6143 40.0968 45.9785 39.703 45.4508 38.979C44.9612 38.293 44.7577 37.6388 44.6878 36.9973ZM44.6942 35.9556L45.3618 35.9175C45.6479 36.5971 46.0357 37.2513 46.6779 37.8357C47.3837 38.42 48.2103 38.8202 49.253 38.8837C49.3993 39.4617 49.5137 40.046 49.3802 40.6621C48.7952 40.732 48.2039 40.6748 47.619 40.5033C47.5172 39.4744 47.1294 38.5216 46.3219 37.6769C45.8132 37.1815 45.2473 36.8575 44.6369 36.6416L44.6878 35.9556H44.6942ZM45.7306 35.9492C47.212 36.197 48.4392 36.8893 49.1195 38.5534C47.4346 38.4264 46.2646 37.2831 45.7306 35.9492ZM45.4762 34.9774L46.112 34.7742C46.4999 35.3204 46.9895 35.765 47.5935 36.1144C48.5155 36.6162 49.5201 36.8067 50.6201 36.6289C50.9507 37.1497 51.1541 37.6959 51.1796 38.2993C50.6455 38.5407 50.0732 38.6233 49.4756 38.5852C49.0559 37.6007 48.4328 36.7686 47.4409 36.2033C46.8496 35.8667 46.2329 35.6888 45.5843 35.6507L45.4699 34.9774H45.4762ZM46.4935 34.6916C48.3629 34.4122 50.0097 35.6698 50.3975 36.3557C48.649 36.5399 47.1866 35.7778 46.4935 34.6916ZM45.9467 33.7961L46.4999 33.4467C47.0849 33.9104 47.7461 34.2724 48.5663 34.4185C49.4819 34.5392 50.4039 34.5582 51.3449 34.0819C51.809 34.4693 52.1587 34.9266 52.3241 35.4983C51.8981 35.8667 51.364 36.108 50.7599 36.2605C50.1877 35.3967 49.3357 34.8568 48.2993 34.5138C47.5363 34.3105 46.8623 34.2915 46.2392 34.4122L45.9404 33.7961H45.9467ZM52.9345 32.837C53.2015 33.2117 53.4113 33.6246 53.494 34.139C53.3032 34.5837 52.9917 34.9711 52.6038 35.3141C52.3622 34.7742 52.0189 34.3296 51.6247 33.9294C52.1333 33.6563 52.5657 33.2879 52.9345 32.837ZM46.8432 33.2879C48.1467 32.621 49.9779 32.9005 51.0842 33.8342C49.6917 34.4947 48.0386 34.2153 46.8432 33.2879ZM46.1311 32.5448L46.5762 32.0494C47.2629 32.3352 47.9941 32.5575 48.9478 32.4622C49.8126 32.3415 50.6455 32.0748 51.3958 31.4396C51.8981 31.7064 52.3622 32.0494 52.731 32.5448C52.3749 33.0275 51.9235 33.3959 51.4021 33.6817C50.7027 33.0783 49.838 32.7798 48.8906 32.6401C48.0068 32.5638 47.2438 32.7417 46.5635 33.0656L46.1248 32.5448H46.1311ZM46.856 31.7953C48.045 30.8934 49.7299 30.5885 51.0969 31.2681C49.9842 32.2018 48.0958 32.5003 46.856 31.7953ZM51.8663 38.3374L51.542 38.9154V38.4645L51.8663 38.3374ZM52.6738 36.8829L52.0061 38.077L52.2096 37.7086L52.1015 37.7722C51.9934 37.8357 51.4975 38.1469 51.4975 38.1469C51.4975 38.1469 51.4593 37.823 51.3067 37.3593C51.1541 36.8956 50.938 36.5463 50.9507 36.5463C50.9634 36.5463 51.3385 36.4256 51.6946 36.2795C52.0507 36.1334 52.4639 35.8095 52.4639 35.8095C52.4639 35.8095 52.5148 35.9111 52.5657 36.1906C52.6165 36.4701 52.6674 36.8829 52.6674 36.8829H52.6738ZM47.5045 30.4361H56.2598L52.9154 36.451C52.9154 36.451 52.8899 36.2541 52.8454 36.0763C52.8009 35.8921 52.7119 35.638 52.7119 35.638C52.7119 35.638 52.7691 35.5745 52.8709 35.4919C52.9726 35.4094 53.4749 34.8314 53.5321 34.717C53.5957 34.6027 53.831 34.3296 53.7928 34.139C53.7483 33.9485 53.6593 33.5992 53.5321 33.2943C53.3986 32.9894 53.1252 32.5638 53.1252 32.5638C53.1252 32.5638 53.2333 32.4686 53.4177 32.1129C53.6021 31.7508 53.831 30.9696 53.7992 30.8362C53.7674 30.7028 53.5766 30.4932 53.5766 30.4932H53.2142C53.2142 30.4932 53.4876 30.868 53.494 30.9632C53.5067 31.0585 53.3668 31.5222 53.246 31.7762C53.1188 32.0303 52.9217 32.3098 52.9217 32.3098C52.9217 32.3098 52.9027 32.278 52.8264 32.1827C52.7501 32.0875 52.6356 31.9414 52.3813 31.7064C52.127 31.4714 51.6501 31.2173 51.6501 31.2173C51.6501 31.2173 51.7391 31.1411 51.8853 30.9696C52.0379 30.7917 52.2478 30.4932 52.2478 30.4932H51.879C51.879 30.4932 51.8472 30.525 51.7264 30.6774C51.5992 30.8299 51.3512 31.0649 51.3512 31.0649C51.3512 31.0649 51.0906 30.9188 50.4675 30.7473C49.8443 30.5758 49.0623 30.5885 48.2357 30.8044C47.4091 31.0204 46.8369 31.465 46.7669 31.5158C46.7034 31.5666 46.5635 31.6619 46.519 31.6556C46.4745 31.6492 46.4172 31.6683 46.3282 31.7572C46.2392 31.8398 46.2646 31.8842 46.2456 31.916C46.2265 31.9477 45.9531 32.2653 45.9277 32.2653C45.8959 32.2653 45.6543 32.5067 45.6225 32.5321C45.5907 32.5638 45.508 32.6655 45.4126 32.7734C45.3173 32.8814 45.3554 32.9703 45.3554 32.9703C45.3554 32.9703 45.4063 33.0085 45.4063 33.0847C45.4063 33.1609 45.3363 33.1799 45.3236 33.1799C45.3109 33.1799 45.1392 33.8088 45.1265 33.904C45.1074 34.0057 45.1329 34.0311 45.1392 34.1136C45.1392 34.1962 45.0502 34.2153 45.0057 34.247C44.9612 34.2724 44.7705 34.6408 44.7514 34.6726C44.7323 34.7043 44.6051 34.9076 44.6051 34.9584C44.6051 35.0092 44.5924 35.06 44.5543 35.1045C44.5161 35.1489 44.4716 35.1172 44.4208 35.1362C44.3699 35.1489 44.2109 35.3903 44.0901 35.4919C43.9693 35.5936 43.8358 35.7269 43.8358 35.7269L43.8549 35.7777C43.8549 35.7777 43.7404 35.8857 43.715 35.8794C43.6896 35.8794 43.3907 36.0636 43.2381 36.1334C43.0855 36.2033 42.8375 36.432 42.7867 36.4193C42.7358 36.4129 42.1954 36.4574 41.9601 36.6035C41.7312 36.7495 41.4133 37.156 41.4133 37.156L41.248 36.9909L41.1908 36.9782V36.921L40.9301 36.6225H40.8411L40.7838 36.6924H40.6694L40.6185 36.5971L39.8619 36.3939L39.6076 36.4129L39.5885 36.2986L38.9018 35.8857L38.7555 35.9111L38.6856 35.8349V35.7333L38.0879 35.1553L38.018 35.1743L37.9417 35.0854V34.9457L37.5411 34.228H37.4775L37.3949 34.1327L37.433 33.993L37.2359 33.2308L37.1215 33.1164C37.1978 32.8941 37.1914 32.6528 37.1596 32.4051L36.8036 32.024L36.6065 32.3098L36.2758 31.9223L36.5492 31.7445L36.3394 31.5158L36.0088 31.6937C35.4429 31.1728 34.6926 30.8362 33.7961 30.6584C32.8487 30.544 31.984 30.7028 31.1638 31.0458L30.6615 30.4488H30.2609L30.8713 31.1982C30.8713 31.1982 30.7632 31.2872 30.6806 31.338C30.5979 31.3888 30.4072 31.5349 30.1655 31.7127C29.9239 31.8906 29.6124 32.2971 29.6124 32.2971C29.6124 32.2971 29.606 32.2971 29.5234 32.1573C29.4407 32.0176 29.1927 31.4841 29.1101 31.2237C29.0274 30.9632 29.0592 30.887 29.1355 30.7917C29.2118 30.6965 29.3708 30.4488 29.3708 30.4488H29.0083C29.0083 30.4488 28.7794 30.779 28.7604 30.8743C28.7413 30.9696 28.8112 31.2808 28.9257 31.6047C29.0338 31.935 29.3453 32.4368 29.3453 32.4368C29.3453 32.4368 29.4598 32.5448 29.3962 32.6274C29.3326 32.7099 29.2054 32.8433 29.0147 33.2943C28.824 33.7452 28.6904 34.2661 28.6904 34.2661L28.9384 34.7107L28.9766 34.6916C28.9766 34.6916 29.0211 34.7424 29.1927 34.9647C29.3708 35.1871 29.8095 35.6126 29.8095 35.6126L29.6887 36.0445L29.9303 36.4764C29.9303 36.4764 29.9303 36.451 29.9557 36.3113C29.9812 36.1715 30.0892 35.854 30.0892 35.854C30.0892 35.854 30.4707 36.108 30.7314 36.2541C30.9921 36.4002 31.5962 36.5844 31.5962 36.5844C31.5962 36.5844 31.3927 36.902 31.2655 37.2704C31.1384 37.6388 31.0557 38.1723 31.0557 38.1723L30.8077 38.0453L31.2973 38.9154V38.6106C31.2973 38.6106 31.6725 38.7503 32.0667 38.8392C32.4609 38.9281 32.9695 38.9027 32.9695 38.9027C32.9695 38.9027 32.9123 39.1187 32.8614 39.5252C32.8106 39.9317 32.8487 40.6177 32.8487 40.6177L32.1302 40.3954L32.3591 40.8019L32.8742 40.9352C32.8742 40.9352 32.8869 40.9861 32.9695 41.2782C33.0522 41.5704 33.2938 42.123 33.2938 42.123L33.084 42.0849L33.3129 42.485L33.5863 42.5994L33.936 43.044L34.1649 42.8725L34.0632 42.7137C34.0632 42.7137 34.2348 42.7582 34.4192 42.7836C34.6036 42.809 35.3539 42.8217 35.3539 42.8217L35.5764 43.2345H35.9516L35.6654 42.7709C35.6654 42.7709 35.8753 42.7899 36.3776 42.6057C36.8799 42.4215 37.255 42.2183 37.255 42.2183C37.255 42.2183 37.2995 42.3707 37.3822 42.574C37.4648 42.7772 37.6746 43.2409 37.6746 43.2409H38.018C38.018 43.2409 37.9035 43.0122 37.7764 42.7328C37.6492 42.4533 37.5475 42.0468 37.5475 42.0468C37.5475 42.0468 37.8972 41.8499 38.3931 41.2973C38.8891 40.7447 39.2642 39.9825 39.3977 39.1568C39.5313 38.3247 39.4295 37.5498 39.4295 37.5498C39.4295 37.5498 39.4804 37.5117 39.6266 37.4228C39.7729 37.3339 40.0145 37.245 40.0145 37.245C40.0145 37.245 40.0145 37.2513 40.1099 37.3656C40.2052 37.4736 40.4023 37.8103 40.4023 37.8103C40.4023 37.8103 40.1989 38.0389 39.9573 38.4264C39.7156 38.8138 39.4295 39.4871 39.3787 40.0333C39.3278 40.5859 39.2642 40.9543 39.3914 41.5514C39.5185 42.1484 39.7856 42.6121 39.7538 42.6438C39.722 42.6756 39.0862 43.2345 39.0862 43.2345H39.563L39.8937 42.936L40.0781 43.2345H40.4723L40.1353 42.6883C40.1353 42.6883 40.1734 42.6629 40.326 42.4469C40.4786 42.231 40.9046 41.4688 41.0509 40.9416C41.1908 40.4144 41.2543 39.5379 41.1145 38.9027C40.9746 38.2612 40.7648 37.8357 40.7648 37.8357L41.2925 37.4101L41.7821 37.8484L41.7566 37.9182C41.7312 37.9881 41.5659 38.3057 41.4705 38.7376C41.3751 39.1695 41.3306 39.8555 41.3751 40.2493C41.4197 40.6431 41.4896 41.1004 41.7503 41.6403C42.011 42.1802 42.4052 42.6756 42.4052 42.6756C42.4052 42.6756 42.3352 42.828 42.278 42.9106C42.2208 42.9932 42.0682 43.2345 42.0682 43.2345H42.4306C42.4306 43.2345 42.6277 42.8915 42.6404 42.9169C42.6532 42.9487 42.9647 43.2282 42.9647 43.2282H43.4734L42.7803 42.6375C42.7803 42.6375 42.8121 42.6121 42.9202 42.3135C43.0283 42.015 43.2 41.4116 43.2063 40.7638C43.2127 40.1095 43.0728 39.4299 42.8058 38.8329C42.5387 38.2358 42.1636 37.8039 42.1636 37.8039C42.1636 37.8039 42.3162 37.5308 42.4052 37.3656C42.4942 37.2005 42.5578 37.2386 42.5578 37.2386C42.5578 37.2386 42.6468 37.2577 42.7994 37.3339C42.952 37.4165 43.1491 37.5308 43.1491 37.5308C43.1491 37.5308 43.1491 37.5689 43.1046 37.8357C43.0601 38.1024 43.0219 38.3692 43.1364 39.125C43.2508 39.8809 43.6387 40.5986 43.9248 41.0178C44.2109 41.437 44.9866 42.0214 44.9866 42.0214C44.9866 42.0214 44.9866 42.0277 44.9803 42.0722C44.9676 42.1103 44.904 42.3707 44.8086 42.6184C44.7132 42.8661 44.5288 43.2091 44.5288 43.2091H44.8658C44.8658 43.2091 44.8913 43.2599 45.0375 42.9106C45.1837 42.5613 45.2664 42.1865 45.2664 42.1865L45.419 42.2754C45.5716 42.3644 45.7369 42.4469 46.1184 42.574C46.4999 42.701 46.8623 42.7836 46.8623 42.7836C46.8623 42.7836 46.8623 42.8026 46.8115 42.8788C46.7669 42.9614 46.5953 43.2091 46.5953 43.2091H46.9513L47.1802 42.7963C47.1802 42.7963 47.2756 42.8407 47.727 42.809C48.1785 42.7772 48.4964 42.7073 48.4964 42.7073L48.3947 42.8471L48.5854 43.0376C48.5854 43.0376 48.6299 43.0122 48.7126 42.9297C48.7889 42.8471 48.9796 42.574 48.9796 42.574C48.9796 42.574 48.9923 42.574 49.0941 42.5359C49.1958 42.4977 49.5137 42.3453 49.5137 42.3453L49.3865 42.0849L49.2022 42.1484C49.2022 42.1484 49.3357 41.9197 49.4183 41.7165C49.501 41.5132 49.66 40.9162 49.66 40.9162L49.7808 40.8908C49.9079 40.8654 50.5437 40.6685 50.5437 40.6685L50.8172 40.1731C50.8172 40.1731 50.6709 40.2874 50.4102 40.37C50.1495 40.4525 49.6854 40.5796 49.6854 40.5796C49.6854 40.5796 49.7363 40.4589 49.7235 39.9698C49.7108 39.4744 49.5455 38.8837 49.5455 38.8837C49.5455 38.8837 49.7744 38.9027 50.1559 38.8646C50.5437 38.8265 51.2177 38.5915 51.2177 38.5915V38.7058C51.2177 38.8202 51.1987 39.4871 51.1987 39.4871L51.4275 39.0806L49.4819 42.5803H50.1877L57.4552 29.6167H48.1848L47.4854 30.4234L47.5045 30.4361Z" fill="#D6992D"/>
<path fill-rule="evenodd" clip-rule="evenodd" d="M31.4817 31.2617C32.1684 30.9823 32.9123 30.8298 33.8152 30.9569C34.4574 31.0712 35.2267 31.3824 35.7099 31.8143C35.3475 32.0557 34.4319 32.2272 33.6117 32.1573C32.7088 32.0747 32.0412 31.7318 31.4817 31.2617ZM31.1447 31.4205C31.8568 32.0049 32.6771 32.386 33.6435 32.4685C34.4828 32.5067 35.2776 32.4177 35.9897 32.0493L36.4539 32.5702L36.0024 33.0465C35.1313 32.6654 34.4319 32.6273 33.6817 32.6464C32.6135 32.6972 31.7996 33.1736 31.1638 33.6944C30.6297 33.4213 30.2037 33.0148 29.8286 32.5448C30.2164 32.0747 30.6488 31.6809 31.1511 31.4142L31.1447 31.4205ZM36.9053 32.4685V32.6591L36.8417 32.5511L36.9053 32.4685ZM36.6319 32.8306C36.7718 32.9957 36.8799 33.199 36.7273 33.5039L36.2949 33.2117L36.6319 32.8306ZM37.0388 33.5864L37.077 33.777L36.9689 33.7198L37.0325 33.5864H37.0388ZM36.8608 34.0374C37.0833 34.139 37.1914 34.3296 37.1533 34.6471L36.6255 34.5011L36.8671 34.0374H36.8608ZM37.4394 34.6789L37.5157 34.825H37.414L37.4394 34.6789ZM37.3885 35.1108C37.6429 35.1743 37.8082 35.3331 37.8209 35.6634L37.2804 35.6316L37.3885 35.1108ZM38.1324 35.5999L38.266 35.7333L38.1197 35.746L38.1324 35.5999ZM39.0226 36.2922L39.1879 36.3938L39.0353 36.4256L39.0226 36.2922ZM40.0717 36.7622L40.2688 36.8194L40.1416 36.8956L40.0717 36.7622ZM38.196 36.0254C38.4694 36.0445 38.6729 36.1588 38.7301 36.4701L38.2151 36.5526L38.196 36.0254ZM39.1943 36.6987C39.4804 36.6352 39.7029 36.6987 39.7983 36.9655L39.3469 37.2195L39.1943 36.6987ZM40.3515 37.1243C40.5867 37.0353 40.7965 37.0544 41 37.1878L40.6249 37.5562L40.3515 37.1243ZM41.5723 37.2068C41.7312 37.0608 41.941 37.0099 42.2272 37.1179L41.941 37.5498L41.5723 37.2132V37.2068ZM42.3289 36.813L42.5069 36.7559L42.4688 36.8766L42.3225 36.8067L42.3289 36.813ZM42.7485 36.9718C42.8693 36.7368 43.0792 36.6479 43.3716 36.6987L43.2381 37.2513L42.7485 36.9718ZM43.4225 36.3748L43.5497 36.3176L43.537 36.4129L43.4225 36.3748ZM43.8358 36.4574C43.8867 36.216 44.0583 36.0636 44.389 36.0191L44.3508 36.5653L43.8358 36.4574ZM44.319 35.7079L44.4525 35.6189V35.7142H44.319V35.7079ZM44.7514 35.638C44.7832 35.3903 44.8976 35.2061 45.1837 35.1362L45.2918 35.638H44.7514ZM45.0311 34.8186L45.1138 34.6662L45.1647 34.8186H45.0311ZM45.4317 34.6281C45.3745 34.3804 45.4635 34.1708 45.7051 34.0056L45.9531 34.5011L45.4381 34.6344L45.4317 34.6281ZM45.4762 33.7643L45.5589 33.5674L45.6225 33.7389L45.4826 33.7643H45.4762ZM45.845 33.4975C45.7051 33.2561 45.7433 33.0402 45.9277 32.8369L46.271 33.2117L45.845 33.4975ZM29.6124 32.8369C29.9875 33.2371 30.3944 33.6055 30.8713 33.9167C30.458 34.3423 30.1592 34.7996 29.9621 35.276C29.5552 34.9647 29.2627 34.59 29.0719 34.1517C29.1482 33.7198 29.3008 33.2879 29.6124 32.8369ZM31.4944 33.8405C32.0094 33.3705 32.7216 33.0529 33.7262 32.9449C34.3684 32.9005 35.0233 32.9576 35.7099 33.2879C35.1949 33.7452 34.5464 34.0056 33.8025 34.139C32.9759 34.2788 32.2129 34.1581 31.4944 33.8405ZM31.2337 34.0819C32.0794 34.4757 33.0331 34.6154 34.1522 34.3804C34.8452 34.1898 35.5001 33.9421 36.0151 33.4213C36.2186 33.5229 36.4157 33.6436 36.581 33.8087C36.5492 34.012 36.4602 34.2025 36.3203 34.3804C35.303 34.2533 34.4192 34.3931 33.6372 34.717C32.8042 35.1235 32.2193 35.6507 31.8187 36.2605C31.1956 36.1461 30.6742 35.8857 30.2355 35.5237C30.4262 34.9901 30.7314 34.4947 31.2401 34.0819H31.2337ZM32.143 36.343C32.5245 35.8031 33.0522 35.3395 33.7898 34.9838C34.5019 34.6853 35.2649 34.5709 36.0914 34.6853C35.7227 35.2442 35.1822 35.6825 34.4892 36.0127C33.6753 36.324 32.8996 36.4129 32.143 36.3367V36.343ZM31.3355 38.2612C31.4626 37.6832 31.6216 37.1179 31.9331 36.6288C32.8805 36.7305 33.847 36.7051 34.8961 36.1652C35.5065 35.7968 36.0596 35.3712 36.4411 34.7615L37.0833 34.9647L36.9689 35.6316C36.0151 35.7269 35.2649 36.0127 34.699 36.4574C33.9042 37.0417 33.351 37.7467 33.0967 38.5851C32.4799 38.6296 31.895 38.528 31.3418 38.2739L31.3355 38.2612ZM33.44 38.5534C33.758 37.8166 34.1903 37.2068 34.7944 36.7749C35.3475 36.3621 36.0024 36.0572 36.8417 35.9429C36.6319 36.578 36.1805 37.1433 35.6019 37.6578C34.9597 38.204 34.2348 38.4899 33.44 38.5534ZM33.1794 40.6431C33.0586 40.0333 33.1158 39.449 33.3256 38.89C34.5972 38.7693 35.4874 38.2358 36.1995 37.5244C36.6828 36.9972 37.0197 36.4701 37.166 35.9238L37.859 35.9556L37.8845 36.6479C36.9371 37.0163 36.3013 37.5562 35.8053 38.1723C35.2394 38.9599 34.966 39.7411 34.9342 40.5224C34.3175 40.7256 33.7325 40.7701 33.173 40.6367L33.1794 40.6431ZM33.7898 42.3262C33.5036 41.9261 33.332 41.4688 33.2429 40.967C33.7961 41.0051 34.3493 40.9924 34.9088 40.8336C34.9406 41.3925 35.0233 41.9578 35.2204 42.5168C34.7244 42.5358 34.2475 42.4723 33.7898 42.3199V42.3262ZM35.2458 40.408C35.3602 39.6204 35.6336 38.9027 36.1296 38.2866C36.581 37.7213 37.1533 37.2831 37.8654 36.9972C37.7955 37.7086 37.5538 38.3755 37.1024 38.9789C36.5874 39.6967 35.9388 40.1032 35.2458 40.408ZM38.8382 36.7368L39.0798 37.391C38.3677 37.8738 37.9035 38.4772 37.5793 39.1441C37.1533 40.0269 37.0452 40.9416 37.2041 41.8816C36.6382 42.2373 36.0851 42.4279 35.5637 42.4533C35.2839 41.8816 35.2076 41.31 35.2394 40.7256C36.3712 40.3382 37.0007 39.6903 37.4966 38.9789C37.8972 38.2993 38.1515 37.6006 38.1833 36.8639L38.8446 36.7368H38.8382ZM39.1243 37.7594C39.2324 38.5216 39.1625 39.2838 38.8509 40.0333C38.5394 40.7002 38.1006 41.2655 37.4839 41.7101C37.3758 40.9098 37.4585 40.1222 37.8082 39.3537C38.1261 38.7566 38.533 38.204 39.1243 37.7594ZM40.5486 38.1342C40.7965 38.6487 40.9682 39.2457 40.8983 40.1413C40.7838 41.0813 40.4532 41.7863 39.9763 42.3516C39.6839 41.6085 39.5821 40.8654 39.6648 40.1222C39.7983 39.3981 40.0463 38.7249 40.5486 38.1405V38.1342ZM42.011 38.1215C42.3543 38.5407 42.6595 39.0552 42.8375 39.8745C42.9901 40.732 42.9329 41.564 42.5832 42.358C42.0491 41.6911 41.7757 40.9543 41.6613 40.1667C41.6168 39.4553 41.6867 38.763 42.011 38.1151V38.1215ZM43.4161 37.7594C44.6624 38.4962 45.2855 40.3445 45.0502 41.6784C44.5098 41.3227 44.1156 40.8018 43.8167 40.1857C43.4034 39.3664 43.3017 38.5597 43.4161 37.7658V37.7594ZM43.7023 36.7495L44.3381 36.902C44.4271 37.6578 44.6942 38.42 45.2028 39.1758C45.756 39.8682 46.4109 40.4462 47.3074 40.7383C47.3265 41.329 47.2883 41.907 46.9958 42.4533C46.4808 42.4152 45.9277 42.2246 45.3491 41.9324C45.5271 40.9352 45.3936 39.938 44.8913 38.9408C44.5543 38.2803 44.052 37.8039 43.4734 37.4037L43.6959 36.7432L43.7023 36.7495ZM47.638 40.8527C48.2039 40.9987 48.7634 41.0241 49.3293 40.9606C49.2403 41.437 49.0623 41.888 48.7889 42.3199C48.3692 42.4723 47.8796 42.5168 47.3519 42.5041C47.5427 41.9832 47.6507 41.437 47.6317 40.8527H47.638ZM44.6878 36.9972C45.3681 37.2577 45.9149 37.6896 46.3791 38.2167C46.9386 38.8519 47.2311 39.576 47.2883 40.389C46.6144 40.0968 45.9785 39.703 45.4508 38.9789C44.9612 38.293 44.7577 37.6387 44.6878 36.9972ZM44.6942 35.9556L45.3618 35.9175C45.6479 36.5971 46.0358 37.2513 46.6779 37.8356C47.3837 38.42 48.2103 38.8201 49.253 38.8837C49.3993 39.4617 49.5137 40.046 49.3802 40.6621C48.7952 40.732 48.2039 40.6748 47.619 40.5033C47.5172 39.4744 47.1294 38.5216 46.3219 37.6769C45.8132 37.1814 45.2473 36.8575 44.6369 36.6415L44.6878 35.9556H44.6942ZM45.7306 35.9492C47.212 36.1969 48.4392 36.8893 49.1195 38.5534C47.4346 38.4263 46.2646 37.2831 45.7306 35.9492ZM45.4762 34.9774L46.112 34.7742C46.4999 35.3204 46.9895 35.765 47.5935 36.1144C48.5155 36.6161 49.5201 36.8067 50.6201 36.6288C50.9507 37.1497 51.1541 37.6959 51.1796 38.2993C50.6455 38.5407 50.0732 38.6232 49.4756 38.5851C49.0559 37.6006 48.4328 36.7686 47.4409 36.2033C46.8496 35.8667 46.2329 35.6888 45.5843 35.6507L45.4699 34.9774H45.4762ZM46.4935 34.6916C48.3629 34.4121 50.0097 35.6698 50.3975 36.3557C48.649 36.5399 47.1866 35.7777 46.4935 34.6916ZM45.9467 33.796L46.4999 33.4467C47.0849 33.9104 47.7461 34.2724 48.5663 34.4185C49.4819 34.5392 50.4039 34.5582 51.3449 34.0819C51.809 34.4693 52.1587 34.9266 52.3241 35.4983C51.8981 35.8667 51.364 36.108 50.7599 36.2605C50.1877 35.3966 49.3357 34.8567 48.2993 34.5138C47.5363 34.3105 46.8623 34.2915 46.2392 34.4121L45.9404 33.796H45.9467ZM52.9345 32.8369C53.2015 33.2117 53.4113 33.6245 53.494 34.139C53.3032 34.5836 52.9917 34.9711 52.6038 35.3141C52.3622 34.7742 52.0189 34.3296 51.6247 33.9294C52.1333 33.6563 52.5657 33.2879 52.9345 32.8369ZM46.8432 33.2879C48.1467 32.621 49.9779 32.9005 51.0842 33.8341C49.6917 34.4947 48.0386 34.2152 46.8432 33.2879ZM46.1311 32.5448L46.5762 32.0493C47.2629 32.3352 47.9941 32.5575 48.9478 32.4622C49.8126 32.3415 50.6455 32.0747 51.3958 31.4396C51.8981 31.7064 52.3622 32.0493 52.731 32.5448C52.3749 33.0275 51.9235 33.3959 51.4021 33.6817C50.7027 33.0783 49.838 32.7798 48.8906 32.64C48.0068 32.5638 47.2438 32.7417 46.5635 33.0656L46.1248 32.5448H46.1311ZM46.856 31.7953C48.045 30.8934 49.7299 30.5885 51.0969 31.2681C49.9842 32.2018 48.0958 32.5003 46.856 31.7953ZM52.909 36.4192C52.9027 36.3557 52.8772 36.2096 52.8454 36.0763C52.8009 35.8921 52.7119 35.638 52.7119 35.638C52.7119 35.638 52.7691 35.5745 52.8709 35.4919C52.9726 35.4093 53.4749 34.8313 53.5321 34.717C53.5957 34.6027 53.831 34.3296 53.7928 34.139C53.7483 33.9485 53.6593 33.5991 53.5321 33.2943C53.3986 32.9894 53.1252 32.5638 53.1252 32.5638C53.1252 32.5638 53.2333 32.4685 53.4177 32.1129C53.6021 31.7508 53.831 30.9696 53.7992 30.8362C53.7674 30.7028 53.5766 30.4932 53.5766 30.4932H53.2142C53.2142 30.4932 53.4876 30.8679 53.494 30.9632C53.5067 31.0585 53.3668 31.5222 53.246 31.7762C53.1188 32.0303 52.9217 32.3098 52.9217 32.3098C52.9217 32.3098 52.9027 32.278 52.8264 32.1827C52.7501 32.0875 52.6356 31.9414 52.3813 31.7064C52.127 31.4713 51.6501 31.2173 51.6501 31.2173C51.6501 31.2173 51.7391 31.1411 51.8853 30.9696C52.0379 30.7917 52.2478 30.4932 52.2478 30.4932H51.879C51.879 30.4932 51.8472 30.525 51.7264 30.6774C51.5992 30.8298 51.3513 31.0648 51.3513 31.0648C51.3513 31.0648 51.0906 30.9188 50.4675 30.7473C49.8443 30.5758 49.0623 30.5885 48.2357 30.8044C47.4091 31.0204 46.8369 31.465 46.7669 31.5158C46.7034 31.5666 46.5635 31.6619 46.519 31.6555C46.4745 31.6492 46.4172 31.6682 46.3282 31.7572C46.2392 31.8397 46.2646 31.8842 46.2456 31.916C46.2265 31.9477 45.9531 32.2653 45.9277 32.2653C45.8959 32.2653 45.6543 32.5067 45.6225 32.5321C45.5907 32.5638 45.508 32.6654 45.4126 32.7734C45.3173 32.8814 45.3554 32.9703 45.3554 32.9703C45.3554 32.9703 45.4063 33.0084 45.4063 33.0847C45.4063 33.1609 45.3363 33.1799 45.3236 33.1799C45.3109 33.1799 45.1392 33.8087 45.1265 33.904C45.1074 34.0056 45.1329 34.031 45.1392 34.1136C45.1392 34.1962 45.0502 34.2152 45.0057 34.247C44.9612 34.2724 44.7705 34.6408 44.7514 34.6726C44.7323 34.7043 44.6051 34.9076 44.6051 34.9584C44.6051 35.0092 44.5924 35.06 44.5543 35.1045C44.5161 35.1489 44.4716 35.1172 44.4208 35.1362C44.3699 35.1489 44.2109 35.3903 44.0901 35.4919C43.9693 35.5935 43.8358 35.7269 43.8358 35.7269L43.8549 35.7777C43.8549 35.7777 43.7404 35.8857 43.715 35.8794C43.6896 35.8794 43.3907 36.0636 43.2381 36.1334C43.0855 36.2033 42.8375 36.4319 42.7867 36.4192C42.7358 36.4129 42.1954 36.4573 41.9601 36.6034C41.7312 36.7495 41.4133 37.156 41.4133 37.156L41.248 36.9909L41.1908 36.9782V36.921L40.9301 36.6225H40.8411L40.7838 36.6924H40.6694L40.6185 36.5971L39.8619 36.3938L39.6076 36.4129L39.5885 36.2986L38.9018 35.8857L38.7555 35.9111L38.6856 35.8349V35.7333L38.0879 35.1553L38.018 35.1743L37.9417 35.0854V34.9457L37.5411 34.2279H37.4775L37.3949 34.1327L37.433 33.9929L37.2359 33.2307L37.1215 33.1164C37.1978 32.8941 37.1914 32.6527 37.1596 32.405L36.8036 32.0239L36.6065 32.3098L36.2758 31.9223L36.5492 31.7445L36.3394 31.5158L36.0088 31.6937C35.4429 31.1728 34.6926 30.8362 33.7961 30.6583C32.8487 30.544 31.984 30.7028 31.1638 31.0458L30.6615 30.4487H30.2609L30.8713 31.1982C30.8713 31.1982 30.7632 31.2871 30.6806 31.338C30.5979 31.3888 30.4072 31.5349 30.1655 31.7127C29.9239 31.8906 29.6124 32.2971 29.6124 32.2971C29.6124 32.2971 29.606 32.2971 29.5234 32.1573C29.4407 32.0176 29.1927 31.484 29.1101 31.2236C29.0274 30.9632 29.0592 30.887 29.1355 30.7917C29.2118 30.6965 29.3708 30.4487 29.3708 30.4487H29.0083C29.0083 30.4487 28.7794 30.779 28.7604 30.8743C28.7413 30.9696 28.8112 31.2808 28.9257 31.6047C29.0338 31.935 29.3453 32.4368 29.3453 32.4368C29.3453 32.4368 29.4598 32.5448 29.3962 32.6273C29.3326 32.7099 29.2054 32.8433 29.0147 33.2943C28.824 33.7452 28.6904 34.2661 28.6904 34.2661L28.9384 34.7107L28.9766 34.6916C28.9766 34.6916 29.0211 34.7424 29.1927 34.9647C29.3708 35.187 29.8095 35.6126 29.8095 35.6126L29.6887 36.0445L29.9303 36.4764C29.9303 36.4764 29.9303 36.451 29.9557 36.3113C29.9812 36.1715 30.0892 35.854 30.0892 35.854C30.0892 35.854 30.4707 36.108 30.7314 36.2541C30.9921 36.4002 31.5962 36.5844 31.5962 36.5844C31.5962 36.5844 31.3927 36.902 31.2655 37.2704C31.1384 37.6387 31.0557 38.1723 31.0557 38.1723L30.8077 38.0452L31.2973 38.9154V38.6105C31.2973 38.6105 31.6725 38.7503 32.0667 38.8392C32.4609 38.9281 32.9695 38.9027 32.9695 38.9027C32.9695 38.9027 32.9123 39.1187 32.8614 39.5252C32.8106 39.9317 32.8487 40.6176 32.8487 40.6176L32.1302 40.3953L32.3591 40.8018L32.8742 40.9352C32.8742 40.9352 32.8869 40.986 32.9695 41.2782C33.0522 41.5704 33.2938 42.123 33.2938 42.123L33.084 42.0849L33.3129 42.485L33.5863 42.5993L33.936 43.044L34.1649 42.8725L34.0632 42.7137C34.0632 42.7137 34.2348 42.7581 34.4192 42.7835C34.6036 42.809 35.3539 42.8217 35.3539 42.8217L35.5764 43.2345H35.9516L35.6654 42.7708C35.6654 42.7708 35.8753 42.7899 36.3776 42.6057C36.8799 42.4215 37.255 42.2182 37.255 42.2182C37.255 42.2182 37.2995 42.3707 37.3822 42.5739C37.4648 42.7772 37.6746 43.2409 37.6746 43.2409H38.018C38.018 43.2409 37.9035 43.0122 37.7764 42.7327C37.6492 42.4533 37.5475 42.0468 37.5475 42.0468C37.5475 42.0468 37.8972 41.8499 38.3931 41.2973C38.8891 40.7447 39.2642 39.9825 39.3977 39.1568C39.5313 38.3247 39.4295 37.5498 39.4295 37.5498C39.4295 37.5498 39.4804 37.5117 39.6266 37.4228C39.7729 37.3339 40.0145 37.2449 40.0145 37.2449C40.0145 37.2449 40.0145 37.2513 40.1099 37.3656C40.2052 37.4736 40.4023 37.8102 40.4023 37.8102C40.4023 37.8102 40.1989 38.0389 39.9573 38.4263C39.7156 38.8138 39.4295 39.4871 39.3787 40.0333C39.3278 40.5859 39.2642 40.9543 39.3914 41.5513C39.5185 42.1484 39.7856 42.6121 39.7538 42.6438C39.722 42.6756 39.0862 43.2345 39.0862 43.2345H39.563L39.8937 42.936L40.0781 43.2345H40.4723L40.1353 42.6883C40.1353 42.6883 40.1734 42.6629 40.326 42.4469C40.4786 42.231 40.9046 41.4688 41.0509 40.9416C41.1908 40.4144 41.2543 39.5379 41.1145 38.9027C40.9746 38.2612 40.7648 37.8356 40.7648 37.8356L41.2925 37.4101L41.7821 37.8484L41.7566 37.9182C41.7312 37.9881 41.5659 38.3057 41.4705 38.7376C41.3751 39.1695 41.3306 39.8555 41.3751 40.2493C41.4197 40.6431 41.4896 41.1004 41.7503 41.6403C42.011 42.1801 42.4052 42.6756 42.4052 42.6756C42.4052 42.6756 42.3352 42.828 42.278 42.9106C42.2208 42.9931 42.0682 43.2345 42.0682 43.2345H42.4306C42.4306 43.2345 42.6277 42.8915 42.6404 42.9169C42.6532 42.9487 42.9647 43.2282 42.9647 43.2282H43.4734L42.7803 42.6375C42.7803 42.6375 42.8121 42.612 42.9202 42.3135C43.0283 42.015 43.2 41.4116 43.2063 40.7637C43.2127 40.1095 43.0728 39.4299 42.8058 38.8328C42.5387 38.2358 42.1636 37.8039 42.1636 37.8039C42.1636 37.8039 42.3162 37.5308 42.4052 37.3656C42.4942 37.2005 42.5578 37.2386 42.5578 37.2386C42.5578 37.2386 42.6468 37.2577 42.7994 37.3339C42.952 37.4164 43.1491 37.5308 43.1491 37.5308C43.1491 37.5308 43.1491 37.5689 43.1046 37.8356C43.0601 38.1024 43.0219 38.3692 43.1364 39.125C43.2508 39.8809 43.6387 40.5986 43.9248 41.0178C44.2109 41.437 44.9866 42.0214 44.9866 42.0214C44.9866 42.0214 44.9866 42.0277 44.9803 42.0722C44.9676 42.1103 44.904 42.3707 44.8086 42.6184C44.7132 42.8661 44.5288 43.2091 44.5288 43.2091H44.8658C44.8658 43.2091 44.8913 43.2599 45.0375 42.9106C45.1837 42.5612 45.2664 42.1865 45.2664 42.1865L45.419 42.2754C45.5716 42.3643 45.7369 42.4469 46.1184 42.5739C46.4999 42.701 46.8623 42.7835 46.8623 42.7835C46.8623 42.7835 46.8623 42.8026 46.8115 42.8788C46.7669 42.9614 46.5953 43.2091 46.5953 43.2091H46.9513L47.1802 42.7962C47.1802 42.7962 47.2756 42.8407 47.727 42.8089C48.1785 42.7772 48.4964 42.7073 48.4964 42.7073L48.3947 42.8471L48.5854 43.0376C48.5854 43.0376 48.6299 43.0122 48.7126 42.9296C48.7889 42.8471 48.9796 42.5739 48.9796 42.5739C48.9796 42.5739 48.9923 42.5739 49.0941 42.5358C49.1958 42.4977 49.5137 42.3453 49.5137 42.3453L49.3865 42.0849L49.2022 42.1484C49.2022 42.1484 49.3357 41.9197 49.4183 41.7165C49.501 41.5132 49.66 40.9162 49.66 40.9162L49.7808 40.8908C49.8889 40.8654 50.3975 40.7129 50.5183 40.6812L50.7854 40.2048C50.7281 40.2429 50.601 40.3191 50.4166 40.3763C50.1559 40.4589 49.6917 40.5859 49.6917 40.5859C49.6917 40.5859 49.7426 40.4652 49.7299 39.9761C49.7172 39.4807 49.5519 38.89 49.5519 38.89C49.5519 38.89 49.7808 38.9091 50.1623 38.871C50.5501 38.8329 51.2241 38.5978 51.2241 38.5978V38.7122C51.2241 38.8074 51.2114 39.3029 51.205 39.4553L51.5293 38.871V38.4581L51.8218 38.3374L52.1651 37.7213L52.0952 37.7658C51.9871 37.8293 51.4911 38.1405 51.4911 38.1405C51.4911 38.1405 51.453 37.8166 51.3004 37.3529C51.1478 36.8893 50.9316 36.5399 50.9443 36.5399C50.957 36.5399 51.3322 36.4192 51.6882 36.2732C52.0443 36.1271 52.4576 35.8031 52.4576 35.8031C52.4576 35.8031 52.5085 35.9048 52.5593 36.1842C52.5975 36.4192 52.642 36.7432 52.6547 36.8448L52.8963 36.4065L52.909 36.4192Z" fill="#D6992D"/>
<path fill-rule="evenodd" clip-rule="evenodd" d="M36.7145 26.0152L37.8018 27.8699H35.6464L36.7145 26.0152ZM39.1434 27.3872L40.2307 25.5325H38.0752L39.1434 27.3872ZM39.1625 28.3336L41.0509 25.0625H37.2486L39.1625 28.3336ZM41.4578 26.0089L42.5451 27.8636H40.3896L41.4578 26.0089ZM41.4832 25.0625L43.3716 28.3336H39.5694L41.4832 25.0625ZM43.7722 27.3872L44.8595 25.5325H42.704L43.7722 27.3872ZM43.7976 28.3336L45.686 25.0625H41.8838L43.7976 28.3336ZM46.2201 26.0089L47.3074 27.8636H45.152L46.2201 26.0089ZM46.2392 25.0625L48.1276 28.3336H44.3254L46.2392 25.0625ZM35.8308 29.2291H38.622L40.1607 34.501L35.8308 29.2291ZM34.8579 28.7591H38.9844L41.2543 36.6034L34.8579 28.7591ZM40.1925 29.2228H42.7676L41.4896 34.5835L40.1925 29.2228ZM39.5948 28.7591H43.3844L41.4896 36.6224L39.5885 28.7591H39.5948ZM47.1294 29.2291H44.3381L42.7994 34.501L47.1294 29.2291ZM48.1022 28.7591H43.9757L41.7058 36.6034L48.1022 28.7591ZM35.481 30.4804L35.6845 30.7789C34.8452 30.7789 34.273 30.6329 33.8152 30.4296H35.2967C35.3412 30.4614 35.4047 30.4804 35.481 30.4741V30.4804ZM36.74 25.0625L38.6284 28.3336H34.8261L36.74 25.0625ZM47.5363 30.436H48.7317C48.312 30.6265 47.7906 30.7218 47.2184 30.7789L47.5109 30.436" fill="#D6992D"/>
<path d="M31.9204 50.2783L33.0776 44.4602H34.2094L33.0585 50.2783H31.9204Z" fill="#D6992D"/>
<path d="M37.1852 47.1661H39.6522L39.1562 49.6622C38.8638 49.8591 38.5077 50.0306 38.0817 50.164C37.662 50.3037 37.2297 50.3673 36.791 50.3673C36.1106 50.3673 35.5829 50.2021 35.2205 49.8782C34.7245 49.4336 34.4766 48.7921 34.4766 47.9473C34.4766 47.382 34.5847 46.8421 34.7945 46.3213C35.0488 45.6988 35.4176 45.2098 35.8881 44.8668C36.3586 44.5238 36.9118 44.3523 37.554 44.3523C38.1961 44.3523 38.7048 44.5111 39.0863 44.8223C39.4678 45.1335 39.7285 45.5909 39.8493 46.1879L38.7938 46.3149C38.6984 45.9847 38.5522 45.7369 38.3424 45.5718C38.1326 45.4067 37.8719 45.3241 37.5603 45.3241C37.1915 45.3241 36.8546 45.4257 36.5494 45.6226C36.2442 45.8259 36.0025 46.1371 35.8309 46.5563C35.6592 46.9755 35.5702 47.4328 35.5702 47.9346C35.5702 48.4364 35.6783 48.7857 35.8881 49.0207C36.0979 49.2557 36.4095 49.3701 36.8164 49.3701C37.058 49.3701 37.306 49.3319 37.5667 49.2621C37.821 49.1922 38.0435 49.1033 38.2279 49.0017L38.3996 48.1378H36.9881L37.1788 47.1661H37.1852Z" fill="#D6992D"/>
<path d="M44.1092 48.1823L45.2537 48.3665C45.0312 49.0207 44.6942 49.5225 44.2491 49.8655C43.8041 50.2085 43.2763 50.3863 42.6786 50.3863C42.0047 50.3863 41.4769 50.1704 41.0954 49.7448C40.7139 49.3129 40.5232 48.6904 40.5232 47.8774C40.5232 47.2169 40.6504 46.6135 40.9047 46.0609C41.159 45.5146 41.5151 45.0954 41.9665 44.8032C42.418 44.5111 42.9139 44.365 43.4416 44.365C44.0393 44.365 44.5225 44.5301 44.8913 44.8731C45.2601 45.2098 45.4763 45.6734 45.5399 46.2514L44.4526 46.3594C44.389 46.0228 44.2746 45.775 44.1029 45.6226C43.9312 45.4702 43.7023 45.3939 43.4162 45.3939C43.1046 45.3939 42.8122 45.4956 42.5388 45.6925C42.2654 45.8957 42.0492 46.207 41.8839 46.6325C41.7185 47.0581 41.6359 47.4836 41.6359 47.9155C41.6359 48.3792 41.744 48.7412 41.9538 48.9953C42.1636 49.2494 42.4307 49.3764 42.7486 49.3764C43.0411 49.3764 43.3145 49.2748 43.5561 49.0715C43.8041 48.8683 43.9821 48.5761 44.1029 48.1759" fill="#D6992D"/>
<path d="M49.6727 48.1823L50.8172 48.3665C50.5947 49.0207 50.2577 49.5225 49.8126 49.8655C49.3675 50.2085 48.8398 50.3863 48.2421 50.3863C47.5681 50.3863 47.0404 50.1704 46.6589 49.7448C46.2774 49.3129 46.0867 48.6904 46.0867 47.8774C46.0867 47.2169 46.2138 46.6135 46.4682 46.0609C46.7225 45.5146 47.0786 45.0954 47.53 44.8032C47.9814 44.5111 48.4774 44.365 49.0051 44.365C49.6028 44.365 50.086 44.5301 50.4548 44.8731C50.8236 45.2098 51.0397 45.6734 51.1033 46.2514L50.0161 46.3594C49.9525 46.0228 49.838 45.775 49.6664 45.6226C49.4947 45.4702 49.2658 45.3939 48.9797 45.3939C48.6681 45.3939 48.3756 45.4956 48.1022 45.6925C47.8288 45.8957 47.6127 46.207 47.4473 46.6325C47.282 47.0581 47.1994 47.4836 47.1994 47.9155C47.1994 48.3792 47.3075 48.7412 47.5173 48.9953C47.7271 49.2494 47.9941 49.3764 48.3121 49.3764C48.6045 49.3764 48.8779 49.2748 49.1196 49.0715C49.3675 48.8683 49.5456 48.5761 49.6664 48.1759" fill="#D6992D"/>
<path fill-rule="evenodd" clip-rule="evenodd" d="M49.5329 16.6276L51.5485 14.9889L49.1069 14.0806L49.5329 16.6276ZM49.1578 17.7137L52.6866 14.8111L48.3757 13.2041L49.1578 17.7137Z" fill="#D6992D"/>
<path fill-rule="evenodd" clip-rule="evenodd" d="M52.5149 16.653L52.8455 19.2317L50.4484 18.2091L52.5149 16.6593V16.653ZM52.9917 15.6113L53.5385 20.1464L49.3103 18.3425L52.9917 15.6177V15.6113Z" fill="#D6992D"/>
<path fill-rule="evenodd" clip-rule="evenodd" d="M54.6386 18.8252L56.864 17.4787L54.5686 16.2401L54.6386 18.8252ZM54.1172 19.8478L58.0084 17.4533L53.9646 15.2683L54.1172 19.8478Z" fill="#D6992D"/>
<path fill-rule="evenodd" clip-rule="evenodd" d="M57.5634 19.4857L57.4171 22.0771L55.249 20.629L57.5634 19.4793V19.4857ZM58.2247 18.5457L57.9258 23.0998L54.0981 20.5528L58.2183 18.5457H58.2247Z" fill="#D6992D"/>
<path fill-rule="evenodd" clip-rule="evenodd" d="M59.0957 22.0772L61.5627 21.2578L59.598 19.5429L59.0957 22.0772ZM58.3582 22.9601L62.6881 21.4865L59.2292 18.4631L58.3645 22.9601H58.3582Z" fill="#D6992D"/>
<path fill-rule="evenodd" clip-rule="evenodd" d="M61.8742 23.3222L61.1112 25.8057L59.35 23.8875L61.8742 23.3222ZM62.7389 22.5664L61.3655 26.9236L58.2563 23.5382L62.7389 22.5664Z" fill="#D6992D"/>
<path fill-rule="evenodd" clip-rule="evenodd" d="M62.8726 26.1741L65.4541 25.8946L63.9026 23.8049L62.8726 26.1741ZM61.9697 26.8791L66.5095 26.3582L63.7691 22.668L61.9697 26.8791Z" fill="#D6992D"/>
<path fill-rule="evenodd" clip-rule="evenodd" d="M65.3014 28.0033L64.0615 30.2899L62.7136 28.0604L65.3014 28.0033ZM66.2996 27.4316L64.0933 31.4331L61.7153 27.5015L66.2996 27.4316Z" fill="#D6992D"/>
<path fill-rule="evenodd" clip-rule="evenodd" d="M65.6702 31.0203L68.2516 31.3506L67.228 28.956L65.6766 31.0203H65.6702ZM64.6274 31.4967L69.1672 32.0429L67.3615 27.8191L64.6274 31.4967Z" fill="#D6992D"/>
<path fill-rule="evenodd" clip-rule="evenodd" d="M67.6856 33.2625L66.0007 35.2378L65.1423 32.7798L67.6856 33.2625ZM68.7792 32.9131L65.7909 36.3684L64.2776 32.0303L68.7792 32.9131Z" fill="#D6992D"/>
<path fill-rule="evenodd" clip-rule="evenodd" d="M67.444 36.2857L69.911 37.1114L69.3706 34.5644L67.444 36.2857ZM66.325 36.5461L70.674 37.9625L69.7203 33.4656L66.325 36.5461Z" fill="#D6992D"/>
<path fill-rule="evenodd" clip-rule="evenodd" d="M68.9319 38.9026L66.8718 40.4904L66.5475 37.9053L68.9319 38.9026ZM70.0764 38.7882L66.4331 41.5512L65.8545 36.9971L70.07 38.7946L70.0764 38.7882Z" fill="#D6992D"/>
<path fill-rule="evenodd" clip-rule="evenodd" d="M68.0671 41.7863L70.3243 43.0694L70.2861 40.4652L68.0607 41.7863H68.0671ZM66.9226 41.8308L70.9156 44.0602L70.852 39.468L66.929 41.8308H66.9226Z" fill="#D6992D"/>
<path fill-rule="evenodd" clip-rule="evenodd" d="M68.9764 44.7081L66.6493 45.8577L66.8337 43.2599L68.9764 44.7081ZM70.1209 44.8161L66.0071 46.8105L66.3377 42.231L70.1209 44.8161Z" fill="#D6992D"/>
<path fill-rule="evenodd" clip-rule="evenodd" d="M67.5458 47.2614L69.5805 48.8747L69.9429 46.296L67.5458 47.2614ZM66.4077 47.128L70.0128 49.9418L70.6487 45.394L66.4077 47.1344V47.128Z" fill="#D6992D"/>
<path fill-rule="evenodd" clip-rule="evenodd" d="M67.8128 50.3293L65.2822 50.9136L66.0642 48.4301L67.8191 50.3293H67.8128ZM68.9 50.6977L64.4365 51.6885L65.8163 47.3059L68.9 50.6977Z" fill="#D6992D"/>
<path fill-rule="evenodd" clip-rule="evenodd" d="M65.8099 52.6222L67.3231 54.7309L68.3786 52.349L65.8035 52.6222H65.8099ZM64.7481 52.1839L67.4376 55.8742L69.3006 51.6758L64.7417 52.1839H64.7481Z" fill="#D6992D"/>
<path fill-rule="evenodd" clip-rule="evenodd" d="M65.4857 55.6391L62.8852 55.6835L64.1632 53.416L65.4857 55.6391ZM66.4712 56.2234L61.8997 56.2742L64.1568 52.2727L66.4712 56.2234Z" fill="#D6992D"/>
<path fill-rule="evenodd" clip-rule="evenodd" d="M63.0506 57.4748L64.087 59.8566L65.6194 57.7542L63.0506 57.4811V57.4748ZM62.1096 56.8206L63.9662 60.9936L66.6748 57.2779L62.116 56.8206H62.1096Z" fill="#D6992D"/>
<path fill-rule="evenodd" clip-rule="evenodd" d="M62.0905 60.3013L59.5409 59.7995L61.2703 57.8496L62.0905 60.3013ZM62.9298 61.0825L58.4536 60.1679L61.5056 56.7317L62.9362 61.0825H62.9298Z" fill="#D6992D"/>
<path fill-rule="evenodd" clip-rule="evenodd" d="M59.3881 61.6096L59.9667 64.1439L61.8678 62.3591L59.3944 61.6096H59.3881ZM58.5806 60.7903L59.6233 65.2364L62.9741 62.0924L58.5806 60.7903Z" fill="#D6992D"/>
<path fill-rule="evenodd" clip-rule="evenodd" d="M57.8621 64.2264L55.4777 63.1847L57.5887 61.654L57.8621 64.22V64.2264ZM58.517 65.1728L54.3396 63.3117L58.0655 60.6123L58.517 65.1664V65.1728Z" fill="#D6992D"/>
<path fill-rule="evenodd" clip-rule="evenodd" d="M54.9183 64.9442L54.9373 67.542L57.1754 66.2082L54.9183 64.9442ZM54.3079 63.9724L54.3778 68.5392L58.3263 66.1828L54.3079 63.9724Z" fill="#D6992D"/>
<path fill-rule="evenodd" clip-rule="evenodd" d="M52.8519 67.1672L50.7219 65.6746L53.0935 64.5948L52.8519 67.1672ZM53.3033 68.2216L49.5774 65.573L53.7611 63.6611L53.3033 68.2152V68.2216Z" fill="#D6992D"/>
<path fill-rule="evenodd" clip-rule="evenodd" d="M49.8254 67.2243L49.2723 69.7649L51.7456 68.9519L49.8191 67.2243H49.8254ZM49.4439 66.1445L48.5093 70.6161L52.8774 69.1806L49.4439 66.1445Z" fill="#D6992D"/>
<path fill-rule="evenodd" clip-rule="evenodd" d="M47.3583 68.971L45.5907 67.0655L48.134 66.5066L47.3583 68.971ZM47.5808 70.0952L44.4971 66.7225L48.9924 65.738L47.5808 70.0952Z" fill="#D6992D"/>
<path fill-rule="evenodd" clip-rule="evenodd" d="M44.3637 68.4121L43.2891 70.7749L45.8833 70.5018L44.3637 68.4121ZM44.2174 67.2751L42.3608 71.4481L46.9324 70.9654L44.2174 67.2751Z" fill="#D6992D"/>
<path fill-rule="evenodd" clip-rule="evenodd" d="M41.6487 69.638L40.3007 67.4149L42.9076 67.3832L41.6487 69.638ZM41.636 70.7876L39.2961 66.8623L43.8932 66.7988L41.636 70.7813V70.7876Z" fill="#D6992D"/>
<path fill-rule="evenodd" clip-rule="evenodd" d="M38.8002 68.4502L37.2742 70.5526L39.8684 70.8003L38.8002 68.4502ZM38.8828 67.3069L36.2251 71.0226L40.803 71.4672L38.8828 67.3069Z" fill="#D6992D"/>
<path fill-rule="evenodd" clip-rule="evenodd" d="M35.8054 69.0791L34.947 66.6274L37.503 67.1292L35.8054 69.0791ZM35.5574 70.197L34.0759 65.8779L38.5903 66.7608L35.5574 70.197Z" fill="#D6992D"/>
<path fill-rule="evenodd" clip-rule="evenodd" d="M33.3511 67.3325L31.4118 69.0601L33.8915 69.8604L33.3511 67.3325ZM33.6753 66.2336L30.28 69.2951L34.6545 70.7052L33.669 66.2336H33.6753Z" fill="#D6992D"/>
<path fill-rule="evenodd" clip-rule="evenodd" d="M30.3247 67.3071L30.0004 64.7284L32.3911 65.7573L30.3183 67.3007L30.3247 67.3071ZM29.8478 68.3488L29.3137 63.8137L33.5356 65.6303L29.8415 68.3488H29.8478Z" fill="#D6992D"/>
<path fill-rule="evenodd" clip-rule="evenodd" d="M28.22 65.0839L25.9629 66.3733L28.22 67.669V65.0839ZM28.7668 64.074L24.812 66.3669L28.7986 68.6535L28.7668 64.074Z" fill="#D6992D"/>
<path fill-rule="evenodd" clip-rule="evenodd" d="M25.2697 64.4615L25.5177 61.8764L27.6286 63.4008L25.2697 64.4615ZM24.5767 65.3761L25.0408 60.8347L28.7667 63.5278L24.5767 65.3825V65.3761Z" fill="#D6992D"/>
<path fill-rule="evenodd" clip-rule="evenodd" d="M23.7057 61.8382L21.2323 62.6321L23.178 64.3661L23.7121 61.8382H23.7057ZM24.4496 60.968L20.1069 62.3908L23.534 65.4522L24.4496 60.968Z" fill="#D6992D"/>
<path fill-rule="evenodd" clip-rule="evenodd" d="M20.9333 60.6123L21.6963 58.1289L23.4576 60.047L20.9333 60.606V60.6123ZM20.0686 61.3682L21.442 57.0173L24.5448 60.4027L20.0623 61.3682H20.0686Z" fill="#D6992D"/>
<path fill-rule="evenodd" clip-rule="evenodd" d="M19.9607 57.7351L17.3728 58.0018L18.9179 60.0978L19.9607 57.7351ZM20.8699 57.0364L16.3237 57.5382L19.0514 61.2411L20.8699 57.0364Z" fill="#D6992D"/>
<path fill-rule="evenodd" clip-rule="evenodd" d="M17.519 55.925L18.7843 53.6575L20.1068 55.8996L17.519 55.925ZM16.5144 56.4839L18.7652 52.5078L21.0987 56.4649L16.5144 56.4839Z" fill="#D6992D"/>
<path fill-rule="evenodd" clip-rule="evenodd" d="M17.144 52.9205L14.5562 52.641L15.6244 55.0165L17.1377 52.9205H17.144ZM18.1804 52.4251L13.6343 51.9678L15.5227 56.1535L18.1804 52.4251Z" fill="#D6992D"/>
<path fill-rule="evenodd" clip-rule="evenodd" d="M15.1092 50.6784L16.8196 48.7221L17.6462 51.1929L15.1092 50.6848V50.6784ZM14.0156 51.0151L17.0422 47.5979L18.5046 51.9551L14.0156 51.0214V51.0151Z" fill="#D6992D"/>
<path fill-rule="evenodd" clip-rule="evenodd" d="M15.4016 47.6741L12.9346 46.8611L13.4878 49.4081L15.408 47.6741H15.4016ZM16.5143 47.4074L12.1589 46.01L13.1317 50.5006L16.5143 47.4074Z" fill="#D6992D"/>
<path fill-rule="evenodd" clip-rule="evenodd" d="M13.8313 45.07L15.9168 43.5202L16.2029 46.1053L13.8313 45.07ZM12.6868 45.1652L16.3746 42.4658L16.8769 47.0326L12.6868 45.1652Z" fill="#D6992D"/>
<path fill-rule="evenodd" clip-rule="evenodd" d="M14.7659 42.1294L12.5151 40.8273L12.5278 43.4314L14.7596 42.1294H14.7659ZM15.9104 42.0976L11.9365 39.8364L11.962 44.4286L15.9041 42.0976H15.9104Z" fill="#D6992D"/>
<path fill-rule="evenodd" clip-rule="evenodd" d="M13.863 39.2583L16.2155 38.1532L15.9739 40.7446L13.8566 39.2583H13.863ZM12.7249 39.125L16.8768 37.2131L16.4571 41.7863L12.7249 39.125Z" fill="#D6992D"/>
<path fill-rule="evenodd" clip-rule="evenodd" d="M15.3127 36.6097L13.3862 34.863L12.8521 37.41L15.3127 36.6097ZM16.4445 36.8193L13.0365 33.7769L12.0955 38.2738L16.4445 36.8193Z" fill="#D6992D"/>
<path fill-rule="evenodd" clip-rule="evenodd" d="M15.014 33.6053L17.5446 33.0146L16.7689 35.4981L15.014 33.599V33.6053ZM13.9268 33.237L18.3839 32.2334L17.0169 36.616L13.9268 33.237Z" fill="#D6992D"/>
<path fill-rule="evenodd" clip-rule="evenodd" d="M17.0041 31.3062L15.4781 29.2038L14.429 31.5857L16.9978 31.3062H17.0041ZM18.0659 31.7445L15.3573 28.0669L13.5071 32.2717L18.0596 31.7445H18.0659Z" fill="#D6992D"/>
<path fill-rule="evenodd" clip-rule="evenodd" d="M17.341 28.3083L19.9415 28.2638L18.6635 30.5313L17.3474 28.3083H17.341ZM16.3555 27.7239L20.9271 27.6794L18.6699 31.681L16.3555 27.7239Z" fill="#D6992D"/>
<path fill-rule="evenodd" clip-rule="evenodd" d="M19.7446 26.4599L18.6891 24.0908L17.1695 26.2059L19.7446 26.4599ZM20.6919 27.1078L18.8035 22.9475L16.1267 26.6822L20.6919 27.1015V27.1078Z" fill="#D6992D"/>
<path fill-rule="evenodd" clip-rule="evenodd" d="M20.7172 23.6016L23.2669 24.097L21.5374 26.0469L20.7109 23.6016H20.7172ZM19.8779 22.8203L24.3605 23.7286L21.3149 27.1712L19.8843 22.8203H19.8779Z" fill="#D6992D"/>
<path fill-rule="evenodd" clip-rule="evenodd" d="M23.4576 22.3123L22.9363 19.7653L20.997 21.5057L23.4576 22.3123ZM24.2461 23.1444L23.2987 18.6792L19.8779 21.7534L24.2461 23.1507V23.1444Z" fill="#D6992D"/>
<path fill-rule="evenodd" clip-rule="evenodd" d="M24.9772 19.6954L27.3679 20.718L25.2697 22.2678L24.9772 19.7018V19.6954ZM24.3159 18.7554L28.506 20.5783L24.8055 23.3095L24.3159 18.7554Z" fill="#D6992D"/>
<path fill-rule="evenodd" clip-rule="evenodd" d="M27.9402 18.9966L27.9656 16.3988L25.7085 17.6945L27.9466 18.9903L27.9402 18.9966ZM28.5379 19.9748V15.408L24.5576 17.7009L28.5379 19.9748Z" fill="#D6992D"/>
<path fill-rule="evenodd" clip-rule="evenodd" d="M30.0003 16.7863L32.1303 18.2726L29.7587 19.3587L29.9939 16.7863H30.0003ZM29.5425 15.7319L33.2748 18.3742L29.0974 20.2924L29.5488 15.7383L29.5425 15.7319Z" fill="#D6992D"/>
<path fill-rule="evenodd" clip-rule="evenodd" d="M33.0268 16.7101L33.5863 14.1758L31.1066 14.9761L33.0268 16.7101ZM33.4083 17.7899L34.362 13.3247L29.9875 14.7411L33.4083 17.7899Z" fill="#D6992D"/>
<path fill-rule="evenodd" clip-rule="evenodd" d="M35.4747 14.9506L37.2295 16.8688L34.6799 17.4087L35.4747 14.9506ZM35.2648 13.8264L38.3232 17.2182L33.8279 18.1773L35.2648 13.8264Z" fill="#D6992D"/>
<path fill-rule="evenodd" clip-rule="evenodd" d="M38.476 15.516L39.5569 13.1532L36.9627 13.42L38.476 15.516ZM38.6222 16.653L40.4915 12.4863L35.9136 12.9563L38.6222 16.653Z" fill="#D6992D"/>
<path fill-rule="evenodd" clip-rule="evenodd" d="M41.2289 14.3157L42.5641 16.5451L39.9572 16.5641L41.2289 14.3157ZM41.2479 13.1724L43.5624 17.1104L38.9653 17.1485L41.2479 13.1787V13.1724Z" fill="#D6992D"/>
<path fill-rule="evenodd" clip-rule="evenodd" d="M44.0265 15.4716L45.5525 13.3692L42.9584 13.1215L44.0265 15.4716ZM43.9439 16.6149L46.5953 12.8992L42.0173 12.4609L43.9439 16.6149Z" fill="#D6992D"/>
<path fill-rule="evenodd" clip-rule="evenodd" d="M46.9832 14.8745L47.8225 17.3325L45.2665 16.8117L46.9768 14.8745H46.9832ZM47.2375 13.7566L48.6809 18.0884L44.1729 17.1674L47.2312 13.7566H47.2375Z" fill="#D6992D"/>
<path fill-rule="evenodd" clip-rule="evenodd" d="M60.3229 35.4346L60.9397 36.381L61.9443 36.0888L61.2385 36.9653L61.8235 37.8291L60.768 37.4353L60.1258 38.2547L60.183 37.1304L59.1975 36.7748L60.2848 36.4762L60.3229 35.4346Z" fill="#D6992D"/>
<path d="M62.6055 40.2112L60.2847 40.5351L60.1194 39.3728L60.2911 39.3474L60.4628 39.322L60.5581 40.0079L61.1749 39.919L61.0795 39.2584L61.2512 39.233L61.4229 39.2076L61.5182 39.8682L62.1922 39.7729L62.0968 39.0743L62.2685 39.0488L62.4402 39.0234L62.6055 40.1985V40.2112ZM61.3084 41.5323V41.3989C61.3021 41.2719 61.2703 41.1957 61.2258 41.1512C61.1813 41.1131 61.0859 41.0941 60.946 41.1004C60.8188 41.1004 60.7298 41.1322 60.6853 41.1766C60.6408 41.2211 60.6217 41.3037 60.6217 41.4243V41.5577L61.3021 41.5323H61.3084ZM62.6437 41.9642L60.2975 42.0468V41.8054L60.272 41.3418C60.2657 41.0877 60.3038 40.9099 60.3928 40.8019C60.4818 40.6939 60.6344 40.6304 60.857 40.624C61.105 40.6177 61.2766 40.6621 61.3656 40.7701C61.4102 40.8209 61.4483 40.9035 61.4737 41.0178V40.9924C61.4737 40.859 61.5055 40.7638 61.5882 40.6939C61.6708 40.624 61.7916 40.5923 61.9506 40.5923C62.0396 40.5923 62.135 40.5923 62.2367 40.5859C62.3385 40.5859 62.4148 40.5732 62.4656 40.5669C62.5165 40.5605 62.5546 40.5542 62.5864 40.5415V40.7828L62.6055 41.0242C62.5801 41.0305 62.5419 41.0369 62.4911 41.0432C62.4402 41.0432 62.3639 41.0559 62.2558 41.0559L61.9697 41.0687C61.8552 41.0687 61.7726 41.0941 61.7217 41.1449C61.6772 41.1957 61.6518 41.2719 61.6581 41.3926V41.5323L62.6182 41.5006V41.7419L62.6373 41.9833L62.6437 41.9642ZM62.6309 43.26L60.6344 43.2282V43.7363H60.4501H60.2784L60.3038 42.2437H60.4755H60.6472V42.7455L62.6373 42.7772V43.0186L62.6309 43.26ZM62.4211 45.1845L62.3957 45.3814L62.3703 45.5783L60.0431 45.2925L60.0876 44.9431L60.1321 44.5938L62.1477 44.435L60.183 44.1936L60.2084 43.9967L60.2339 43.7998L62.561 44.0857L62.5165 44.435L62.472 44.7843L60.4373 44.9495L62.4211 45.1908V45.1845ZM62.046 47.1154L59.7507 46.6263L59.9923 45.483L60.1639 45.5211L60.3356 45.5592L60.1894 46.2325L60.7934 46.3595L60.9333 45.7053L61.105 45.7434L61.2766 45.7815L61.1367 46.4358L61.798 46.5755L61.9443 45.8895L62.1159 45.9276L62.2876 45.9657L62.0396 47.1217L62.046 47.1154ZM61.1813 47.2297L61.2512 47.2488C61.5182 47.3186 61.6899 47.4202 61.7726 47.56C61.8552 47.6934 61.8616 47.8839 61.7916 48.1253C61.7153 48.3857 61.6009 48.5508 61.4483 48.6207C61.2957 48.6906 61.0732 48.6842 60.7743 48.6016L60.0813 48.4047C59.7824 48.3158 59.5853 48.2078 59.4963 48.0681C59.4073 47.9284 59.3946 47.7251 59.4709 47.4711C59.5345 47.2488 59.6426 47.0963 59.7888 47.0201C59.9223 46.9502 60.1004 46.9439 60.3102 47.0074L60.3547 47.0201L60.4246 47.0392L60.2911 47.4965L60.2212 47.4774C60.1067 47.4393 60.0113 47.433 59.9478 47.4457C59.8778 47.4584 59.8397 47.5028 59.8206 47.5663C59.7952 47.6553 59.8142 47.7251 59.8651 47.7823C59.9223 47.8395 60.0241 47.8903 60.1767 47.9347L60.8697 48.1316C61.0668 48.1888 61.2067 48.2078 61.2957 48.1951C61.3847 48.1824 61.4419 48.1316 61.4674 48.0364C61.4865 47.9665 61.4674 47.903 61.4165 47.8522C61.3593 47.8013 61.2639 47.7569 61.1367 47.7188L61.0668 47.6997L61.2003 47.2424L61.1813 47.2297ZM60.6917 50.9136L60.609 51.0915L60.5264 51.2693L58.3836 50.3166L58.5299 49.9926L58.6761 49.6687L60.6472 50.1006L58.8351 49.294L58.9177 49.1161L59.0004 48.9383L61.1431 49.891L61.0032 50.2086L60.857 50.5325L58.8669 50.0943L60.6917 50.9073V50.9136ZM59.6871 52.1776C59.7316 52.095 59.7379 52.0252 59.6998 51.9616C59.6616 51.8981 59.5726 51.8283 59.4391 51.752L58.5935 51.282C58.4981 51.2312 58.4218 51.2122 58.3518 51.2249C58.2819 51.2376 58.231 51.2757 58.1865 51.3455C58.1484 51.4154 58.142 51.4853 58.1674 51.5488C58.1929 51.6123 58.2565 51.6695 58.3455 51.7203L59.1911 52.1903C59.331 52.2665 59.4327 52.3046 59.509 52.3046C59.579 52.3046 59.6362 52.2602 59.6871 52.1776ZM59.9923 52.3491C59.8651 52.5841 59.7189 52.7175 59.5599 52.7556C59.4009 52.7937 59.1975 52.7429 58.9432 52.6032L58.0975 52.1331C57.9068 52.0252 57.7923 51.8981 57.7542 51.733C57.716 51.5742 57.7542 51.39 57.875 51.174C57.9958 50.9581 58.1293 50.8247 58.2819 50.7739C58.4345 50.7231 58.6062 50.7485 58.7969 50.8501L59.6426 51.3201C59.8969 51.4599 60.0495 51.6123 60.1004 51.7647C60.1512 51.9172 60.1131 52.1141 59.9795 52.3491H59.9923ZM59.1403 53.6956L57.1501 52.4507L57.2773 52.2475L57.4045 52.0442L59.3946 53.2891L59.2674 53.4924L59.1403 53.6956ZM58.4027 54.7691L56.7686 53.6258L56.4762 54.0386L56.3299 53.937L56.19 53.8354L57.042 52.6159L57.1819 52.7175L57.3282 52.8191L57.042 53.232L58.6761 54.3752L58.5362 54.5722L58.3963 54.7691H58.4027ZM55.9675 54.7436L56.6478 55.5694L56.8958 55.2772L55.9675 54.75V54.7436ZM56.9022 56.592L55.4461 54.6801L55.6241 54.4642L55.8085 54.2482L57.9449 55.347L57.7987 55.5249L57.6461 55.7027L57.1946 55.4487L56.864 55.8361L57.1883 56.2363L57.042 56.4141L56.8894 56.592H56.9022ZM56.1455 56.1855L56.1964 56.2363C56.3935 56.4332 56.4889 56.6047 56.4952 56.7635C56.4952 56.9222 56.4126 57.0874 56.2282 57.2652C56.0374 57.4494 55.853 57.5383 55.6877 57.5256C55.5224 57.5129 55.3317 57.3923 55.1155 57.17L54.6132 56.6491C54.397 56.4268 54.2826 56.2299 54.2762 56.0648C54.2698 55.8996 54.3588 55.7218 54.556 55.5312C54.7213 55.3661 54.8929 55.2899 55.0519 55.2962C55.2045 55.2962 55.3571 55.3852 55.5097 55.5439L55.5415 55.5757L55.5924 55.6265L55.249 55.9568L55.1981 55.906C55.1155 55.8171 55.0392 55.7599 54.9756 55.7408C54.912 55.7218 54.8484 55.7408 54.8039 55.7853C54.7403 55.8488 54.7149 55.9187 54.734 55.9949C54.7531 56.0711 54.8166 56.1664 54.9247 56.2807L55.427 56.8016C55.5669 56.9476 55.6814 57.0366 55.764 57.0683C55.8467 57.1001 55.923 57.081 55.9929 57.0175C56.0438 56.9667 56.0629 56.9032 56.0438 56.827C56.0247 56.7507 55.9611 56.6682 55.8658 56.5729L55.8149 56.5221L56.1582 56.1918L56.1455 56.1855ZM55.0137 58.3259L53.4433 56.5856L53.6213 56.4268L53.7993 56.268L55.3698 58.0084L55.1918 58.1672L55.0137 58.3259ZM53.8375 59.2406L52.3624 57.4177L53.2334 56.7126L53.3415 56.846L53.4496 56.9794L52.9473 57.3859L53.3479 57.8813L53.8184 57.5002L53.9265 57.6336L54.0346 57.767L53.5641 58.1481L54.1999 58.9293L54.0155 59.0818L53.8311 59.2342L53.8375 59.2406ZM53.119 59.736L51.7392 57.8432L51.9364 57.7035L52.1335 57.5638L53.5132 59.4565L53.3161 59.5963L53.119 59.736ZM51.9872 60.4029L50.989 58.6753L50.5503 58.9293L50.4612 58.7769L50.3722 58.6245L51.663 57.8813L51.752 58.0338L51.841 58.1862L51.4023 58.4403L52.4005 60.1679L52.1907 60.2886L51.9809 60.4093L51.9872 60.4029ZM49.889 60.0409L50.0034 59.9774C50.1115 59.9202 50.1751 59.8567 50.1878 59.7995C50.2006 59.7424 50.1815 59.6471 50.1115 59.5264C50.0543 59.4121 49.9907 59.3486 49.9271 59.3231C49.8699 59.3041 49.7809 59.3231 49.6792 59.374L49.5647 59.4375L49.8826 60.0345L49.889 60.0409ZM50.0797 61.4255L48.9798 59.3549L49.1896 59.2406L49.6029 59.0246C49.8254 58.9039 50.0034 58.8658 50.1433 58.8976C50.2832 58.9293 50.404 59.0437 50.5057 59.2342C50.6202 59.4502 50.652 59.628 50.5948 59.7551C50.5693 59.8186 50.5057 59.8884 50.4231 59.9647L50.4485 59.952C50.563 59.8884 50.6711 59.8821 50.7728 59.9266C50.8745 59.971 50.9572 60.0663 51.0271 60.2124C51.0653 60.2949 51.1098 60.3775 51.1606 60.4664C51.2115 60.5554 51.2497 60.6189 51.2815 60.6697C51.3132 60.7141 51.3323 60.7459 51.3578 60.765L51.1479 60.8793L50.9381 60.9936C50.9381 60.9936 50.8936 60.9428 50.8682 60.8983C50.8427 60.8539 50.8046 60.784 50.7537 60.6951L50.6202 60.4474C50.5693 60.3458 50.5057 60.2822 50.4422 60.2568C50.3786 60.2378 50.2959 60.2568 50.1942 60.3076L50.0734 60.3712L50.5248 61.2159L50.315 61.3303L50.0988 61.4446L50.0797 61.4255ZM48.6428 61.9781L47.7653 59.8059L48.8526 59.3676L48.9162 59.5264L48.9798 59.6852L48.3376 59.9456L48.5728 60.5172L49.1896 60.2695L49.2532 60.4283L49.3168 60.5871L48.6936 60.8348L48.948 61.4636L49.6029 61.1969L49.6665 61.3557L49.73 61.5208L48.6301 61.9654L48.6428 61.9781ZM48.0578 61.3366L48.0769 61.4001C48.1596 61.6605 48.1723 61.8638 48.1023 62.0035C48.0324 62.1433 47.8798 62.2576 47.6382 62.3275C47.3775 62.4037 47.1804 62.4037 47.0405 62.3147C46.9006 62.2258 46.7798 62.0353 46.6908 61.7368L46.481 61.0444C46.392 60.7459 46.3792 60.5236 46.4492 60.3648C46.5191 60.2124 46.6781 60.098 46.9388 60.0155C47.1613 59.9456 47.3457 59.952 47.4856 60.0345C47.6191 60.1107 47.7208 60.2505 47.7781 60.4601L47.7908 60.5045L47.8098 60.5744L47.3521 60.7141L47.333 60.6443C47.3012 60.53 47.2567 60.4474 47.2058 60.3966C47.1549 60.3458 47.0977 60.3331 47.0341 60.3521C46.9515 60.3775 46.8943 60.4283 46.8752 60.5109C46.8561 60.5871 46.8752 60.7014 46.9197 60.8539L47.1295 61.5462C47.1867 61.7431 47.2503 61.8701 47.3075 61.9337C47.3648 61.9972 47.4411 62.0162 47.5301 61.9908C47.6 61.9718 47.6445 61.921 47.6572 61.8447C47.67 61.7685 47.6572 61.6669 47.6127 61.5335L47.5937 61.47L48.0515 61.3303L48.0578 61.3366ZM44.8088 62.9753L44.4018 60.6697L44.6371 60.6252L44.8723 60.5808L45.222 62.5434L45.8261 62.4354L45.8579 62.6069L45.8897 62.7784L44.8151 62.969L44.8088 62.9753ZM43.4036 61.235L43.3591 62.302L43.7406 62.2512L43.4036 61.235ZM42.8568 63.2357L43.0602 60.8412L43.34 60.8031L43.6198 60.765L44.4718 63.0134L44.2429 63.0452L44.014 63.0769L43.8487 62.5879L43.3464 62.6577L43.3209 63.1722L43.092 63.204L42.8631 63.2357H42.8568ZM42.5579 62.4037V62.4735C42.577 62.7467 42.5325 62.9436 42.4308 63.0642C42.329 63.1849 42.151 63.2484 41.8967 63.2611C41.6296 63.2675 41.4325 63.2167 41.3181 63.0896C41.2036 62.969 41.14 62.753 41.1273 62.4418L41.1019 61.7177C41.0892 61.4065 41.14 61.1842 41.2418 61.0571C41.3499 60.9238 41.5343 60.8539 41.8077 60.8475C42.0429 60.8412 42.2146 60.892 42.3354 61.0063C42.4435 61.1143 42.5007 61.2731 42.5134 61.4954V61.5399V61.6097L42.0366 61.6288V61.5589C42.0366 61.4382 42.0111 61.3493 41.9793 61.2858C41.9412 61.2286 41.8903 61.1969 41.8204 61.2032C41.7314 61.2032 41.6678 61.2413 41.6296 61.3112C41.5915 61.3811 41.5788 61.4954 41.5851 61.6542L41.6106 62.3783C41.6169 62.5815 41.6423 62.7213 41.6805 62.8038C41.7186 62.88 41.7886 62.9182 41.884 62.9182C41.9603 62.9182 42.0111 62.88 42.0429 62.8102C42.0747 62.7403 42.0874 62.6387 42.0811 62.4989V62.4291L42.5579 62.41V62.4037ZM40.2944 63.2294L40.377 60.8856H40.6187L40.8603 60.9047L40.7776 63.2484H40.536L40.2944 63.2294ZM39.1245 63.1468C38.8574 63.1087 38.6794 63.0134 38.5967 62.861C38.5141 62.7085 38.495 62.4545 38.5395 62.1051L38.6158 61.5526C38.6603 61.235 38.7557 61.0127 38.8956 60.892C39.0355 60.7713 39.2389 60.7269 39.5123 60.765C39.7476 60.7967 39.9129 60.8793 40.0146 61.0127C40.11 61.1397 40.1418 61.3239 40.1036 61.5462L40.0909 61.6161L39.6204 61.5526L39.6331 61.4827C39.6522 61.3684 39.6459 61.2858 39.6141 61.2223C39.5823 61.1588 39.525 61.127 39.4424 61.1143C39.347 61.1016 39.2707 61.127 39.2198 61.1969C39.169 61.2667 39.1308 61.4001 39.1054 61.597L39.0291 62.1496C38.9909 62.4037 38.991 62.5752 39.0164 62.6577C39.0418 62.7403 39.1118 62.7911 39.2262 62.8102C39.2707 62.8165 39.347 62.8102 39.4487 62.8102L39.525 62.2766L39.3089 62.2449L39.3597 61.9019L40.0528 61.9972L39.8875 63.1722C39.6268 63.1976 39.3788 63.1913 39.1435 63.1595L39.1245 63.1468ZM37.3378 62.5244C37.4332 62.5434 37.5031 62.5244 37.5476 62.4672C37.5921 62.41 37.6303 62.3084 37.6621 62.1496L37.8274 61.1969C37.8465 61.0952 37.8401 61.0127 37.8083 60.9492C37.7765 60.8856 37.7193 60.8475 37.6366 60.8348C37.554 60.8221 37.4904 60.8348 37.4395 60.8856C37.3887 60.9301 37.3569 61.0063 37.3378 61.1079L37.1725 62.0607C37.1471 62.2195 37.1407 62.3275 37.1725 62.3973C37.1979 62.4672 37.2551 62.5053 37.3505 62.5244M37.2869 62.8737C37.0262 62.8292 36.8482 62.734 36.7592 62.6006C36.6702 62.4608 36.6511 62.2512 36.702 61.9654L36.8673 61.0127C36.9054 60.7967 36.9945 60.6506 37.1343 60.5617C37.2742 60.4728 37.4586 60.4537 37.7002 60.4982C37.9418 60.5427 38.1135 60.6252 38.2152 60.7523C38.317 60.8793 38.3488 61.0508 38.3106 61.2667L38.1453 62.2195C38.0944 62.5053 38.0054 62.7022 37.8783 62.7975C37.7511 62.8991 37.554 62.9245 37.2869 62.8737ZM35.2141 62.302L35.9008 60.0599L36.1297 60.1298L36.3586 60.1997L35.7737 62.1051L36.3586 62.283L36.3078 62.4481L36.2569 62.6133L35.2141 62.2957V62.302ZM34.1968 61.6478C34.2858 61.6859 34.3558 61.6796 34.413 61.6351C34.4702 61.5907 34.5275 61.4954 34.591 61.3493L34.9535 60.4537C34.9916 60.3585 35.0043 60.2759 34.9853 60.206C34.9662 60.1425 34.9153 60.0917 34.8454 60.0599C34.7691 60.0282 34.6991 60.0282 34.6419 60.0599C34.5847 60.0917 34.5338 60.1616 34.4957 60.2568L34.1332 61.1524C34.076 61.2985 34.0506 61.4065 34.0633 61.4827C34.076 61.5526 34.1205 61.6097 34.2095 61.6415M34.076 61.9654C33.828 61.8638 33.6754 61.7368 33.6182 61.5907C33.561 61.4382 33.5864 61.2286 33.6945 60.9555L34.0569 60.0599C34.1396 59.8567 34.2541 59.7296 34.4066 59.6725C34.5592 59.6153 34.75 59.6344 34.9725 59.7233C35.2014 59.8122 35.3477 59.9329 35.4176 60.079C35.4876 60.2251 35.4876 60.3966 35.4049 60.5998L35.0425 61.4954C34.9344 61.7685 34.8072 61.9337 34.661 62.0035C34.5147 62.0734 34.3176 62.0607 34.0697 61.9591L34.076 61.9654ZM31.5009 60.7713L31.3293 60.676L31.1576 60.5808L32.2576 58.5101L32.5564 58.6689L32.8552 58.8277L32.3466 60.5871L33.5165 59.1771L33.809 59.3359L34.1078 59.4946L33.0078 61.5653L32.8362 61.4763L32.6645 61.3811L33.5928 59.6407L32.3021 61.1842L32.0922 61.0698L31.8824 60.9555L32.4483 59.0183L31.52 60.765L31.5009 60.7713ZM29.8287 59.7995L31.1385 57.8559L32.1113 58.5101L32.0159 58.6562L31.9206 58.8023L31.3483 58.4149L30.9986 58.9293L31.5518 59.3041L31.4564 59.4502L31.361 59.5963L30.8079 59.2215L30.4264 59.7868L31.0113 60.1806L30.916 60.3267L30.8206 60.4728L29.8351 59.8122L29.8287 59.7995ZM28.8114 59.1517C28.5888 58.9992 28.4744 58.8341 28.468 58.6562C28.4617 58.4784 28.5571 58.2497 28.7605 57.9576L29.0784 57.5002C29.2628 57.2398 29.4472 57.0874 29.6252 57.0366C29.8033 56.9921 30.0067 57.0429 30.2293 57.2017C30.4264 57.3414 30.5345 57.4875 30.5663 57.6463C30.5917 57.8051 30.5408 57.9766 30.4009 58.1608L30.3628 58.218L29.9749 57.9449L30.0131 57.8877C30.0767 57.7988 30.1148 57.7162 30.1148 57.6463C30.1148 57.5765 30.0767 57.5193 30.0131 57.4685C29.9304 57.4113 29.8541 57.405 29.7778 57.4431C29.7015 57.4812 29.6062 57.5828 29.4917 57.748L29.1738 58.2053C29.0276 58.4149 28.9449 58.561 28.9258 58.6499C28.9068 58.7388 28.9513 58.815 29.0403 58.8785C29.0784 58.9039 29.142 58.9357 29.2437 58.9738L29.5553 58.5292L29.3773 58.4022L29.5744 58.1163L30.1466 58.5165L29.4663 59.4883C29.2247 59.393 29.0021 59.2787 28.805 59.1389L28.8114 59.1517ZM26.6496 57.2525L28.2773 55.5694L28.449 55.7345L28.6206 55.8996L27.2345 57.3351L27.6733 57.7607L27.5524 57.8877L27.4316 58.0147L26.6496 57.2589V57.2525ZM27.2218 55.1247L26.3189 55.6964L26.5796 55.9759L27.2218 55.1184V55.1247ZM25.2698 55.8298L27.349 54.623L27.5397 54.8262L27.7305 55.0358L26.3762 57.0239L26.2172 56.8524L26.0583 56.6809L26.3635 56.268L26.0138 55.8933L25.575 56.1664L25.4161 55.9949L25.2571 55.8234L25.2698 55.8298ZM24.3606 54.6992L24.2398 54.5404L24.119 54.3816L25.9947 52.9715L26.2045 53.251L26.4207 53.5368L25.0854 55.0485L26.6687 53.8608L26.7895 54.0196L26.9103 54.1784L25.0346 55.5884L24.8248 55.3089L24.6149 55.0295L25.9629 53.5051L24.367 54.7055L24.3606 54.6992ZM23.7502 53.232C23.8011 53.3145 23.8583 53.3526 23.9346 53.3463C24.0045 53.3463 24.1126 53.3018 24.2462 53.2193L25.0664 52.7048C25.1554 52.6476 25.2126 52.5905 25.238 52.5206C25.2635 52.4571 25.2508 52.3872 25.2063 52.3173C25.1617 52.2475 25.1045 52.2094 25.0409 52.203C24.971 52.1967 24.8947 52.2221 24.8057 52.2792L23.9855 52.7937C23.8519 52.8763 23.7693 52.9525 23.7311 53.016C23.6993 53.0795 23.7057 53.1494 23.7566 53.232M23.4577 53.4162C23.3179 53.1875 23.267 52.997 23.3115 52.8445C23.356 52.6857 23.5022 52.5333 23.7502 52.3808L24.5704 51.8727C24.7548 51.7584 24.9265 51.7203 25.0854 51.7647C25.2444 51.8092 25.3843 51.9362 25.5114 52.1395C25.6386 52.3491 25.6895 52.5269 25.664 52.6921C25.6386 52.8509 25.5305 52.9906 25.3461 53.1049L24.5259 53.6131C24.2779 53.7655 24.0745 53.829 23.9155 53.7973C23.7566 53.7655 23.604 53.6385 23.4641 53.4098L23.4577 53.4162ZM22.6502 51.9998L24.704 50.8628L24.8184 51.0724L24.9328 51.282L22.8791 52.419L22.7647 52.2094L22.6502 51.9998ZM22.0907 50.8438L23.9155 50.0308L23.7121 49.5671L23.871 49.4972L24.03 49.4274L24.634 50.7866L24.4751 50.8565L24.3161 50.9263L24.1126 50.469L22.2878 51.282L22.1924 51.0661L22.0971 50.8438H22.0907ZM23.2733 48.7604L22.2242 48.9573L22.3641 49.313L23.2797 48.7604H23.2733ZM21.2006 48.6779L23.5849 48.3349L23.6866 48.5953L23.7884 48.8557L21.7855 50.1895L21.7029 49.9736L21.6202 49.7576L22.0589 49.4909L21.8745 49.0145L21.3659 49.1034L21.2832 48.8875L21.2006 48.6715V48.6779ZM20.8063 47.2869L20.7491 47.0963L20.6919 46.9058L22.9491 46.2579L23.0444 46.5945L23.1398 46.9375L21.3468 47.8712L23.2479 47.325L23.2988 47.5155L23.356 47.7061L21.0988 48.3539L21.0034 48.0173L20.9081 47.6807L22.7138 46.7406L20.7936 47.2932L20.8063 47.2869ZM21.7792 45.3814L21.7982 45.5148C21.8173 45.6355 21.8555 45.718 21.9063 45.7498C21.9572 45.7815 22.0526 45.7879 22.1861 45.7688C22.3132 45.7498 22.3959 45.7117 22.4341 45.6609C22.4722 45.61 22.4849 45.5275 22.4658 45.4068L22.4468 45.2734L21.7792 45.3814ZM20.4058 45.1146L22.7265 44.7462L22.7647 44.9812L22.8346 45.4386C22.8728 45.6863 22.8537 45.8705 22.7838 45.9911C22.7075 46.1118 22.5612 46.188 22.345 46.2262C22.0971 46.2643 21.9254 46.2389 21.8237 46.1436C21.7728 46.0991 21.7283 46.0165 21.6838 45.9149V45.9403C21.7092 46.0674 21.6838 46.1753 21.6075 46.2516C21.5312 46.3341 21.4167 46.3786 21.2578 46.3976C21.1688 46.4103 21.0734 46.4231 20.978 46.4358C20.8763 46.4548 20.8 46.4675 20.7491 46.4802C20.6983 46.4929 20.6601 46.5056 20.6347 46.5183L20.5965 46.2833L20.5584 46.0483C20.5584 46.0483 20.622 46.0229 20.6728 46.0165C20.7237 46.0038 20.8 45.9911 20.9017 45.9721L21.1815 45.9276C21.2959 45.9086 21.3786 45.8768 21.4167 45.826C21.4549 45.7752 21.4676 45.6863 21.4485 45.5783L21.4295 45.4386L20.4821 45.591L20.4439 45.356L20.4058 45.1146ZM20.215 43.6093L22.5549 43.4441L22.6375 44.6128L22.4658 44.6255L22.2942 44.6383L22.2433 43.9459L21.6266 43.9904L21.6711 44.6573L21.4994 44.67L21.3277 44.6827L21.2832 44.0158L20.6092 44.0603L20.6601 44.7653L20.4884 44.778L20.3168 44.7907L20.2341 43.6093H20.215ZM20.1451 42.2882L22.1416 42.2564V41.7483H22.3069H22.4786L22.504 43.2345H22.3323H22.1543V42.7328L20.1514 42.7645V42.5232L20.1451 42.2818V42.2882ZM20.2087 40.37L20.2277 40.1731L20.2468 39.9762L22.5867 40.1794L22.5549 40.5288L22.5231 40.8781L20.5139 41.1068L22.4849 41.2783L22.4658 41.4752L22.4468 41.6721L20.1069 41.4688L20.1387 41.1195L20.1705 40.7701L22.1988 40.5351L20.2087 40.3636V40.37ZM20.3422 39.0615L22.663 39.3855L22.6312 39.6205L22.5994 39.8618L20.2786 39.5379L20.3104 39.3029L20.3422 39.0615Z" fill="#D6992D"/>
</g>
<defs>
<clipPath id="clip0_320_1183">
<rect width="59" height="59" fill="white" transform="translate(11.9429 12.4609)"/>
</clipPath>
</defs>
</svg>
