<svg width="27" height="27" viewBox="0 0 27 27" fill="none" xmlns="http://www.w3.org/2000/svg">
<g clip-path="url(#clip0_237_489)">
<path d="M16.1856 13.0678C16.1856 14.4493 15.0658 15.5692 13.6843 15.5692C12.3027 15.5692 11.1829 14.4493 11.1829 13.0678C11.1829 11.6863 12.3027 10.5664 13.6843 10.5664C15.0658 10.5664 16.1856 11.6863 16.1856 13.0678Z" fill="black"/>
<path d="M19.5345 8.6423C19.4143 8.31647 19.2224 8.02154 18.9732 7.77946C18.7311 7.5302 18.4364 7.33836 18.1103 7.21812C17.8459 7.11543 17.4487 6.99319 16.7171 6.95989C15.9256 6.92379 15.6883 6.91602 13.6846 6.91602C11.6808 6.91602 11.4435 6.92359 10.6522 6.95969C9.9206 6.99319 9.52317 7.11543 9.25896 7.21812C8.93292 7.33836 8.638 7.5302 8.39611 7.77946C8.14685 8.02154 7.95502 8.31627 7.83458 8.6423C7.73188 8.90672 7.60964 9.30414 7.57634 10.0358C7.54025 10.827 7.53247 11.0643 7.53247 13.0682C7.53247 15.0719 7.54025 15.3092 7.57634 16.1006C7.60964 16.8322 7.73188 17.2295 7.83458 17.4939C7.95502 17.8199 8.14665 18.1146 8.39591 18.3567C8.638 18.606 8.93272 18.7978 9.25876 18.9181C9.52317 19.021 9.9206 19.1432 10.6522 19.1765C11.4435 19.2126 11.6806 19.2202 13.6844 19.2202C15.6885 19.2202 15.9258 19.2126 16.7169 19.1765C17.4485 19.1432 17.8459 19.021 18.1103 18.9181C18.7648 18.6656 19.2821 18.1483 19.5345 17.4939C19.6372 17.2295 19.7595 16.8322 19.793 16.1006C19.8291 15.3092 19.8366 15.0719 19.8366 13.0682C19.8366 11.0643 19.8291 10.827 19.793 10.0358C19.7597 9.30414 19.6374 8.90672 19.5345 8.6423ZM13.6846 16.9214C11.5564 16.9214 9.83106 15.1963 9.83106 13.068C9.83106 10.9397 11.5564 9.21461 13.6846 9.21461C15.8127 9.21461 17.538 10.9397 17.538 13.068C17.538 15.1963 15.8127 16.9214 13.6846 16.9214ZM17.6904 9.96279C17.1931 9.96279 16.7899 9.55959 16.7899 9.06226C16.7899 8.56493 17.1931 8.16173 17.6904 8.16173C18.1877 8.16173 18.5909 8.56493 18.5909 9.06226C18.5907 9.55959 18.1877 9.96279 17.6904 9.96279Z" fill="black"/>
<path d="M13.6849 0C6.46852 0 0.616455 5.85207 0.616455 13.0685C0.616455 20.2849 6.46852 26.137 13.6849 26.137C20.9014 26.137 26.7534 20.2849 26.7534 13.0685C26.7534 5.85207 20.9014 0 13.6849 0ZM21.1439 16.1623C21.1076 16.9612 20.9805 17.5065 20.7951 17.9839C20.4052 18.9919 19.6084 19.7888 18.6004 20.1786C18.1232 20.3641 17.5776 20.4909 16.779 20.5274C15.9788 20.5639 15.7231 20.5727 13.6851 20.5727C11.647 20.5727 11.3915 20.5639 10.5911 20.5274C9.79248 20.4909 9.24689 20.3641 8.76971 20.1786C8.26879 19.9902 7.81533 19.6949 7.44044 19.313C7.05877 18.9383 6.76345 18.4847 6.57501 17.9839C6.38956 17.5067 6.26253 16.9612 6.22624 16.1625C6.18935 15.3621 6.18077 15.1065 6.18077 13.0685C6.18077 11.0305 6.18935 10.7749 6.22604 9.97466C6.26233 9.17582 6.38916 8.63044 6.57461 8.15305C6.76305 7.65233 7.05857 7.19868 7.44044 6.82399C7.81513 6.44212 8.26879 6.14679 8.76951 5.95835C9.24689 5.7729 9.79228 5.64608 10.5911 5.60959C11.3913 5.57309 11.647 5.56432 13.6849 5.56432C15.7229 5.56432 15.9786 5.57309 16.7788 5.60978C17.5776 5.64608 18.123 5.7729 18.6004 5.95815C19.1011 6.14659 19.5548 6.44212 19.9297 6.82399C20.3113 7.19888 20.6068 7.65233 20.7951 8.15305C20.9807 8.63044 21.1076 9.17582 21.1441 9.97466C21.1805 10.7749 21.1891 11.0305 21.1891 13.0685C21.1891 15.1065 21.1805 15.3621 21.1439 16.1623Z" fill="black"/>
</g>
<defs>
<clipPath id="clip0_237_489">
<rect width="26.137" height="26.137" fill="white" transform="translate(0.616455)"/>
</clipPath>
</defs>
</svg>
