<svg width="16" height="21" viewBox="0 0 16 21" fill="none" xmlns="http://www.w3.org/2000/svg">
<path d="M8 0.582031C3.865 0.582031 0.5 3.97036 0.5 8.1362C0.5 14.0554 7.295 20.167 7.58417 20.4237C7.70333 20.5295 7.85167 20.582 8 20.582C8.14833 20.582 8.29667 20.5295 8.41583 20.4245C8.705 20.167 15.5 14.0554 15.5 8.1362C15.5 3.97036 12.135 0.582031 8 0.582031ZM8 12.2487C5.7025 12.2487 3.83333 10.3795 3.83333 8.08203C3.83333 5.78453 5.7025 3.91536 8 3.91536C10.2975 3.91536 12.1667 5.78453 12.1667 8.08203C12.1667 10.3795 10.2975 12.2487 8 12.2487Z" fill="black"/>
</svg>
