<svg width="20" height="20" viewBox="0 0 20 20" fill="none" xmlns="http://www.w3.org/2000/svg">
<path fill-rule="evenodd" clip-rule="evenodd" d="M2.45562 3.8432L7.85875 9.24867C9.03719 10.4248 10.9635 10.4259 12.1429 9.24867L17.5461 3.8432C17.6005 3.78879 17.5925 3.69918 17.5294 3.65516C16.9783 3.27082 16.3078 3.04297 15.5855 3.04297H4.41617C3.69387 3.04297 3.02336 3.27086 2.47227 3.65516C2.40914 3.69918 2.40121 3.78879 2.45562 3.8432ZM1.01172 6.44738C1.01172 5.87941 1.15254 5.34277 1.40059 4.87109C1.43937 4.7973 1.5377 4.78238 1.59664 4.84133L6.93137 10.1761C8.6207 11.8679 11.38 11.8688 13.0704 10.1761L18.4051 4.84133C18.464 4.78238 18.5623 4.7973 18.6011 4.87109C18.8491 5.34277 18.99 5.87945 18.99 6.44738V13.5543C18.99 15.4329 17.4618 16.9588 15.5855 16.9588H4.41617C2.53992 16.9588 1.01172 15.4329 1.01172 13.5543V6.44738Z" fill="black"/>
</svg>
