<svg width="25" height="21" viewBox="0 0 25 21" fill="none" xmlns="http://www.w3.org/2000/svg">
<g clip-path="url(#clip0_242_497)">
<path fill-rule="evenodd" clip-rule="evenodd" d="M10.7143 19.25C10.7143 18.2835 11.5138 17.5 12.5 17.5H23.2143C24.2005 17.5 25 18.2835 25 19.25C25 20.2165 24.2005 21 23.2143 21H12.5C11.5138 21 10.7143 20.2165 10.7143 19.25ZM0 1.75C0 0.783492 0.799482 0 1.78571 0H23.2143C24.2005 0 25 0.783492 25 1.75C25 2.71649 24.2005 3.5 23.2143 3.5H1.78571C0.799482 3.5 0 2.71649 0 1.75ZM0 10.5C0 9.53351 0.799482 8.75 1.78571 8.75H23.2143C24.2005 8.75 25 9.53351 25 10.5C25 11.4665 24.2005 12.25 23.2143 12.25H1.78571C0.799482 12.25 0 11.4665 0 10.5Z" fill="white"/>
</g>
<defs>
<clipPath id="clip0_242_497">
<rect width="25" height="21" fill="white"/>
</clipPath>
</defs>
</svg>
