<svg width="82" height="82" viewBox="0 0 82 82" fill="none" xmlns="http://www.w3.org/2000/svg">
<g clip-path="url(#clip0_167_1716)">
<path d="M41 53.1719C41.884 53.1719 42.6016 52.4543 42.6016 51.5703C42.6016 50.6863 41.884 49.9688 41 49.9688C40.116 49.9688 39.3984 50.6863 39.3984 51.5703C39.3984 52.4543 40.116 53.1719 41 53.1719Z" fill="black"/>
<path d="M61.6046 44.7399C61.3224 44.2519 60.8038 43.9485 60.2401 43.9404C60.2326 43.9404 60.2257 43.9404 60.2182 43.9404C59.6627 43.9404 59.1465 44.2288 58.8544 44.7024L52.6965 54.709L42.6016 38.3049V19.2188H66.6251C67.2407 19.2188 67.8019 18.8659 68.0684 18.311C68.3355 17.7561 68.2604 17.0973 67.8757 16.6168L62.2696 9.60938L67.8757 2.60191C68.2604 2.12144 68.3355 1.46268 68.0684 0.907761C67.8019 0.352844 67.2407 0 66.6251 0H41.0001C40.1155 0 39.3985 0.716949 39.3985 1.60156V38.3049L29.3037 54.7096L23.1452 44.7024C22.8499 44.2225 22.3256 43.9329 21.7601 43.9404C21.1958 43.9479 20.6778 44.2519 20.395 44.7399L0.215289 79.5958C-0.0712408 80.0919 -0.0718665 80.7025 0.214038 81.1986C0.499941 81.6947 1.02921 82 1.60164 82H80.3985C80.971 82 81.5002 81.6947 81.7861 81.1986C82.072 80.7025 82.0714 80.0913 81.7842 79.5958L61.6046 44.7399ZM30.6875 58.5715C30.6894 58.5684 30.6913 58.5659 30.6931 58.5628L41.0001 41.8139L63.7585 78.7969H18.241L30.6875 58.5715ZM58.9682 8.60902C58.5003 9.19397 58.5003 10.0248 58.9682 10.6097L63.2925 16.0156H42.6016V3.20312H63.2925L58.9682 8.60902ZM21.8232 48.6656L27.4231 57.7651L14.4798 78.7969H4.37935L21.8232 48.6656ZM67.5197 78.7969L54.5771 57.7645L60.1769 48.6656L77.6208 78.7969H67.5197Z" fill="black"/>
<path d="M53.7967 74.8315C54.2603 75.5853 55.2469 75.8193 56.0001 75.3557C56.7533 74.8921 56.9886 73.9062 56.5244 73.1529L45.9797 56.0175C45.5168 55.2642 44.5302 55.029 43.7763 55.4926C43.0231 55.9568 42.7885 56.9428 43.252 57.696L53.7967 74.8315Z" fill="black"/>
</g>
<defs>
<clipPath id="clip0_167_1716">
<rect width="82" height="82" fill="white"/>
</clipPath>
</defs>
</svg>
