<svg width="94" height="95" viewBox="0 0 94 95" fill="none" xmlns="http://www.w3.org/2000/svg">
<path d="M46.9992 1.9187C41.0128 1.91661 35.0847 3.09417 29.5536 5.3841C24.0224 7.67404 18.9968 11.0314 14.7637 15.2645C10.5307 19.4975 7.1733 24.5232 4.88337 30.0543C2.59344 35.5854 1.41588 41.5136 1.41797 47.5C1.41588 53.4864 2.59344 59.4145 4.88337 64.9456C7.1733 70.4767 10.5307 75.5024 14.7637 79.7354C18.9968 83.9685 24.0224 87.3259 29.5536 89.6158C35.0847 91.9057 41.0128 93.0833 46.9992 93.0812C52.9856 93.0833 58.9138 91.9057 64.4449 89.6158C69.976 87.3259 75.0017 83.9685 79.2347 79.7354C83.4677 75.5024 86.8252 70.4767 89.1151 64.9456C91.405 59.4145 92.5826 53.4864 92.5805 47.5C92.5826 41.5136 91.405 35.5854 89.1151 30.0543C86.8252 24.5232 83.4677 19.4975 79.2347 15.2645C75.0017 11.0314 69.976 7.67404 64.4449 5.3841C58.9138 3.09417 52.9856 1.91661 46.9992 1.9187ZM46.9992 80.3312C45.6361 80.3344 44.3028 79.9328 43.1681 79.1775C42.0335 78.4222 41.1485 77.3471 40.6254 76.0884C40.1024 74.8296 39.9647 73.444 40.2298 72.1069C40.495 70.7699 41.151 69.5416 42.1149 68.5778C43.0787 67.614 44.307 66.9579 45.644 66.6927C46.9811 66.4276 48.3667 66.5653 49.6254 67.0884C50.8842 67.6115 51.9593 68.4964 52.7146 69.6311C53.4699 70.7657 53.8714 72.0991 53.8683 73.4621C53.8641 75.2826 53.139 77.0274 51.8517 78.3147C50.5644 79.6019 48.8197 80.327 46.9992 80.3312ZM55.3345 23.5937L52.7367 58.6562C52.7205 58.8986 52.6127 59.1258 52.4351 59.2915C52.2575 59.4573 52.0234 59.5493 51.7805 59.5487H42.218C41.975 59.5493 41.741 59.4573 41.5634 59.2915C41.3858 59.1258 41.2779 58.8986 41.2617 58.6562L38.6639 23.5937C38.5935 22.4557 38.7569 21.3154 39.1439 20.243C39.531 19.1706 40.1335 18.1887 40.9144 17.358C41.6953 16.5273 42.6381 15.8653 43.6845 15.4127C44.731 14.9602 45.8591 14.7268 46.9992 14.7268C48.1394 14.7268 49.2674 14.9602 50.3139 15.4127C51.3604 15.8653 52.3031 16.5273 53.084 17.358C53.865 18.1887 54.4675 19.1706 54.8545 20.243C55.2416 21.3154 55.4049 22.4557 55.3345 23.5937Z" fill="#FFC048"/>
</svg>
