<svg width="14" height="14" viewBox="0 0 14 14" fill="none" xmlns="http://www.w3.org/2000/svg">
<path d="M12.7316 11.415C12.7316 11.415 11.9563 12.168 11.7663 12.3887C11.4568 12.7153 11.0921 12.8696 10.6141 12.8696C10.5681 12.8696 10.5191 12.8696 10.4731 12.8665C9.56302 12.8091 8.71727 12.4583 8.08295 12.1589C6.34853 11.3303 4.82555 10.1539 3.55998 8.66305C2.51504 7.42015 1.81637 6.27099 1.35365 5.03716C1.06867 4.28417 0.964481 3.69749 1.01045 3.14408C1.04109 2.79026 1.17898 2.49693 1.43333 2.24593L2.47827 1.21471C2.62842 1.0756 2.78776 1 2.94405 1C3.1371 1 3.29338 1.11492 3.39144 1.21169C3.3945 1.21471 3.39757 1.21773 3.40063 1.22076C3.58756 1.39313 3.76529 1.57155 3.95221 1.76207C4.04721 1.85884 4.14527 1.95561 4.24333 2.05541L5.07989 2.88099C5.40471 3.20154 5.40471 3.4979 5.07989 3.81845C4.99103 3.90615 4.90522 3.99385 4.81636 4.07853C4.55895 4.3386 4.76116 4.13905 4.49456 4.37493C4.48843 4.38097 4.4823 4.384 4.47924 4.39005C4.21571 4.65012 4.26474 4.90414 4.31989 5.07652C4.32296 5.08559 4.32602 5.09466 4.32909 5.10373C4.54666 5.62388 4.85309 6.11378 5.31887 6.69743L5.32193 6.70045C6.16769 7.72865 7.05942 8.53003 8.04307 9.14392C8.16871 9.22255 8.29741 9.28605 8.41998 9.34653C8.5303 9.40097 8.63449 9.45238 8.72335 9.50681C8.73561 9.51286 8.74787 9.52193 8.76012 9.52798C8.86431 9.57939 8.96237 9.60358 9.06349 9.60358C9.31783 9.60358 9.47718 9.44633 9.52928 9.39492L10.1299 8.80216C10.2341 8.69934 10.3996 8.57535 10.5926 8.57535C10.7826 8.57535 10.9389 8.69329 11.0339 8.79611C11.037 8.79913 11.037 8.79913 11.04 8.80216L12.7285 10.4684C13.0441 10.7769 12.7316 11.415 12.7316 11.415Z" stroke="white" stroke-width="1.26999" stroke-linecap="round" stroke-linejoin="round"/>
</svg>
