<svg width="27" height="27" viewBox="0 0 27 27" fill="none" xmlns="http://www.w3.org/2000/svg">
<g clip-path="url(#clip0_237_484)">
<path fill-rule="evenodd" clip-rule="evenodd" d="M0.410889 13.0685C0.410889 5.85121 6.2621 0 13.4794 0C20.6967 0 26.5479 5.85121 26.5479 13.0685C26.5479 20.2858 20.6967 26.137 13.4794 26.137C6.2621 26.137 0.410889 20.2858 0.410889 13.0685ZM20.5037 5.38281L14.9092 11.8859H14.9088L20.9934 20.7409H16.5185L12.4212 14.778L7.29136 20.7409H5.96558L11.8326 13.9214L5.96558 5.38281H10.4405L14.3203 11.0294L19.1779 5.38281H20.5037ZM9.80537 6.38085H7.76905L17.1422 19.7883H19.1785L9.80537 6.38085Z" fill="black"/>
</g>
<defs>
<clipPath id="clip0_237_484">
<rect width="26.137" height="26.137" fill="white" transform="translate(0.410889)"/>
</clipPath>
</defs>
</svg>
