<svg width="86" height="85" viewBox="0 0 86 85" fill="none" xmlns="http://www.w3.org/2000/svg">
<g clip-path="url(#clip0_286_963)">
<path d="M43 85C66.4721 85 85.5 65.9721 85.5 42.5C85.5 19.0279 66.4721 0 43 0C19.5279 0 0.5 19.0279 0.5 42.5C0.5 65.9721 19.5279 85 43 85Z" fill="#32BA7C"/>
<path d="M32.1406 61.6719L53.9939 83.5252C72.0933 78.6987 85.5002 62.2082 85.5002 42.5C85.5002 42.0978 85.5002 41.6955 85.5002 41.2933L68.3394 25.4731L32.1406 61.6719Z" fill="#0AA06E"/>
<path d="M44.0735 52.019C45.9504 53.896 45.9504 57.1137 44.0735 58.9907L40.1854 62.8787C38.3085 64.7556 35.0908 64.7556 33.2138 62.8787L16.187 45.7178C14.3101 43.8408 14.3101 40.6232 16.187 38.7462L20.075 34.8582C21.952 32.9812 25.1697 32.9812 27.0466 34.8582L44.0735 52.019Z" fill="white"/>
<path d="M58.9557 22.3897C60.8327 20.5127 64.0504 20.5127 65.9273 22.3897L69.8154 26.2777C71.6923 28.1546 71.6923 31.3723 69.8154 33.2493L40.3201 62.6105C38.4431 64.4875 35.2254 64.4875 33.3485 62.6105L29.4605 58.7225C27.5835 56.8455 27.5835 53.6278 29.4605 51.7509L58.9557 22.3897Z" fill="white"/>
</g>
<defs>
<clipPath id="clip0_286_963">
<rect width="85" height="85" fill="white" transform="translate(0.5)"/>
</clipPath>
</defs>
</svg>
