<svg width="82" height="82" viewBox="0 0 82 82" fill="none" xmlns="http://www.w3.org/2000/svg">
<path d="M60.8687 43.05C60.398 47.6131 58.376 51.8766 55.1405 55.1286C51.905 58.3805 47.6518 60.424 43.0911 60.9178C42.9993 60.9167 42.9081 60.934 42.8231 60.9686C42.738 61.0033 42.6607 61.0546 42.5958 61.1195C42.5308 61.1845 42.4795 61.2617 42.4449 61.3468C42.4103 61.4319 42.393 61.523 42.3941 61.6148V76.5306C42.3941 76.9003 42.2472 77.2549 41.9858 77.5163C41.7244 77.7778 41.3698 77.9246 41.0001 77.9246C40.6304 77.9246 40.2758 77.7778 40.0144 77.5163C39.753 77.2549 39.6061 76.9003 39.6061 76.5306V71.1186C39.5928 70.9382 39.5151 70.7685 39.3872 70.6406C39.2592 70.5126 39.0896 70.4349 38.9091 70.4216C32.7092 69.9199 26.8283 67.464 22.113 63.4073C17.3977 59.3507 14.0911 53.9025 12.6691 47.847C12.6162 47.6676 12.5999 47.4794 12.6212 47.2936C12.6426 47.1077 12.7011 46.9281 12.7933 46.7653C12.8855 46.6026 13.0096 46.4601 13.158 46.3463C13.3065 46.2325 13.4763 46.1497 13.6574 46.1029C13.8385 46.0561 14.0272 46.0462 14.2122 46.0739C14.3972 46.1016 14.5748 46.1662 14.7343 46.2639C14.8938 46.3616 15.032 46.4904 15.1407 46.6426C15.2494 46.7949 15.3263 46.9674 15.3669 47.15C16.6311 52.5855 19.5788 57.4833 23.7899 61.1452C28.001 64.807 33.2605 67.0462 38.8189 67.5434C38.9993 67.6336 39.1715 67.5434 39.3437 67.3712C39.4347 67.3198 39.5083 67.2424 39.5551 67.1489C39.6018 67.0554 39.6196 66.9501 39.6061 66.8464V61.6148C39.6072 61.523 39.5899 61.4319 39.5553 61.3468C39.5206 61.2617 39.4693 61.1845 39.4044 61.1195C39.3395 61.0546 39.2622 61.0033 39.1771 60.9686C39.0921 60.934 39.0009 60.9167 38.9091 60.9178C34.3702 60.4122 30.1346 58.3897 26.8879 55.1778C23.6418 51.9154 21.6153 47.6367 21.1479 43.0582C21.1213 42.8907 21.0372 42.7377 20.91 42.6254C20.7828 42.5132 20.6204 42.4488 20.4509 42.4432H5.5351C5.15451 42.4432 4.78951 42.292 4.5204 42.0229C4.25128 41.7538 4.1001 41.3888 4.1001 41.0082C4.1001 40.6276 4.25128 40.2627 4.5204 39.9935C4.78951 39.7244 5.15451 39.5732 5.5351 39.5732H11.2013C11.3704 39.5662 11.5319 39.5012 11.6588 39.3893C11.7857 39.2773 11.8702 39.1251 11.8983 38.9582C12.2704 32.7675 14.5706 26.8485 18.4763 22.031C22.3821 17.2136 27.6975 13.7392 33.6775 12.095C34.0396 12.0263 34.4143 12.0987 34.7248 12.2975C35.0352 12.4962 35.2578 12.8062 35.347 13.1639C35.4361 13.5215 35.3851 13.8997 35.2042 14.2209C35.0234 14.5421 34.7265 14.782 34.3745 14.8912C29.0245 16.3339 24.2586 19.4112 20.7422 23.6935C17.2257 27.9759 15.1344 33.2494 14.7601 38.7778C14.737 38.8797 14.7379 38.9855 14.7628 39.0869C14.7877 39.1884 14.8358 39.2826 14.9035 39.3622C14.9711 39.4418 15.0564 39.5045 15.1525 39.5454C15.2486 39.5863 15.3529 39.6042 15.4571 39.5978H20.4181C20.5876 39.5923 20.75 39.5279 20.8772 39.4157C21.0044 39.3034 21.0885 39.1504 21.1151 38.9828C21.5794 34.4113 23.6006 30.1383 26.8401 26.8794C30.0795 23.6205 34.3405 21.5739 38.9091 21.0822C39.0009 21.0833 39.0921 21.0661 39.1771 21.0314C39.2622 20.9968 39.3395 20.9455 39.4044 20.8805C39.4693 20.8156 39.5206 20.7383 39.5553 20.6533C39.5899 20.5682 39.6072 20.4771 39.6061 20.3852V5.46944C39.6061 5.09973 39.753 4.74516 40.0144 4.48373C40.2758 4.22231 40.6304 4.07544 41.0001 4.07544C41.3698 4.07544 41.7244 4.22231 41.9858 4.48373C42.2472 4.74516 42.3941 5.09973 42.3941 5.46944V22.386C42.4035 22.5834 42.3715 22.7806 42.3002 22.9649C42.2289 23.1492 42.1199 23.3166 41.9802 23.4563C41.8405 23.5961 41.6731 23.7051 41.4888 23.7763C41.3045 23.8476 41.1073 23.8796 40.9099 23.8702C25.7481 23.8702 18.1713 42.435 28.8887 53.1606C39.6061 63.8862 57.9003 56.211 58.1627 41C58.1605 40.8164 58.195 40.6341 58.2643 40.464C58.3336 40.2939 58.4362 40.1393 58.5661 40.0094C58.696 39.8795 58.8505 39.7769 59.0206 39.7077C59.1908 39.6384 59.373 39.6038 59.5567 39.606H76.4651C76.8457 39.606 77.2107 39.7572 77.4798 40.0263C77.7489 40.2955 77.9001 40.6604 77.9001 41.041C77.9001 41.4216 77.7489 41.7866 77.4798 42.0557C77.2107 42.3248 76.8457 42.476 76.4651 42.476H70.8891C70.7161 42.4691 70.5471 42.5291 70.4172 42.6437C70.2874 42.7583 70.2067 42.9185 70.1921 43.091C69.7396 49.3203 67.3305 55.2474 63.3088 60.026C59.2871 64.8046 53.8584 68.1904 47.7979 69.7C45.9693 70.1346 45.3379 67.3466 47.1829 66.912C52.5953 65.5663 57.4491 62.5565 61.0606 58.3066C64.672 54.0567 66.8592 48.7808 67.3139 43.2222C67.337 43.1204 67.3361 43.0146 67.3112 42.9131C67.2863 42.8117 67.2381 42.7175 67.1705 42.6379C67.1029 42.5583 67.0176 42.4956 66.9215 42.4547C66.8254 42.4138 66.7211 42.3958 66.6169 42.4022H61.5657C61.3961 42.4078 61.2338 42.4722 61.1066 42.5844C60.9794 42.6967 60.8953 42.8497 60.8687 43.0172V43.05ZM72.1601 19.8604L62.0823 29.8808C61.836 30.1481 61.4942 30.3073 61.1311 30.3236H54.4153C54.232 30.3397 54.055 30.3987 53.8987 30.4958L41.9595 42.5252C41.691 42.7761 41.3357 42.9129 40.9684 42.9071C40.601 42.9012 40.2503 42.7531 39.99 42.4938C39.7296 42.2346 39.5801 41.8844 39.5727 41.5171C39.5653 41.1498 39.7008 40.7939 39.9505 40.5244L51.8897 28.4868C51.97 28.4466 52.0373 28.3844 52.0837 28.3075C52.1302 28.2306 52.1539 28.1421 52.1521 28.0522V21.32C52.1504 21.1261 52.188 20.9338 52.2627 20.7548C52.3374 20.5758 52.4476 20.4138 52.5867 20.2786L62.6071 10.2664C62.8006 10.0573 63.0526 9.91119 63.3303 9.84727C63.608 9.78335 63.8985 9.80453 64.1639 9.90807C64.4294 10.0116 64.6576 10.1927 64.8186 10.4277C64.9797 10.6628 65.0663 10.9409 65.0671 11.2258V16.7198C65.0787 16.9009 65.1558 17.0715 65.2841 17.1998C65.4124 17.3281 65.583 17.4052 65.7641 17.4168H71.1679C71.4561 17.4093 71.7399 17.4887 71.9824 17.6448C72.2248 17.8009 72.4146 18.0264 72.527 18.2919C72.6394 18.5574 72.6692 18.8507 72.6125 19.1334C72.5559 19.4161 72.4153 19.6752 72.2093 19.8768L72.1601 19.8604ZM60.6801 27.2404L66.5185 21.402C66.6199 21.3083 66.6916 21.1869 66.7247 21.0528C66.7577 20.9187 66.7506 20.7778 66.7044 20.6477C66.6581 20.5176 66.5746 20.4039 66.4643 20.3208C66.354 20.2377 66.2217 20.1888 66.0839 20.1802H63.6239C63.2431 20.1891 62.874 20.048 62.5963 19.7872C62.3187 19.5264 62.1547 19.1669 62.1397 18.7862V16.4C62.139 16.2588 62.0969 16.1209 62.0186 16.0034C61.9403 15.8859 61.8292 15.7939 61.6991 15.7389C61.569 15.6839 61.4257 15.6683 61.2868 15.694C61.148 15.7197 61.0197 15.7855 60.9179 15.8834L55.1779 21.7218C55.0247 21.8553 54.9304 22.044 54.9155 22.2466V26.7812C54.9144 26.8731 54.9317 26.9642 54.9663 27.0493C55.0009 27.1343 55.0522 27.2116 55.1172 27.2765C55.1821 27.3415 55.2594 27.3928 55.3445 27.4274C55.4295 27.4621 55.5207 27.4793 55.6125 27.4782H60.2291C60.4095 27.4782 60.5817 27.4782 60.6637 27.2978L60.6801 27.2404ZM52.8409 41.0164C52.8441 43.361 52.1518 45.6538 50.8514 47.6047C49.551 49.5556 47.7011 51.0769 45.5358 51.976C43.3705 52.875 40.9871 53.1116 38.6873 52.6556C36.3875 52.1995 34.2747 51.0715 32.6163 49.4142C30.9579 47.757 29.8284 45.6449 29.3708 43.3455C28.9132 41.046 29.148 38.6625 30.0456 36.4965C30.9432 34.3306 32.4632 32.4796 34.4132 31.1779C36.3632 29.8762 38.6555 29.1822 41.0001 29.1838C41.3524 29.2108 41.6815 29.3699 41.9216 29.6291C42.1617 29.8883 42.2951 30.2286 42.2951 30.5819C42.2951 30.9353 42.1617 31.2756 41.9216 31.5348C41.6815 31.794 41.3524 31.953 41.0001 31.98C38.6078 31.98 36.3136 32.9304 34.622 34.6219C32.9304 36.3135 31.9801 38.6078 31.9801 41C31.9801 43.3923 32.9304 45.6866 34.622 47.3781C36.3136 49.0697 38.6078 50.02 41.0001 50.02C46.2317 50.02 49.7167 46.1004 49.9709 41C49.9627 40.8022 49.9953 40.6048 50.0667 40.4201C50.1381 40.2354 50.2467 40.0674 50.3858 39.9265C50.5249 39.7856 50.6916 39.6748 50.8753 39.601C51.0591 39.5273 51.256 39.4921 51.454 39.4978C51.6519 39.5034 51.8465 39.5497 52.0258 39.6338C52.2051 39.7179 52.3651 39.838 52.496 39.9866C52.6268 40.1352 52.7257 40.3091 52.7864 40.4976C52.8472 40.686 52.8685 40.885 52.8491 41.082L52.8409 41.0164Z" fill="black"/>
</svg>
