<svg width="27" height="27" viewBox="0 0 27 27" fill="none" xmlns="http://www.w3.org/2000/svg">
<g clip-path="url(#clip0_237_478)">
<path d="M11.4614 15.1772L15.0862 13.0742L11.4614 10.9609V15.1772Z" fill="black"/>
<path d="M13.2741 0C10.6894 0 8.1627 0.766454 6.0136 2.20244C3.8645 3.63842 2.18948 5.67944 1.20035 8.0674C0.211229 10.4554 -0.047571 13.083 0.45668 15.618C0.960931 18.1531 2.20558 20.4817 4.03325 22.3093C5.86091 24.137 8.18949 25.3816 10.7245 25.8859C13.2596 26.3901 15.8872 26.1313 18.2752 25.1422C20.6631 24.1531 22.7041 22.4781 24.1401 20.329C25.5761 18.1799 26.3426 15.6532 26.3426 13.0685C26.3426 9.60251 24.9657 6.27849 22.5149 3.82767C20.0641 1.37686 16.74 0 13.2741 0ZM20.1522 15.3813C20.1524 15.7231 20.0853 16.0616 19.9547 16.3774C19.824 16.6933 19.6324 16.9803 19.3908 17.222C19.1492 17.4638 18.8623 17.6556 18.5466 17.7865C18.2308 17.9173 17.8924 17.9847 17.5506 17.9847H8.99757C8.65577 17.9847 8.31732 17.9173 8.00156 17.7865C7.6858 17.6556 7.39892 17.4638 7.15731 17.222C6.9157 16.9803 6.7241 16.6933 6.59346 16.3774C6.46281 16.0616 6.39569 15.7231 6.39591 15.3813V10.7557C6.39569 10.4139 6.46281 10.0754 6.59346 9.75957C6.7241 9.44373 6.9157 9.15672 7.15731 8.91495C7.39892 8.67318 7.6858 8.48139 8.00156 8.35054C8.31732 8.21968 8.65577 8.15233 8.99757 8.15233H17.5506C17.8924 8.15233 18.2308 8.21968 18.5466 8.35054C18.8623 8.48139 19.1492 8.67318 19.3908 8.91495C19.6324 9.15672 19.824 9.44373 19.9547 9.75957C20.0853 10.0754 20.1524 10.4139 20.1522 10.7557V15.3813Z" fill="black"/>
</g>
<defs>
<clipPath id="clip0_237_478">
<rect width="26.137" height="26.137" fill="white" transform="translate(0.205566)"/>
</clipPath>
</defs>
</svg>
