<svg width="100" height="100" viewBox="0 0 100 100" fill="none" xmlns="http://www.w3.org/2000/svg">
<path d="M22.4326 10.293L10.3076 22.418C10.1201 22.6055 10.0146 22.8594 10.0146 23.125V40.2725C10.0146 40.5381 10.1201 40.792 10.3076 40.9795L22.4326 53.1045C22.6201 53.292 22.874 53.3975 23.1396 53.3975H40.2871C40.5527 53.3975 40.8066 53.292 40.9941 53.1045L53.1191 40.9795C53.3066 40.792 53.4121 40.5381 53.4121 40.2725V23.125C53.4121 22.8594 53.3066 22.6055 53.1191 22.418L40.9941 10.293C40.8066 10.1055 40.5527 10 40.2871 10H23.1396C22.874 10 22.6201 10.1055 22.4326 10.293ZM50.6371 22.764L41.8156 26.4269L36.9844 21.5958L40.6345 12.7615L50.6371 22.764ZM51.4121 38.7566L42.5811 35.1071V28.2754L51.4121 24.6086V38.7566ZM40.6523 50.6182L36.9852 41.7862L41.8163 36.9542L50.6611 40.6094L40.6523 50.6182ZM12.7836 40.6273L21.6265 36.9556L26.4579 41.787L22.7981 50.6418L12.7836 40.6273ZM12.0146 24.6197L20.8604 28.2748V35.1074L12.0146 38.7803V24.6197ZM28.0508 22.8311H35.3916L40.5811 28.0205V35.3613L35.3916 40.5518H28.0508L22.8604 35.3613V28.0205L28.0508 22.8311ZM28.3051 42.5518H35.1367L38.8096 51.3975H24.6491L28.3051 42.5518ZM35.1373 20.8311H28.3047L24.6379 12H38.786L35.1373 20.8311ZM26.4564 21.5972L21.6252 26.4277L12.7807 22.773L22.7891 12.7646L26.4564 21.5972Z" fill="white"/>
<path d="M35.4375 31.0518C35.6328 31.2471 35.8887 31.3447 36.1445 31.3447C36.4004 31.3447 36.6563 31.2471 36.8516 31.0518C37.2422 30.6611 37.2422 30.0283 36.8516 29.6377L33.7744 26.5605C33.3838 26.1699 32.751 26.1699 32.3604 26.5605C31.9697 26.9512 31.9697 27.584 32.3604 27.9746L35.4375 31.0518Z" fill="white"/>
<path d="M41.7681 64.881C41.7698 64.8887 41.7687 64.8966 41.7705 64.9042L46.3896 84.6093C46.3974 84.6424 46.415 84.6707 46.4259 84.7023C46.4368 84.7346 46.4479 84.7646 46.4622 84.7956C46.5117 84.9028 46.5726 85.003 46.6547 85.0855C46.6554 85.0861 46.6556 85.0871 46.6562 85.0878C46.6569 85.0886 46.6579 85.0887 46.6585 85.0893C46.7411 85.1715 46.8413 85.2324 46.9484 85.2819C46.9794 85.2961 47.0096 85.3073 47.0417 85.3182C47.0733 85.329 47.1017 85.3466 47.1347 85.3544L66.8398 89.9736C66.915 89.9909 66.9902 89.9993 67.0653 89.9996C67.066 89.9996 67.0667 89.9999 67.0674 89.9999C67.0678 89.9999 67.0691 89.9997 67.0695 89.9997C67.1401 89.9996 67.2116 89.9919 67.2832 89.9765C67.3125 89.9702 67.334 89.9505 67.3621 89.9417C67.4259 89.9218 67.4834 89.8947 67.5423 89.8622C67.602 89.8295 67.6569 89.7956 67.7078 89.752C67.7287 89.7343 67.7558 89.7265 67.7754 89.707L89.707 67.7753C89.9521 67.5312 90.0527 67.1767 89.9736 66.8398L85.3545 47.1347C85.2676 46.7656 84.9785 46.4765 84.6094 46.3896L64.9043 41.7705C64.8968 41.7687 64.8893 41.7697 64.8819 41.7682C64.8638 41.7644 64.8453 41.7655 64.8269 41.7627C64.723 41.7472 64.6198 41.7488 64.518 41.7652C64.5019 41.7678 64.4868 41.7622 64.4707 41.7656C64.4615 41.7675 64.4551 41.774 64.446 41.7761C64.3341 41.8025 64.2287 41.8478 64.1315 41.9113C64.11 41.9253 64.0922 41.9417 64.0719 41.9573C64.0374 41.9838 63.9999 42.0057 63.9687 42.0371L42.0371 63.9687C42.0061 63.9996 41.9843 64.0367 41.958 64.0709C41.9422 64.0913 41.9258 64.1092 41.9116 64.1309C41.8473 64.229 41.8016 64.3356 41.7751 64.4487C41.7732 64.4567 41.7673 64.4625 41.7656 64.4706C41.7626 64.4849 41.7677 64.4984 41.7653 64.5126C41.7478 64.6176 41.746 64.7242 41.763 64.8316C41.7656 64.8482 41.7646 64.8647 41.7681 64.881ZM64.0761 44.7578L65.511 51.608L51.6081 65.511L44.7579 64.0761L64.0761 44.7578ZM80.2105 66.1575L87.0324 67.6218L67.6529 87.0013L66.1603 80.2078L80.2105 66.1575ZM54.9844 78.1738L64.2087 80.6447L65.751 87.664L49.3408 83.8173L54.9844 78.1738ZM64.8056 78.7343L55.5019 76.2421L53.0088 66.9384L66.9385 53.0087L76.2422 55.5019L78.7344 64.8056L64.8056 78.7343ZM76.7597 53.5703L67.442 51.0734L65.9762 44.0761L82.4026 47.9266L76.7597 53.5703ZM51.0734 67.442L53.5703 76.7597L47.9267 82.4033L44.0761 65.9762L51.0734 67.442ZM87.6545 65.7101L80.6439 64.2053L78.1737 54.9843L83.8172 49.3401L87.6545 65.7101Z" fill="white"/>
<path d="M73.1143 59.2129C72.9688 58.6797 72.4199 58.3721 71.8858 58.5117C71.3535 58.6573 71.0391 59.2071 71.1846 59.7403L72.3946 64.1719C72.5156 64.6162 72.919 64.9082 73.3584 64.9082C73.4463 64.9082 73.5342 64.8965 73.6231 64.8731C74.1553 64.7276 74.4698 64.1778 74.3242 63.6446L73.1143 59.2129Z" fill="white"/>
<path d="M89 14.835H85.1641V11C85.1641 10.4473 84.7168 10 84.1641 10C83.6113 10 83.1641 10.4473 83.1641 11V14.835H79.3291C78.7764 14.835 78.3291 15.2822 78.3291 15.835C78.3291 16.3877 78.7764 16.835 79.3291 16.835H83.1641V20.6709C83.1641 21.2236 83.6113 21.6709 84.1641 21.6709C84.7168 21.6709 85.1641 21.2236 85.1641 20.6709V16.835H89C89.5527 16.835 90 16.3877 90 15.835C90 15.2822 89.5527 14.835 89 14.835Z" fill="white"/>
<path d="M72.4629 26.8057H68.6279V22.9707C68.6279 22.418 68.1807 21.9707 67.6279 21.9707C67.0752 21.9707 66.6279 22.418 66.6279 22.9707V26.8057H62.792C62.2393 26.8057 61.792 27.2529 61.792 27.8057C61.792 28.3584 62.2393 28.8057 62.792 28.8057H66.6279V32.6416C66.6279 33.1943 67.0752 33.6416 67.6279 33.6416C68.1807 33.6416 68.6279 33.1943 68.6279 32.6416V28.8057H72.4629C73.0156 28.8057 73.4629 28.3584 73.4629 27.8057C73.4629 27.2529 73.0156 26.8057 72.4629 26.8057Z" fill="white"/>
<path d="M11 64.9082H14.8359V68.7432C14.8359 69.2959 15.2832 69.7432 15.8359 69.7432C16.3887 69.7432 16.8359 69.2959 16.8359 68.7432V64.9082H20.6709C21.2236 64.9082 21.6709 64.4609 21.6709 63.9082C21.6709 63.3555 21.2236 62.9082 20.6709 62.9082H16.8359V59.0723C16.8359 58.5195 16.3887 58.0723 15.8359 58.0723C15.2832 58.0723 14.8359 58.5195 14.8359 59.0723V62.9082H11C10.4473 62.9082 10 63.3555 10 63.9082C10 64.4609 10.4473 64.9082 11 64.9082Z" fill="white"/>
<path d="M26.6963 90C27.249 90 27.6963 89.5527 27.6963 89V85.1641H31.5312C32.084 85.1641 32.5312 84.7168 32.5312 84.1641C32.5312 83.6113 32.084 83.1641 31.5312 83.1641H27.6963V79.3291C27.6963 78.7764 27.249 78.3291 26.6963 78.3291C26.1436 78.3291 25.6963 78.7764 25.6963 79.3291V83.1641H21.8604C21.3076 83.1641 20.8604 83.6113 20.8604 84.1641C20.8604 84.7168 21.3076 85.1641 21.8604 85.1641H25.6963V89C25.6963 89.5527 26.1436 90 26.6963 90Z" fill="white"/>
</svg>
