<svg width="100" height="100" viewBox="0 0 100 100" fill="none" xmlns="http://www.w3.org/2000/svg">
<g clip-path="url(#clip0_197_698)">
<path d="M47.6994 81.4759C47.5777 79.8161 46.1332 78.552 44.4578 78.6772L43.7511 78.729C43.4337 75.6069 42.8765 72.5506 42.0884 69.6248C40.9974 65.5754 39.9941 64.2371 35.4343 58.5821C35.4206 58.5651 35.4065 58.5485 35.3921 58.5321C33.6839 56.5046 32.3545 55.9762 23.506 51.0375C21.4847 49.9092 19.6644 50.2012 18.3333 50.9834L18.1888 50.6364C18.3351 50.2055 18.4267 49.759 18.4595 49.3022L19.2705 38.0527C19.6232 33.161 13.7632 30.4413 10.2485 33.7339C9.04401 32.8532 7.5522 32.5577 5.92563 32.9479C5.9104 32.9517 5.89516 32.9554 5.88012 32.9597C1.92364 34.0442 1.62286 37.9083 2.06876 40.0207C2.07443 40.0482 2.08087 40.0753 2.08849 40.1025L8.12076 62.2861C8.99011 66.3183 11.9208 68.5211 13.1437 69.2824C13.1638 69.2947 13.1837 69.3068 13.2042 69.3182L20.2466 73.2483C22.4494 74.4778 24.2773 76.62 24.468 79.2208L24.5352 80.1368L23.8824 80.1846C22.2127 80.3069 20.9607 81.7575 21.0834 83.4263L22.089 97.1563C22.2056 98.751 23.5498 100 25.1488 100H31.5323C32.3415 100 32.9971 99.3446 32.9971 98.5354C32.9971 97.7262 32.3415 97.0705 31.5323 97.0705H25.1486C25.0766 97.0705 25.016 97.0145 25.0107 96.9426L24.4668 89.5177L45.2396 87.9956L45.8953 96.9455C45.8961 96.958 45.899 96.9961 45.8644 97.0332C45.8299 97.0703 45.7916 97.0703 45.7789 97.0703H38.3681C37.5589 97.0703 36.9032 97.726 36.9032 98.5352C36.9032 99.3444 37.5589 100 38.3681 100H45.7789C47.5465 100 48.9465 98.4951 48.817 96.7315C48.6947 95.0633 47.8215 83.1452 47.6994 81.4759ZM16.3484 37.8421L15.8339 44.9773C15.8331 44.9754 12.1142 36.0132 12.1142 36.0132C13.6524 34.3274 16.5156 35.5251 16.3484 37.8421ZM21.6742 70.6902L14.6638 66.7779C13.7392 66.1961 11.5966 64.5644 10.978 61.638C10.9727 61.6124 10.9665 61.587 10.9598 61.562C10.9591 61.5591 10.9583 61.5564 10.9575 61.5536L4.92757 39.3781C4.81293 38.804 4.47191 36.4007 6.63208 35.7915C8.38502 35.3827 9.32351 36.5738 9.87605 38.2759C9.89246 38.3306 16.1417 53.343 16.1636 53.3958C15.5073 54.9102 15.4499 57.1583 17.5663 58.7624C19.8377 60.4841 25.2334 64.6076 25.2877 64.649C25.9322 65.1418 26.8514 65.0154 27.341 64.3746C27.8324 63.7318 27.7094 62.8124 27.0666 62.3212C27.0125 62.2796 21.6119 58.1528 19.3361 56.4276C18.3306 55.6657 18.6943 54.76 19.0005 54.2882L18.9906 54.3026L18.9892 54.3016C18.9974 54.2895 19.007 54.2788 19.0148 54.2665C19.2843 53.8587 20.3021 52.6043 22.0781 53.5958C30.7194 58.4187 31.8477 58.8648 33.171 60.4431C33.1727 60.4452 33.1745 60.4472 33.1762 60.4491C37.7112 66.0736 38.3286 66.9312 39.2595 70.3869C39.9997 73.135 40.5263 76.0067 40.829 78.943C38.6944 79.0995 29.0225 79.8081 27.4565 79.9227L27.3895 79.0071C27.1281 75.4381 24.7855 72.4268 21.6742 70.6902ZM24.2527 86.5956L24.0047 83.212C24.0014 83.1548 24.043 83.1107 24.0959 83.1065C26.7123 82.9149 42.3992 81.7655 44.672 81.5989C44.7291 81.5977 44.7736 81.639 44.7775 81.6895L44.7777 81.6903C44.8265 82.3558 44.9734 84.3616 45.0255 85.0738L24.2527 86.5956Z" fill="white"/>
<path d="M94.1201 32.9596C94.105 32.9555 94.0898 32.9516 94.0746 32.9479C92.4482 32.5578 90.9564 32.8534 89.7519 33.7338C86.2101 30.4149 80.379 33.1889 80.7297 38.0524L81.5405 49.3023C81.5735 49.7593 81.6651 50.2056 81.8114 50.6363L81.667 50.9832C80.3356 50.2012 78.5147 49.9093 76.494 51.0375C67.599 56.0012 66.3019 56.5119 64.5839 58.5602C64.5779 58.5674 64.5718 58.5748 64.5659 58.5821C60.0059 64.237 59.0028 65.5753 57.9118 69.6247C57.1239 72.5498 56.5665 75.6062 56.2491 78.7289L55.5426 78.6772C53.9028 78.5529 52.425 79.7822 52.3008 81.476C52.2535 82.1223 51.2322 96.0615 51.183 96.7312C51.0535 98.4939 52.4528 99.9998 54.2213 99.9998H74.8516C76.4504 99.9998 77.7944 98.7506 77.9112 97.156L78.917 83.426C79.042 81.726 77.7528 80.3049 76.1184 80.1844H76.1182L75.465 80.1365L75.5322 79.2205C75.7227 76.6226 77.5477 74.4795 79.7538 73.248L86.7962 69.3179C86.8165 69.3066 86.8366 69.2947 86.8567 69.2822C88.0794 68.5208 91.0099 66.3181 91.8796 62.2858L97.9119 40.1022C97.9193 40.0751 97.9258 40.0479 97.9316 40.0204C98.3773 37.9085 98.0764 34.0442 94.1201 32.9596ZM87.8858 36.0133C87.8858 36.0133 84.1669 44.9757 84.1661 44.9777L83.6516 37.8421C83.4862 35.5481 86.33 34.3086 87.8858 36.0133ZM74.9893 96.9421C74.984 97.014 74.9234 97.0703 74.8514 97.0703H54.2211C54.2086 97.0703 54.1702 97.0703 54.1356 97.033C54.101 96.996 54.1039 96.958 54.1047 96.9455L54.7604 87.9956L75.5332 89.5175L74.9893 96.9421ZM75.9043 83.1067C75.9557 83.1096 75.9986 83.1545 75.9953 83.2121L75.7473 86.5956L54.9746 85.0737L55.2225 81.6903C55.2262 81.6379 55.2778 81.5994 55.3284 81.5989C59.82 81.928 53.8789 81.4928 64.846 82.2963L75.9043 83.1067ZM95.0726 39.378L89.0474 61.5356C89.0431 61.5512 89.038 61.57 89.0341 61.5856C89.03 61.603 89.0257 61.6206 89.022 61.6382C88.4032 64.5647 86.2608 66.1964 85.3362 66.778L78.3258 70.6902C76.4936 71.7126 75.4979 72.741 74.4855 74.0683C74.4854 74.0685 74.4854 74.0685 74.4854 74.0687C73.3902 75.5051 72.7418 77.2127 72.6103 79.0068L72.5431 79.9227C69.1101 79.6711 60.3493 79.0293 59.1708 78.943C59.4737 76.006 60.0001 73.1341 60.7403 70.3869C61.6722 66.9276 62.2899 66.0714 66.8374 60.4323C68.1574 58.8622 69.3011 58.4073 77.9215 53.5955C79.6991 52.6035 80.7155 53.8584 80.9764 54.2527C80.984 54.2647 80.9932 54.275 81.001 54.2865L80.9993 54.2877C81.3055 54.7596 81.6694 55.6653 80.6637 56.4272C78.3877 58.1524 72.9873 62.2792 72.9332 62.3208C72.2904 62.812 72.1674 63.7313 72.6588 64.3741C73.1502 65.0173 74.0697 65.1395 74.7121 64.6485C74.7664 64.6071 80.162 60.4838 82.4335 58.7622C84.5499 57.1578 84.4925 54.9098 83.8364 53.3953C83.8587 53.342 90.1077 38.3298 90.1243 38.2745V38.2743C90.6794 36.568 91.6206 35.384 93.3679 35.7911C95.5285 36.4006 95.1871 38.804 95.0726 39.378Z" fill="white"/>
<path d="M19.4068 8.42463C19.9792 8.99709 20.9068 8.99651 21.4782 8.42483C22.0505 7.85276 22.0505 6.92522 21.4784 6.35334L18.1068 2.98127C17.5347 2.40901 16.6072 2.4092 16.0353 2.98108C15.463 3.55315 15.463 4.48069 16.0351 5.05256L19.4068 8.42463Z" fill="white"/>
<path d="M81.8932 27.1146C82.4657 27.6867 83.3928 27.6865 83.9649 27.1146C84.5369 26.5423 84.5369 25.615 83.9649 25.0429L80.5928 21.6708C80.0205 21.099 79.0932 21.099 78.5211 21.6708C77.9491 22.2431 77.9491 23.1705 78.5211 23.7425L81.8932 27.1146Z" fill="white"/>
<path d="M12.5016 16.5126H17.2704C18.0796 16.5126 18.7352 15.8569 18.7352 15.0477C18.7352 14.2385 18.0796 13.5829 17.2704 13.5829H12.5016C11.6925 13.5829 11.0368 14.2385 11.0368 15.0477C11.0368 15.8569 11.6925 16.5126 12.5016 16.5126Z" fill="white"/>
<path d="M81.2647 15.0477C81.2647 15.8569 81.9204 16.5126 82.7295 16.5126H87.4983C88.3075 16.5126 88.9631 15.8569 88.9631 15.0477C88.9631 14.2385 88.3075 13.5829 87.4983 13.5829H82.7295C81.9206 13.5829 81.2647 14.2385 81.2647 15.0477Z" fill="white"/>
<path d="M19.4068 21.6711L16.0351 25.0432C15.463 25.6152 15.463 26.5428 16.0353 27.1146C16.6072 27.6865 17.5345 27.6867 18.1068 27.1145L21.4786 23.7424C22.0507 23.1703 22.0507 22.2428 21.4784 21.6709C20.9066 21.099 19.979 21.0988 19.4068 21.6711Z" fill="white"/>
<path d="M80.593 8.42478L83.9651 5.05271C84.5371 4.48044 84.5371 3.5531 83.9651 2.98103C83.3928 2.40916 82.4654 2.40916 81.8934 2.98103L78.5213 6.3531C77.9492 6.92537 77.9492 7.85271 78.5213 8.42478C79.0936 8.99666 80.0207 8.99666 80.593 8.42478Z" fill="white"/>
<path d="M54.8119 43.3261L64.5821 31.879C65.1071 31.2637 65.0341 30.3389 64.4189 29.8137C63.8032 29.2887 62.8786 29.3618 62.3536 29.977L53.9125 39.8671L60.1481 16.2363H74.0486C73.9058 16.4589 74.4058 15.8566 66.7964 24.7717C66.2714 25.3869 66.3445 26.3117 66.9597 26.8369C67.5753 27.3619 68.4997 27.2889 69.0248 26.6736L76.0572 18.4345C77.7246 16.4804 77.9893 13.4161 76.0518 11.3817L76.0516 11.3815L67.0413 1.92462L67.0411 1.92443C65.8757 0.701568 64.2386 0 62.5489 0H37.4509C35.7614 0 34.1241 0.701568 32.9588 1.92462L23.9484 11.3817C22.0181 13.4075 22.2681 16.4722 23.9428 18.4347L45.188 43.3261C47.7234 46.2959 52.3016 46.2662 54.8119 43.3261ZM73.839 13.3065H61.5804L66.2591 5.35102L73.839 13.3065ZM62.5489 2.92971C63.0796 2.92971 63.5989 3.0635 64.0634 3.30549L58.9317 12.0311L52.7625 2.92971H62.5489ZM56.2569 13.3065H43.7431L50 4.07562L56.2569 13.3065ZM37.4509 2.92971H47.2375L41.0683 12.0313L35.9366 3.30549C36.4009 3.0635 36.9202 2.92971 37.4509 2.92971ZM33.7409 5.35102L38.4194 13.3064H26.1609L33.7409 5.35102ZM25.9514 16.2363H39.8517L46.0873 39.8667C24.8656 15.0029 26.1 16.4681 25.9514 16.2363ZM50.1594 42.607C49.9518 42.6167 49.9664 42.613 49.8406 42.607L42.882 16.2363H57.1182L50.1594 42.607Z" fill="white"/>
</g>
<defs>
<clipPath id="clip0_197_698">
<rect width="100" height="100" fill="white"/>
</clipPath>
</defs>
</svg>
