<svg width="100" height="100" viewBox="0 0 100 100" fill="none" xmlns="http://www.w3.org/2000/svg">
<g clip-path="url(#clip0_197_726)">
<path d="M99.2924 40.5328C99.2238 40.0869 99.0414 38.9029 94.9543 32.7344C94.5037 32.0543 93.6982 31.7336 92.9053 31.9195C92.1105 32.1045 91.5301 32.7469 91.4262 33.5562C90.8478 38.0543 90.633 40.8424 90.7871 41.8434C91.4359 46.0547 92.131 54.1272 89.4974 60.8697C89.4844 60.9033 89.4717 60.9367 89.458 60.9742L88.6283 63.2643L87.7972 60.9707C87.7847 60.9369 87.7722 60.9033 87.7609 60.8746C85.1254 54.127 85.8205 46.0545 86.4693 41.8432C86.6238 40.8408 86.4088 38.1064 85.8299 33.7158C85.7242 32.9141 85.1476 32.2746 84.3611 32.0875C83.5744 31.9 82.7724 32.2109 82.3168 32.8789C78.2172 38.8904 78.0332 40.0834 77.964 40.5326C77.8814 41.0686 77.8029 41.6277 77.7297 42.2051C72.8035 35.0051 65.2974 29.8613 56.7777 27.9307L60.7049 20.9068C61.1002 20.1998 60.8476 19.3061 60.1404 18.9107C59.4338 18.5156 58.5394 18.768 58.1443 19.4752L52.3531 29.8328C52.1418 30.2107 51.8744 30.5391 51.565 30.8117L57.8553 13.5068H61.4814L61.2371 13.9439C60.8418 14.651 61.0943 15.5447 61.8015 15.94C62.5084 16.3357 63.4023 16.0828 63.7976 15.3756L65.3457 12.6072C65.7566 11.8723 65.8201 10.9994 65.5201 10.2127C65.2201 9.42598 64.5914 8.81719 63.7953 8.54238L63.7263 8.51855L55.7683 5.77246L50.3584 3.90547C50.3582 3.90547 50.3578 3.90527 50.3576 3.90527L50.3013 3.88574C49.5539 3.62793 48.7303 3.62793 47.983 3.88574L47.9265 3.90527C47.9263 3.90527 47.926 3.90547 47.9258 3.90547L34.5576 8.51855L34.4885 8.54238C33.6926 8.81719 33.064 9.42598 32.7638 10.2127C32.4638 10.9994 32.5273 11.8723 32.9385 12.6074L32.974 12.6709C32.9744 12.6717 32.9748 12.6727 32.9752 12.6734L33.0226 12.7578L41.5064 27.9309C25.7945 31.4717 14.5287 45.4582 14.5287 61.6943C14.5287 80.7801 30.056 96.3078 49.1422 96.3078C53.3105 96.3078 57.3888 95.5709 61.2642 94.1176C62.0226 93.833 62.407 92.9877 62.1226 92.2289C61.8383 91.4705 60.993 91.0863 60.234 91.3705C56.6892 92.6998 52.9576 93.374 49.1422 93.374C31.674 93.374 17.4625 79.1627 17.4625 61.6943C17.4625 46.5418 28.1828 33.5303 43.006 30.6129L43.3703 31.2643C44.1986 32.7457 45.5025 33.808 47.0412 34.3146C40.083 34.8535 33.5238 38.0502 28.7926 43.2717C28.2486 43.8721 28.2943 44.7996 28.8945 45.3438C29.4947 45.8873 30.4222 45.8424 30.9666 45.2418C35.6168 40.11 42.2414 37.1666 49.142 37.1666C62.6666 37.1666 73.6697 48.1697 73.6697 61.6945C73.6697 75.2191 62.6666 86.2223 49.142 86.2223C35.6172 86.2223 24.614 75.2191 24.614 61.6945C24.614 57.6592 25.6195 53.6564 27.5215 50.1189C27.9053 49.4053 27.6379 48.5158 26.9242 48.1322C26.2107 47.7488 25.3211 48.0158 24.9375 48.7295C22.8064 52.6926 21.6801 57.1758 21.6801 61.6943C21.6801 76.8367 33.9994 89.1559 49.1418 89.1559C64.2842 89.1559 76.6035 76.8367 76.6035 61.6943C76.6035 47.2607 65.4107 35.3922 51.249 34.3127C52.7849 33.8053 54.0865 32.7437 54.9136 31.2643L55.2783 30.6121C64.6976 32.4717 72.8637 38.607 77.3053 47.2021C77.0873 52.402 77.5609 58.3846 79.7248 63.9537L80.5324 66.1826C80.5029 66.2674 80.4797 66.3557 80.4658 66.4479C79.0767 75.6408 73.7146 83.7369 65.7537 88.6598C65.0646 89.0859 64.8513 89.9898 65.2775 90.6789C65.5551 91.1275 66.0351 91.3746 66.5265 91.3746C66.79 91.3746 67.0564 91.3037 67.2967 91.1551C74.6867 86.585 80.0252 79.5084 82.3933 71.3191L84.3008 76.5836V87.1369C84.3008 89.4838 86.1002 91.4068 88.3974 91.5148C88.4678 91.5184 88.5377 91.5197 88.6076 91.5197C89.7187 91.5197 90.7652 91.1018 91.5734 90.3305C92.4207 89.5223 92.9066 88.3873 92.9066 87.2168V76.7168L97.5314 63.9539C100.709 55.776 100.244 46.7043 99.2924 40.5328ZM49.156 28.8508L43.5785 13.5068H54.7336L49.156 28.8508ZM49.401 6.67852L50.5279 7.06738L53.5949 10.573H44.7168L47.7959 7.05371L48.8832 6.67852C49.0502 6.6209 49.234 6.62129 49.401 6.67852ZM42.2119 8.98066L40.8187 10.573H37.5976L42.2119 8.98066ZM57.4931 10.573L56.1121 8.99453L60.6863 10.573H57.4931ZM45.9308 29.8326L36.8027 13.5068H40.4568L46.7595 30.8455C46.433 30.566 46.1511 30.2266 45.9308 29.8326ZM94.7912 62.9059C94.7869 62.9168 94.783 62.9275 94.7789 62.9383L90.0605 75.9598C90.0025 76.1197 89.9728 76.2891 89.9728 76.4594V87.2168C89.9728 87.5947 89.8221 87.9467 89.5484 88.2078C89.2752 88.4686 88.9178 88.6027 88.5355 88.5844C87.8181 88.5508 87.2346 87.9014 87.2346 87.1369V76.326C87.2346 76.1557 87.2049 75.9865 87.1469 75.8264L82.4769 62.9385C82.4728 62.9275 82.4689 62.9168 82.4646 62.9061C79.516 55.3297 79.9662 46.8006 80.8605 40.9934C80.9338 40.6561 81.5385 39.4119 83.2504 36.7686C83.5683 39.5623 83.6303 41.0012 83.5693 41.3963C82.8754 45.8988 82.1424 54.5551 85.0293 61.9469L87.2484 68.0697C87.459 68.6504 88.0101 69.0369 88.6277 69.0369C89.2453 69.0369 89.7965 68.6504 90.007 68.0697L92.2146 61.9771L92.2279 61.942C95.1131 54.5551 94.3799 45.8988 93.6861 41.3965C93.6252 41.0006 93.6873 39.5334 94.0056 36.6672C95.7121 39.3754 96.318 40.6439 96.3937 40.9879C97.2904 46.8088 97.7387 55.3334 94.7912 62.9059Z" fill="white"/>
<path d="M24.6726 31.8681C24.8083 31.7791 24.9355 31.6771 25.0497 31.565L31.7427 25.0099C32.5958 24.1744 32.7363 22.8919 32.0843 21.8914C31.432 20.891 30.2021 20.5019 29.0933 20.9451L20.3937 24.4236C20.2423 24.4841 20.0968 24.5597 19.9648 24.646L8.05014 32.3763C7.91557 32.3386 7.77983 32.3037 7.64174 32.2746C5.98744 31.9255 4.29467 32.2425 2.87709 33.166C1.45991 34.0898 0.48725 35.5101 0.138422 37.1656C-0.210602 38.821 0.106195 40.513 1.02983 41.9302C1.95366 43.3474 3.37397 44.3201 5.02944 44.6689C5.4683 44.7615 5.90971 44.8072 6.34838 44.8072C7.56284 44.8072 8.75268 44.4562 9.79409 43.7775C11.2113 42.8537 12.1839 41.4334 12.5328 39.7779C12.5353 39.7654 12.5371 39.7529 12.5396 39.7406L24.6726 31.8681ZM21.5255 27.1306L28.0466 24.5232L23.0298 29.4365L12.3175 36.3869C12.1501 35.9091 11.9244 35.448 11.641 35.013C11.4122 34.6623 11.1531 34.3388 10.8675 34.0453L21.5255 27.1306ZM9.66186 39.173C9.47455 40.0613 8.95248 40.8238 8.19174 41.3197C7.431 41.8158 6.5228 41.9855 5.63412 41.7984C4.74584 41.6111 3.98334 41.089 3.48745 40.3283C2.99155 39.5677 2.82162 38.6595 3.00873 37.7708C3.19604 36.8824 3.71811 36.1199 4.47885 35.624C5.03764 35.2595 5.67651 35.0712 6.32827 35.0712C6.56362 35.0712 6.80053 35.0957 7.03627 35.1453C7.92455 35.3326 8.68705 35.8546 9.18295 36.6154C9.67905 37.3761 9.84897 38.2845 9.66186 39.173Z" fill="white"/>
</g>
<defs>
<clipPath id="clip0_197_726">
<rect width="100" height="100" fill="white"/>
</clipPath>
</defs>
</svg>
