<svg width="100" height="100" viewBox="0 0 100 100" fill="none" xmlns="http://www.w3.org/2000/svg">
<g clip-path="url(#clip0_197_709)">
<path d="M18.0702 34.4734C17.3798 34.4734 16.82 35.0332 16.82 35.7237V38.435H14.1087C13.4182 38.435 12.8593 38.9948 12.8593 39.6852C12.8593 40.3757 13.4182 40.9355 14.1087 40.9355H16.82V43.6458C16.82 44.3363 17.3798 44.8961 18.0702 44.8961C18.7607 44.8961 19.3205 44.3363 19.3205 43.6458V40.9355H22.0308C22.7213 40.9355 23.2811 40.3757 23.2811 39.6852C23.2811 38.9948 22.7213 38.435 22.0308 38.435H19.3205V35.7237C19.3205 35.0332 18.7607 34.4734 18.0702 34.4734Z" fill="white"/>
<path d="M72.7577 13.4372H75.469V16.1485C75.469 16.839 76.0288 17.3988 76.7183 17.3988C77.4088 17.3988 77.9686 16.839 77.9686 16.1485V13.4372H80.6799C81.3703 13.4372 81.9302 12.8774 81.9302 12.1879C81.9302 11.4974 81.3703 10.9376 80.6799 10.9376H77.9686V8.22634C77.9686 7.53588 77.4088 6.97607 76.7183 6.97607C76.0288 6.97607 75.469 7.53588 75.469 8.22634V10.9376H72.7577C72.0673 10.9376 71.5074 11.4974 71.5074 12.1879C71.5074 12.8774 72.0673 13.4372 72.7577 13.4372Z" fill="white"/>
<path d="M86.5078 36.974H89.2191V39.6853C89.2191 40.3757 89.7789 40.9355 90.4684 40.9355C91.1589 40.9355 91.7187 40.3757 91.7187 39.6853V36.974H94.43C95.1204 36.974 95.6802 36.4142 95.6802 35.7237C95.6802 35.0332 95.1204 34.4734 94.43 34.4734H91.7187V31.7631C91.7187 31.0726 91.1589 30.5128 90.4684 30.5128C89.7789 30.5128 89.2191 31.0726 89.2191 31.7631V34.4734H86.5078C85.8173 34.4734 85.2575 35.0332 85.2575 35.7237C85.2575 36.4142 85.8173 36.974 86.5078 36.974Z" fill="white"/>
<path d="M0.64373 13.2809L3.40652 14.8125C5.95474 16.2239 8.03852 18.3363 9.43184 20.9188L10.9434 23.7188C11.1609 24.1232 11.5833 24.3749 12.043 24.3749C12.5027 24.3749 12.9251 24.1232 13.1426 23.7188L14.6542 20.9188C16.0475 18.3363 18.1313 16.2239 20.6795 14.8125L23.4413 13.2809C23.839 13.0606 24.086 12.6419 24.086 12.1879C24.086 11.733 23.839 11.3144 23.4413 11.0941L20.6795 9.56343C18.1313 8.15104 16.0475 6.03865 14.6542 3.4561L13.1426 0.656115C12.7068 -0.151648 11.3792 -0.151648 10.9434 0.656115L9.43184 3.4561C8.03852 6.03865 5.95474 8.15104 3.40652 9.56343L0.64373 11.0941C0.247002 11.3144 0 11.733 0 12.1879C0 12.6419 0.247002 13.0606 0.64373 13.2809ZM4.61864 11.7493C7.58553 10.1051 10.0107 7.6475 11.631 4.64343L12.043 3.88144L12.454 4.64247C14.0743 7.6475 16.5005 10.1051 19.4674 11.7493L20.2579 12.1879L19.4674 12.6257C16.5005 14.2698 14.0743 16.7274 12.454 19.7315L12.043 20.4935L11.631 19.7325C10.0107 16.7274 7.58553 14.2698 4.61864 12.6257L3.82805 12.1879L4.61864 11.7493Z" fill="white"/>
<path d="M21.7361 63.7464L20.2246 66.5464C18.8303 69.1299 16.7475 71.2414 14.2002 72.6528L11.4365 74.1844C11.0397 74.4047 10.7927 74.8234 10.7927 75.2773C10.7927 75.7322 11.0397 76.1509 11.4365 76.3712L14.2002 77.9018C16.7484 79.3142 18.8312 81.4266 20.2246 84.0092L21.7361 86.8092C21.9536 87.2135 22.3761 87.4653 22.8357 87.4653C23.2954 87.4653 23.7179 87.2135 23.9353 86.8092L25.4469 84.0092C26.8402 81.4266 28.924 79.3142 31.4722 77.9018L34.235 76.3712C34.6317 76.1509 34.8787 75.7322 34.8787 75.2773C34.8787 74.8234 34.6317 74.4047 34.235 74.1844L31.4712 72.6528C28.924 71.2414 26.8412 69.1299 25.4469 66.5464L23.9353 63.7464C23.4995 62.9387 22.172 62.9387 21.7361 63.7464ZM30.2601 74.8396L31.0507 75.2773L30.2601 75.716C27.2932 77.3601 24.868 79.8178 23.2468 82.8218L22.8357 83.5838L22.4247 82.8218C20.8034 79.8178 18.3792 77.3601 15.4123 75.716L14.6217 75.2773L15.4123 74.8396C18.3783 73.1955 20.8034 70.7388 22.4247 67.7338L22.8357 66.9718L23.2468 67.7328C24.868 70.7388 27.2942 73.1955 30.2601 74.8396Z" fill="white"/>
<path d="M99.3557 70.7903L95.2492 68.5149C91.3601 66.3586 88.1805 63.1352 86.0519 59.1927L83.806 55.0309C83.3702 54.2231 82.0427 54.2231 81.6068 55.0309L79.36 59.1927C77.2323 63.1352 74.0528 66.3586 70.1637 68.5149L66.0572 70.7903C65.6595 71.0106 65.4135 71.4293 65.4135 71.8832C65.4135 72.3382 65.6595 72.7568 66.0572 72.9771L70.1637 75.2526C74.0528 77.4079 77.2323 80.6313 79.36 84.5738L81.6068 88.7356C81.8243 89.14 82.2468 89.3918 82.7064 89.3918C83.1661 89.3918 83.5886 89.14 83.806 88.7356L86.0519 84.5738C88.1805 80.6313 91.3601 77.4079 95.2492 75.2526L99.3557 72.9771C99.7534 72.7568 100 72.3382 100 71.8832C100 71.4293 99.7534 71.0106 99.3557 70.7903ZM94.037 73.0668C89.7293 75.4538 86.2083 79.0225 83.8527 83.3865L82.7064 85.5103L81.5601 83.3865C79.2055 79.0225 75.6836 75.4538 71.3758 73.0668L69.2415 71.8832L71.3758 70.7007C75.6836 68.3127 79.2055 64.744 81.5601 60.381L82.7064 58.2572L83.8527 60.381C86.2083 64.744 89.7293 68.3127 94.037 70.7007L96.1714 71.8832L94.037 73.0668Z" fill="white"/>
<path d="M46.0195 56.4747C44.5146 57.5266 43.5028 59.0973 43.1747 60.9055C42.8429 62.7241 43.2405 64.5638 44.2924 66.083C45.3443 67.6041 46.9026 68.5635 48.5849 68.9106C46.9437 72.2036 40.2918 85.824 40.2918 90.3063C40.2918 95.6516 44.6405 100 49.9849 100C55.3303 100 59.6781 95.6516 59.6781 90.3063C59.6781 85.8221 53.0205 72.1903 51.384 68.9058C52.269 68.7246 53.1349 68.3832 53.9236 67.8377C55.4447 66.7849 56.4651 65.2037 56.7961 63.3841C57.127 61.5654 56.7293 59.7258 55.6774 58.2066C55.2006 57.5171 54.6036 56.9477 53.9369 56.4814C63.0789 54.6474 69.9882 46.5603 69.9882 36.8862C69.9882 26.2823 61.6808 17.6039 51.2352 16.9611V14.0085C54.5416 13.422 57.0621 10.5333 57.0621 7.06196C57.0621 3.16811 53.894 0 50.0002 0C46.1063 0 42.9382 3.16811 42.9382 7.06196C42.9382 10.5238 45.4435 13.4058 48.7356 14.0038V16.9621C38.3034 17.6201 30.0112 26.2918 30.0112 36.8862C30.0112 46.545 36.8986 54.6236 46.0195 56.4747ZM35.5253 46.6881L41.2102 43.4055C42.9745 45.7773 45.6657 47.4167 48.7499 47.7695V54.3118C43.2568 53.9207 38.4531 50.9977 35.5253 46.6881ZM50.0002 28.4271C54.6646 28.4271 58.4593 32.2227 58.4593 36.8862C58.4593 41.5506 54.6646 45.3463 50.0002 45.3463C45.3358 45.3463 41.5401 41.5506 41.5401 36.8862C41.5401 32.2227 45.3358 28.4271 50.0002 28.4271ZM49.9849 97.4998C46.0186 97.4998 42.7914 94.2726 42.7914 90.3063C42.7914 87.2107 47.2774 77.3134 49.9849 71.7297C52.6924 77.3134 57.1785 87.2107 57.1785 90.3063C57.1785 94.2726 53.9513 97.4998 49.9849 97.4998ZM54.3356 62.9368C54.1248 64.0993 53.4725 65.1093 52.5017 65.7816C50.497 67.1692 47.7362 66.6666 46.3486 64.661C45.6762 63.6892 45.4225 62.5143 45.6343 61.3527C45.845 60.1902 46.4973 59.1803 47.4682 58.5079C48.2168 57.991 49.0847 57.7211 49.9754 57.7211C50.2415 57.7211 50.5094 57.745 50.7774 57.7936C51.94 58.0053 52.9499 58.6576 53.6222 59.6285C54.2936 60.6003 54.5473 61.7752 54.3356 62.9368ZM51.2504 54.3118V47.7695C54.3346 47.4167 57.0259 45.7773 58.7892 43.4055L64.475 46.6881C61.5473 50.9977 56.7436 53.9207 51.2504 54.3118ZM65.7129 44.5147L60.05 41.2455C60.6327 39.9084 60.9598 38.4359 60.9598 36.8862C60.9598 35.3374 60.6327 33.865 60.05 32.5279L65.7129 29.2587C66.8383 31.5676 67.4887 34.1492 67.4887 36.8862C67.4887 39.6233 66.8383 42.2058 65.7129 44.5147ZM64.475 27.0853L58.7892 30.3679C57.0259 27.9961 54.3346 26.3557 51.2504 26.0038V19.4616C56.7436 19.8526 61.5473 22.7757 64.475 27.0853ZM45.4378 7.06196C45.4378 4.54617 47.4844 2.49958 50.0002 2.49958C52.515 2.49958 54.5616 4.54617 54.5616 7.06196C54.5616 9.5768 52.515 11.6234 50.0002 11.6234C47.4844 11.6234 45.4378 9.5768 45.4378 7.06196ZM48.7499 19.4616V26.0038C45.6657 26.3557 42.9745 27.9961 41.2102 30.3679L35.5253 27.0853C38.4531 22.7757 43.2568 19.8526 48.7499 19.4616ZM34.2874 29.2587L39.9504 32.5279C39.3677 33.865 39.0406 35.3374 39.0406 36.8862C39.0406 38.4359 39.3677 39.9084 39.9504 41.2455L34.2874 44.5147C33.1612 42.2058 32.5117 39.6233 32.5117 36.8862C32.5117 34.1492 33.1612 31.5676 34.2874 29.2587Z" fill="white"/>
</g>
<defs>
<clipPath id="clip0_197_709">
<rect width="100" height="100" fill="white"/>
</clipPath>
</defs>
</svg>
