<svg width="203" height="59" viewBox="0 0 203 59" fill="none" xmlns="http://www.w3.org/2000/svg">
<g clip-path="url(#clip0_167_954)">
<path d="M72.0581 16.6793V2.31836H73.5459H75.0465V16.6793H73.5587H72.0581Z" fill="#231F20"/>
<path d="M80.1457 16.6793H78.9249H77.6978V2.31836H79.885H82.085L84.6028 14.4372V2.31836H85.8236H87.0508V16.6793H84.8699H82.6826L80.1457 4.4525V16.6793Z" fill="#231F20"/>
<path d="M92.1056 16.6793V4.4525H88.9709V3.38543V2.31836H98.2222V3.38543V4.4525H95.0939V16.6793H93.6061H92.1056Z" fill="#231F20"/>
<path d="M100.27 16.6793V2.31836H107.55V3.38543V4.4525H103.258V8.25075H107.404V9.31782V10.3849H103.258V14.5452H107.633V15.6123V16.6793H100.27Z" fill="#231F20"/>
<path d="M112.846 8.61914H113.673C114.442 8.61914 114.957 8.47941 115.218 8.19359C115.472 7.91412 115.606 7.35518 115.606 6.51041C115.606 5.72282 115.466 5.18928 115.199 4.90346C114.925 4.61764 114.423 4.4779 113.679 4.4779H112.853V8.6255L112.846 8.61914ZM109.864 16.6793V2.31836H114.239C115.803 2.31836 116.916 2.60418 117.583 3.17583C118.251 3.74747 118.581 4.70656 118.581 6.04675C118.581 7.56478 118.244 8.58739 117.57 9.12092C117.233 9.38769 116.712 9.59094 116.013 9.73703H116.172C116.986 9.73703 117.596 10.0038 118.016 10.5246C118.429 11.0518 118.62 11.8013 118.569 12.7794C118.55 13.3384 118.543 13.9164 118.55 14.5198C118.562 15.1422 118.588 15.6186 118.613 15.9425C118.639 16.2601 118.683 16.5078 118.734 16.6666H115.758C115.708 16.5078 115.676 16.2728 115.657 15.9552C115.638 15.6377 115.625 15.1613 115.625 14.5198V12.7794C115.638 12.0617 115.504 11.5536 115.212 11.2551C114.925 10.9629 114.417 10.8168 113.705 10.8168H112.84V16.6793H109.858H109.864Z" fill="#231F20"/>
<path d="M123.414 16.6793H122.199H120.972V2.31836H123.159H125.359L127.877 14.4372V2.31836H129.098H130.319V16.6793H128.144H125.957L123.414 4.4525V16.6793Z" fill="#231F20"/>
<path d="M137.516 5.00509L136.308 11.4393H138.693L137.516 5.00509ZM132.442 16.6793L135.749 2.31836H139.246L142.539 16.6793H139.659L139.087 13.5734H135.92L135.323 16.6793H132.442Z" fill="#231F20"/>
<path d="M147.073 16.6793V4.4525H143.932V3.38543V2.31836H153.19V3.38543V4.4525H150.061V16.6793H148.573H147.073Z" fill="#231F20"/>
<path d="M155.104 16.6793V2.31836H156.591H158.086V16.6793H156.598H155.104Z" fill="#231F20"/>
<path d="M165.137 14.7356C165.722 14.7356 166.129 14.5451 166.351 14.164C166.58 13.7829 166.694 13.1096 166.694 12.1378V6.22448C166.694 5.57662 166.561 5.08755 166.294 4.75726C166.027 4.42698 165.639 4.25549 165.137 4.25549C164.634 4.25549 164.24 4.42063 163.98 4.75726C163.719 5.08755 163.585 5.57662 163.585 6.22448V12.1378C163.585 13.1096 163.7 13.7829 163.929 14.164C164.151 14.5451 164.558 14.7356 165.137 14.7356ZM165.137 16.8952C163.477 16.8952 162.307 16.5331 161.627 15.7963C160.947 15.0659 160.603 13.8019 160.603 12.0171V6.1038C160.603 4.76361 160.978 3.76641 161.735 3.0995C162.492 2.43893 163.617 2.10229 165.137 2.10229C166.656 2.10229 167.788 2.43893 168.545 3.0995C169.301 3.76641 169.676 4.76997 169.676 6.1038V12.0171C169.676 13.8019 169.333 15.0659 168.653 15.7963C167.972 16.5268 166.803 16.8952 165.13 16.8952H165.137Z" fill="#231F20"/>
<path d="M174.877 16.6793H173.663H172.436V2.31836H174.623H176.823L179.341 14.4372V2.31836H180.562H181.782V16.6793H179.608H177.421L174.877 4.4525V16.6793Z" fill="#231F20"/>
<path d="M188.98 5.00509L187.772 11.4393H190.156L188.98 5.00509ZM183.906 16.6793L187.213 2.31836H190.71L194.003 16.6793H191.123L190.551 13.5734H187.384L186.787 16.6793H183.906Z" fill="#231F20"/>
<path d="M196.229 16.6793V2.31836H197.716H199.211V14.5452H203V15.6123V16.6793H196.229Z" fill="#231F20"/>
<path d="M77.1066 37.2965C75.2817 37.2965 74.0101 36.8773 73.2853 36.0453C72.5668 35.2132 72.2044 33.7333 72.198 31.6182V28.309C72.2044 26.4035 72.6176 25.0252 73.4315 24.1805C74.2454 23.3357 75.5806 22.9102 77.4181 22.9102C79.0268 22.9102 80.2221 23.2531 81.0042 23.9391C81.7799 24.6251 82.1487 25.654 82.0914 27.026V27.4388H78.8678V27.026C78.8805 26.3527 78.7534 25.8446 78.48 25.508C78.2065 25.1713 77.7869 25.0062 77.2274 25.0062C76.5598 25.0062 76.0956 25.2348 75.8349 25.6985C75.5742 26.1558 75.4407 26.9752 75.4407 28.1502V31.4594C75.4407 32.9838 75.5679 33.9873 75.8158 34.4764C76.0638 34.9591 76.5852 35.2005 77.3609 35.2005C77.6661 35.2005 78.1557 35.1306 78.8424 34.9845V31.7643H77.3482V29.6873H82.0851V36.7439C80.3684 37.106 78.7025 37.2902 77.0875 37.2965H77.1002H77.1066Z" fill="#231F20"/>
<path d="M85.0481 37.087V23.1199H92.9705V24.1552V25.1968H88.2972V28.8871H92.8115V29.9288V30.9704H88.2972V35.0101H93.0595V36.0454V37.087H85.0481Z" fill="#231F20"/>
<path d="M98.146 37.087H96.8172H95.4819V23.1199H97.7518H100.034L102.571 33.8096H102.559L105.083 23.1199H107.334H109.604V37.087H108.281H106.946V25.3556H106.952L104.167 37.087H102.552H100.931L98.1524 25.3048H98.146V37.087Z" fill="#231F20"/>
<path d="M117.456 35.2005C118.092 35.2005 118.531 35.0163 118.779 34.6479C119.026 34.2732 119.147 33.619 119.147 32.6789V26.9244C119.147 26.2956 119.001 25.8192 118.715 25.4953C118.429 25.1713 118.003 25.0062 117.456 25.0062C116.909 25.0062 116.483 25.1713 116.197 25.4953C115.911 25.8192 115.771 26.2956 115.771 26.9244V32.6789C115.771 33.619 115.892 34.2795 116.14 34.6479C116.388 35.0163 116.82 35.2005 117.45 35.2005M117.45 37.2965C115.644 37.2965 114.372 36.9408 113.628 36.2295C112.891 35.5181 112.516 34.2922 112.516 32.5519V26.8037C112.516 25.5016 112.929 24.5298 113.749 23.882C114.569 23.2341 115.803 22.9102 117.45 22.9102C119.096 22.9102 120.336 23.2341 121.156 23.882C121.983 24.5298 122.39 25.5016 122.39 26.8037V32.5519C122.39 34.2859 122.021 35.5181 121.277 36.2295C120.54 36.9408 119.262 37.2965 117.45 37.2965Z" fill="#231F20"/>
<path d="M125.41 37.087V23.1199H127.032H128.659V35.0101H132.779V36.0454V37.087H125.41Z" fill="#231F20"/>
<path d="M139.933 35.2005C140.568 35.2005 141.007 35.0163 141.255 34.6479C141.503 34.2732 141.624 33.619 141.624 32.6789V26.9244C141.624 26.2956 141.478 25.8192 141.191 25.4953C140.905 25.1713 140.479 25.0062 139.933 25.0062C139.386 25.0062 138.96 25.1713 138.674 25.4953C138.388 25.8192 138.248 26.2956 138.248 26.9244V32.6789C138.248 33.619 138.368 34.2795 138.616 34.6479C138.864 35.0163 139.297 35.2005 139.926 35.2005M139.926 37.2965C138.12 37.2965 136.849 36.9408 136.105 36.2295C135.367 35.5181 134.992 34.2922 134.992 32.5519V26.8037C134.992 25.5016 135.405 24.5298 136.226 23.882C137.046 23.2341 138.279 22.9102 139.926 22.9102C141.573 22.9102 142.813 23.2341 143.633 23.882C144.46 24.5298 144.867 25.5016 144.867 26.8037V32.5519C144.867 34.2859 144.498 35.5181 143.754 36.2295C143.016 36.9408 141.738 37.2965 139.926 37.2965Z" fill="#231F20"/>
<path d="M152.617 37.2965C150.792 37.2965 149.521 36.8773 148.796 36.0453C148.077 35.2132 147.715 33.7333 147.708 31.6182V28.309C147.715 26.4035 148.128 25.0252 148.942 24.1805C149.756 23.3357 151.091 22.9102 152.929 22.9102C154.537 22.9102 155.733 23.2531 156.515 23.9391C157.29 24.6251 157.659 25.654 157.602 27.026V27.4388H154.378V27.026C154.391 26.3527 154.264 25.8446 153.99 25.508C153.717 25.1713 153.297 25.0062 152.738 25.0062C152.07 25.0062 151.606 25.2348 151.345 25.6985C151.085 26.1558 150.951 26.9752 150.951 28.1502V31.4594C150.951 32.9838 151.078 33.9873 151.326 34.4764C151.574 34.9591 152.096 35.2005 152.871 35.2005C153.177 35.2005 153.666 35.1306 154.353 34.9845V31.7643H152.859V29.6873H157.596V36.7439C155.879 37.106 154.213 37.2902 152.598 37.2965H152.611H152.617Z" fill="#231F20"/>
<path d="M160.412 37.087V23.1199H162.027H163.661V37.087H162.04H160.412Z" fill="#231F20"/>
<path d="M175.914 32.3359V32.7488C175.946 34.3875 175.602 35.5562 174.884 36.2485C174.165 36.9472 172.944 37.2902 171.234 37.2902C169.416 37.2902 168.131 36.9091 167.387 36.1532C166.643 35.3974 166.275 34.1017 166.275 32.2597V27.9533C166.275 26.0987 166.643 24.7902 167.387 24.0344C168.138 23.2786 169.416 22.8975 171.234 22.8975C172.811 22.8975 173.987 23.2532 174.75 23.9582C175.469 24.6187 175.825 25.5969 175.818 26.899V27.5786H172.595V27.1657C172.607 26.4417 172.506 25.8954 172.277 25.5397C172.048 25.1777 171.705 24.9998 171.24 24.9998C170.636 24.9998 170.198 25.2031 169.924 25.6159C169.657 26.0288 169.524 26.7021 169.524 27.6358V31.9421C169.524 33.1553 169.651 34.0001 169.899 34.4764C170.147 34.9528 170.598 35.1878 171.24 35.1878C171.736 35.1878 172.112 34.9846 172.353 34.5781C172.595 34.1715 172.709 33.5554 172.696 32.7424V32.3296H175.92L175.914 32.3359Z" fill="#231F20"/>
<path d="M183.27 25.7304L181.961 31.9867H184.555L183.277 25.7304H183.27ZM177.745 37.087L181.344 23.1199H185.152L188.732 37.087H185.598L184.974 34.0637H181.528L180.88 37.087H177.745Z" fill="#231F20"/>
<path d="M191.161 37.087V23.1199H192.776H194.404V35.0101H198.53V36.0454V37.087H191.161Z" fill="#231F20"/>
<path d="M77.6216 50.1904V50.4825C77.6407 51.6258 77.4245 52.4452 76.9794 52.9279C76.528 53.417 75.7714 53.6583 74.6968 53.6583C73.5587 53.6583 72.7576 53.3916 72.2934 52.8644C71.8292 52.3372 71.594 51.4289 71.594 50.1396V47.1289C71.594 45.8332 71.8292 44.9185 72.2934 44.3914C72.7576 43.8642 73.5587 43.5974 74.6968 43.5974C75.6824 43.5974 76.4136 43.8451 76.8904 44.3405C77.3355 44.8042 77.558 45.4838 77.558 46.3985V46.8748H75.5425V46.5827C75.5552 46.0745 75.4852 45.6934 75.3454 45.4457C75.1991 45.1917 74.9893 45.0646 74.6968 45.0646C74.3217 45.0646 74.0483 45.2107 73.8766 45.4965C73.7113 45.7824 73.6223 46.2524 73.6223 46.9066V49.9173C73.6223 50.762 73.6986 51.3527 73.8575 51.6893C74.0101 52.0196 74.2963 52.1848 74.6968 52.1848C75.0084 52.1848 75.2436 52.045 75.3962 51.7592C75.5488 51.4734 75.6188 51.0478 75.6124 50.4762V50.184H77.628L77.6216 50.1904Z" fill="#231F20"/>
<path d="M79.1602 53.5122V43.7434H84.1069V44.4738V45.1979H81.1884V47.783H84.0051V48.5071V49.2312H81.1884V52.0576H84.1577V52.7817V53.5122H79.1602Z" fill="#231F20"/>
<path d="M87.7058 48.0307H88.2653C88.793 48.0307 89.1427 47.9355 89.3144 47.7449C89.4924 47.5544 89.5751 47.1733 89.5751 46.6016C89.5751 46.0681 89.4797 45.6997 89.2953 45.5092C89.1109 45.3186 88.7676 45.217 88.2589 45.217H87.6994V48.0371L87.7058 48.0307ZM85.6775 53.5122V43.7498H88.6531C89.715 43.7498 90.4716 43.9467 90.9294 44.3278C91.3808 44.7152 91.6097 45.3694 91.6097 46.284C91.6097 47.313 91.3808 48.0117 90.9231 48.3737C90.6942 48.5516 90.3381 48.6913 89.8612 48.7929H89.9693C90.5225 48.7929 90.9421 48.9708 91.2219 49.3265C91.5017 49.6885 91.6288 50.1966 91.597 50.8572C91.5843 51.2319 91.5779 51.6321 91.5843 52.0386C91.5907 52.4642 91.6097 52.7881 91.6288 53.004C91.6479 53.22 91.6733 53.3851 91.7115 53.4995H89.6895C89.6578 53.3915 89.6323 53.2327 89.6196 53.0167C89.6069 52.8008 89.6005 52.4769 89.6005 52.0386V50.8572C89.6069 50.3681 89.5179 50.0251 89.3208 49.8219C89.1237 49.6186 88.7803 49.5234 88.2971 49.5234H87.7058V53.5058H85.6775V53.5122Z" fill="#231F20"/>
<path d="M94.808 53.5122V45.1979H92.6716V44.4738V43.7434H98.9663V44.4738V45.1979H96.8363V53.5122H95.8253H94.808Z" fill="#231F20"/>
<path d="M100.27 53.5122V43.7434H101.281H102.298V53.5122H101.287H100.27Z" fill="#231F20"/>
<path d="M104.059 53.5122V43.7434H108.802V44.4738V45.1979H106.087V47.8592H108.65V48.5833V49.3138H106.087V53.5122H105.076H104.059Z" fill="#231F20"/>
<path d="M110.335 53.5122V43.7434H111.346H112.363V53.5122H111.352H110.335Z" fill="#231F20"/>
<path d="M120.018 50.1904V50.4825C120.037 51.6258 119.821 52.4452 119.376 52.9279C118.925 53.417 118.168 53.6583 117.094 53.6583C115.955 53.6583 115.154 53.3916 114.69 52.8644C114.226 52.3372 113.991 51.4289 113.991 50.1396V47.1289C113.991 45.8332 114.226 44.9185 114.69 44.3914C115.154 43.8642 115.955 43.5974 117.094 43.5974C118.079 43.5974 118.81 43.8451 119.287 44.3405C119.732 44.8042 119.961 45.4838 119.955 46.3985V46.8748H117.939V46.5827C117.952 46.0745 117.882 45.6934 117.742 45.4457C117.596 45.1917 117.38 45.0646 117.094 45.0646C116.712 45.0646 116.445 45.2107 116.273 45.4965C116.108 45.7824 116.019 46.2524 116.019 46.9066V49.9173C116.019 50.762 116.095 51.3527 116.254 51.6893C116.407 52.0196 116.693 52.1848 117.094 52.1848C117.405 52.1848 117.64 52.045 117.793 51.7592C117.946 51.4734 118.016 51.0478 118.009 50.4762V50.184H120.025L120.018 50.1904Z" fill="#231F20"/>
<path d="M124.615 45.5727L123.795 49.9489H125.417L124.615 45.5727ZM121.163 53.5122L123.407 43.7498H125.785L128.023 53.5122H126.065L125.677 51.4034H123.528L123.121 53.5122H121.163Z" fill="#231F20"/>
<path d="M131.114 53.5122V45.1979H128.984V44.4738V43.7434H135.272V44.4738V45.1979H133.148V53.5122H132.137H131.114Z" fill="#231F20"/>
<path d="M136.575 53.5122V43.7434H137.586H138.603V53.5122H137.593H136.575Z" fill="#231F20"/>
<path d="M143.398 52.1911C143.798 52.1911 144.072 52.0641 144.224 51.8037C144.377 51.5433 144.46 51.086 144.46 50.4254V46.4048C144.46 45.9666 144.371 45.6299 144.186 45.4076C144.008 45.179 143.741 45.0646 143.398 45.0646C143.054 45.0646 142.787 45.179 142.609 45.4076C142.431 45.6299 142.342 45.9666 142.342 46.4048V50.4254C142.342 51.086 142.419 51.5433 142.577 51.8037C142.73 52.0641 143.003 52.1911 143.398 52.1911ZM143.398 53.6584C142.272 53.6584 141.478 53.4106 141.013 52.9089C140.549 52.4134 140.32 51.556 140.32 50.3365V46.3159C140.32 45.4076 140.575 44.728 141.09 44.2707C141.605 43.8197 142.374 43.5911 143.404 43.5911C144.434 43.5911 145.203 43.8197 145.718 44.2707C146.233 44.7216 146.488 45.4013 146.488 46.3159V50.3365C146.488 51.5496 146.253 52.4071 145.795 52.9089C145.331 53.4043 144.536 53.6584 143.404 53.6584H143.398Z" fill="#231F20"/>
<path d="M150.023 53.5122H149.19H148.357V43.7434H149.845H151.339L153.056 51.9878V43.7434H153.883H154.715V53.5122H153.234H151.746L150.023 45.1979V53.5122Z" fill="#231F20"/>
<path d="M165.607 50.1904V50.4825C165.626 51.6258 165.41 52.4452 164.965 52.9279C164.514 53.417 163.757 53.6583 162.682 53.6583C161.544 53.6583 160.743 53.3916 160.279 52.8644C159.815 52.3372 159.58 51.4289 159.58 50.1396V47.1289C159.58 45.8332 159.815 44.9185 160.279 44.3914C160.743 43.8642 161.544 43.5974 162.682 43.5974C163.668 43.5974 164.399 43.8451 164.876 44.3405C165.321 44.8042 165.55 45.4838 165.544 46.3985V46.8748H163.528V46.5827C163.541 46.0745 163.471 45.6934 163.331 45.4457C163.185 45.1917 162.969 45.0646 162.682 45.0646C162.301 45.0646 162.034 45.2107 161.862 45.4965C161.697 45.7824 161.608 46.2524 161.608 46.9066V49.9173C161.608 50.762 161.684 51.3527 161.843 51.6893C161.996 52.0196 162.282 52.1848 162.682 52.1848C162.994 52.1848 163.229 52.045 163.382 51.7592C163.534 51.4734 163.604 51.0478 163.592 50.4762V50.184H165.607V50.1904Z" fill="#231F20"/>
<path d="M167.146 53.5122V43.7434H172.092V44.4738V45.1979H169.174V47.783H171.997V48.5071V49.2312H169.174V52.0576H172.15V52.7817V53.5122H167.146Z" fill="#231F20"/>
<path d="M175.462 53.5122H174.63H173.797V43.7434H175.284H176.779L178.495 51.9878V43.7434H179.322H180.155V53.5122H178.673H177.186L175.462 45.1979V53.5122Z" fill="#231F20"/>
<path d="M183.595 53.5122V45.1979H181.465V44.4738V43.7434H187.753V44.4738V45.1979H185.623V53.5122H184.612H183.595Z" fill="#231F20"/>
<path d="M191.072 48.0307H191.632C192.159 48.0307 192.509 47.9355 192.681 47.7449C192.859 47.5544 192.941 47.1733 192.941 46.6016C192.941 46.0681 192.846 45.6997 192.662 45.5092C192.477 45.3186 192.134 45.217 191.625 45.217H191.066V48.0371L191.072 48.0307ZM189.044 53.5122V43.7498H192.019C193.081 43.7498 193.838 43.9467 194.296 44.3278C194.747 44.7152 194.976 45.3694 194.976 46.284C194.976 47.313 194.747 48.0117 194.289 48.3737C194.06 48.5516 193.704 48.6913 193.227 48.7929H193.336C193.889 48.7929 194.308 48.9708 194.588 49.3265C194.868 49.6885 194.995 50.1966 194.963 50.8572C194.951 51.2319 194.944 51.6321 194.951 52.0386C194.957 52.4642 194.976 52.7881 194.995 53.004C195.014 53.22 195.04 53.3851 195.078 53.4995H193.056C193.024 53.3915 192.999 53.2327 192.986 53.0167C192.973 52.8008 192.967 52.4769 192.967 52.0386V50.8572C192.979 50.3681 192.884 50.0251 192.687 49.8219C192.49 49.6186 192.147 49.5234 191.663 49.5234H191.072V53.5058H189.044V53.5122Z" fill="#231F20"/>
<path d="M196.565 53.5122V43.7434H201.512V44.4738V45.1979H198.594V47.783H201.417V48.5071V49.2312H198.594V52.0576H201.569V52.7817V53.5122H196.565Z" fill="#231F20"/>
<path d="M67.1368 0.914551H66.075V54.7952H67.1368V0.914551Z" fill="#231F20"/>
<path d="M29.4643 5.48146V6.0277L28.2498 6.05946L27.0545 6.14838L25.8782 6.30082L24.721 6.50407L23.5829 6.76448L22.4638 7.08206L21.3702 7.45046L20.302 7.86966L19.2593 8.33968L18.242 8.86051L17.2564 9.4258L16.3027 10.0356L15.3807 10.6898L14.4906 11.3884L13.6386 12.1252L12.8184 12.9065L12.0363 13.7258L11.2987 14.577L10.5993 15.4662L9.94443 16.3872L9.33404 17.3399L8.76815 18.3244L8.24678 19.3406L7.77627 20.3823L7.35662 21.4494L6.98784 22.5419L6.66993 23.6597L6.40924 24.7967L6.20578 25.9527L6.05318 27.1277L5.96416 28.3218L5.93237 29.535H5.38556L5.41735 28.2964L5.51273 27.0769L5.66532 25.8701L5.87515 24.6823L6.14219 23.52L6.46647 22.3767L6.84796 21.2588L7.28032 20.1664L7.76355 19.0993L8.29764 18.064L8.87624 17.0541L9.49935 16.0759L10.1733 15.1295L10.8918 14.2213L11.6484 13.3447L12.4432 12.5063L13.2825 11.7124L14.16 10.9565L15.0692 10.2388L16.0166 9.56554L16.9957 8.94308L18.0067 8.36509L19.0431 7.83155L20.1113 7.34883L21.2049 6.91692L22.324 6.53583L23.4684 6.21189L24.632 5.94513L25.821 5.73552L27.0291 5.58309L28.2498 5.48781L29.4897 5.45605L29.4643 5.48146ZM5.37285 29.5477H5.91966L5.95145 30.7608L6.04046 31.9549L6.19306 33.13L6.39652 34.286L6.65721 35.4229L6.97513 36.5408L7.3439 37.6333L7.76355 38.7003L8.23406 39.742L8.75544 40.7582L9.32132 41.7427L9.93171 42.6955L10.5866 43.6165L11.286 44.5057L12.0236 45.3568L12.8056 46.1762L13.6259 46.9574L14.4779 47.6942L15.368 48.3929L16.29 49.0471L17.2437 49.6568L18.2292 50.2221L19.2466 50.743L20.2893 51.213L21.3575 51.6322L22.4511 52.0006L23.5702 52.3181L24.7083 52.5786L25.8655 52.7818L27.0418 52.9343L28.2371 53.0232L29.4516 53.0549V53.6012L28.2117 53.5694L26.9909 53.4741L25.7828 53.3217L24.5938 53.1121L23.4303 52.8453L22.2858 52.5214L21.1667 52.1403L20.0731 51.7084L19.0049 51.2257L17.9685 50.6921L16.9576 50.1141L15.9784 49.4917L15.031 48.8184L14.1218 48.1007L13.2444 47.3448L12.4051 46.5509L11.6103 45.7125L10.8537 44.836L10.1352 43.9277L9.4612 42.9813L8.83809 42.0032L8.25949 40.9932L7.7254 39.9579L7.24217 38.8909L6.80981 37.7984L6.42832 36.6805L6.10404 35.5372L5.837 34.3749L5.62718 33.1871L5.47458 31.9803L5.3792 30.7608L5.34741 29.5223L5.37285 29.5477ZM29.4706 53.6139V53.0676L30.6851 53.0359L31.8804 52.947L33.0567 52.7945L34.2139 52.5913L35.352 52.3309L36.4711 52.0133L37.5647 51.6449L38.6329 51.2257L39.6756 50.7557L40.6929 50.2348L41.6785 49.6695L42.6322 49.0598L43.5542 48.4056L44.4443 47.7069L45.2963 46.9701L46.1165 46.1889L46.8986 45.3695L47.6362 44.5184L48.3356 43.6292L48.9905 42.7082L49.6009 41.7554L50.1668 40.7709L50.6881 39.7547L51.1586 38.713L51.5783 37.646L51.9471 36.5535L52.265 35.4356L52.5257 34.2987L52.7291 33.1427L52.8817 31.9676L52.9707 30.7735L53.0025 29.5604H53.5493L53.5175 30.7989L53.4222 32.0184L53.2696 33.2252L53.0597 34.413L52.7927 35.5753L52.4684 36.7186L52.0869 37.8365L51.6546 38.929L51.1714 39.996L50.6373 41.0314L50.0587 42.0413L49.4355 43.0194L48.7616 43.9658L48.0431 44.8741L47.2865 45.7506L46.4917 46.589L45.6524 47.383L44.7749 48.1388L43.8657 48.8565L42.9183 49.5298L41.9392 50.1522L40.9282 50.7302L39.8918 51.2638L38.8236 51.7465L37.73 52.1784L36.611 52.5595L35.4665 52.8834L34.3029 53.1502L33.1139 53.3598L31.9058 53.5123L30.6851 53.6075L29.4452 53.6393L29.4706 53.6139ZM53.5684 29.5477H53.0216L52.9898 28.3345L52.9008 27.1404L52.7482 25.9654L52.5447 24.8094L52.284 23.6724L51.9661 22.5546L51.5974 21.4621L51.1777 20.395L50.7072 19.3534L50.1858 18.3371L49.6199 17.3526L49.0095 16.3999L48.3546 15.4789L47.6552 14.5897L46.9177 13.7385L46.1356 12.9192L45.3154 12.1379L44.4634 11.4012L43.5732 10.7025L42.6513 10.0483L41.6976 9.43851L40.712 8.87321L39.6947 8.35238L38.652 7.88237L37.5838 7.46316L36.4901 7.09477L35.3711 6.77719L34.233 6.51677L33.0758 6.31352L31.8995 6.16108L30.7041 6.07216L29.4897 6.0404V5.49416L30.7296 5.52592L31.9503 5.6212L33.1584 5.77363L34.3474 5.98324L35.511 6.25L36.6555 6.57394L37.7745 6.95503L38.8681 7.38694L39.9363 7.86966L40.9727 8.4032L41.9837 8.98119L42.9628 9.60365L43.9102 10.2769L44.8195 10.9946L45.6969 11.7505L46.5362 12.5444L47.331 13.3828L48.0876 14.2594L48.8061 15.1676L49.4801 16.114L50.1032 17.0922L50.6818 18.1021L51.2159 19.1374L51.6991 20.2045L52.1315 21.2969L52.5129 22.4148L52.8372 23.5581L53.1043 24.7205L53.3141 25.9082L53.4667 27.115L53.5621 28.3345L53.5938 29.5731L53.5684 29.5477Z" fill="#D6992D"/>
<path fill-rule="evenodd" clip-rule="evenodd" d="M9.75357 22.9736L10.3703 23.92L11.3749 23.6278L10.6692 24.5044L11.2541 25.3682L10.1987 24.9744L9.55647 25.7937L9.61369 24.6695L8.63452 24.3138L9.72178 24.0153L9.75357 22.9736Z" fill="#D6992D"/>
<path fill-rule="evenodd" clip-rule="evenodd" d="M25.5347 38.3511H26.9589L29.4514 42.7337L31.9311 38.3511H33.349L29.4514 45.2299L25.5347 38.3511Z" fill="#D6992D"/>
<path fill-rule="evenodd" clip-rule="evenodd" d="M23.4555 17.9751H14.6239L21.4399 30.1321H20.7278L13.3967 17.1685H22.7497L23.4555 17.9751Z" fill="#D6992D"/>
<path fill-rule="evenodd" clip-rule="evenodd" d="M19.5388 18.8008C20.2255 18.5214 20.9694 18.3689 21.8723 18.4959C22.5145 18.6103 23.2838 18.9215 23.7671 19.3534C23.4047 19.5948 22.4891 19.7663 21.6688 19.6964C20.766 19.6138 20.0984 19.2708 19.5388 18.8008ZM19.2018 18.9596C19.914 19.544 20.7342 19.9251 21.7006 20.0076C22.5399 20.0457 23.3347 19.9568 24.0468 19.5884L24.511 20.1093L24.0596 20.5856C23.1885 20.2045 22.4891 20.1664 21.7388 20.1855C20.6706 20.2363 19.8567 20.7127 19.2209 21.2335C18.6868 20.9604 18.2608 20.5539 17.8857 20.0838C18.2735 19.6138 18.7059 19.22 19.2082 18.9533L19.2018 18.9596ZM24.9624 20.0076V20.1982L24.8988 20.0902L24.9624 20.0076ZM24.689 20.3697C24.8289 20.5348 24.937 20.7381 24.7844 21.0429L24.352 20.7508L24.689 20.3697ZM25.0959 21.1255L25.1341 21.3161L25.026 21.2589L25.0896 21.1255H25.0959ZM24.9179 21.5765C25.1405 21.6781 25.2485 21.8686 25.2104 22.1862L24.6827 22.0401L24.9243 21.5765H24.9179ZM25.4965 22.218L25.5728 22.3641H25.4711L25.4965 22.218ZM25.4457 22.6499C25.7 22.7134 25.8653 22.8722 25.878 23.2025L25.3376 23.1707L25.4457 22.6499ZM26.1896 23.139L26.3231 23.2724L26.1768 23.2851L26.1896 23.139ZM27.0797 23.8313L27.245 23.9329L27.0924 23.9647L27.0797 23.8313ZM28.1288 24.3013L28.3259 24.3585L28.1988 24.4347L28.1288 24.3013ZM26.2531 23.5645C26.5266 23.5836 26.73 23.6979 26.7872 24.0091L26.2722 24.0917L26.2531 23.5645ZM27.2514 24.2378C27.5375 24.1743 27.7601 24.2378 27.8554 24.5046L27.404 24.7586L27.2514 24.2378ZM28.4086 24.6634C28.6439 24.5744 28.8537 24.5935 29.0571 24.7269L28.682 25.0953L28.4086 24.6634ZM29.6294 24.7459C29.7883 24.5998 29.9982 24.549 30.2843 24.657L29.9982 25.0889L29.6294 24.7523V24.7459ZM30.386 24.3521L30.564 24.295L30.5259 24.4156L30.3797 24.3458L30.386 24.3521ZM30.8057 24.5109C30.9265 24.2759 31.1363 24.187 31.4288 24.2378L31.2952 24.7904L30.8057 24.5109ZM31.4796 23.9139L31.6068 23.8567L31.5941 23.952L31.4796 23.9139ZM31.8929 23.9964C31.9438 23.7551 32.1155 23.6026 32.4461 23.5582L32.4079 24.1044L31.8929 23.9964ZM32.3761 23.2469L32.5097 23.158V23.2533H32.3761V23.2469ZM32.8085 23.1771C32.8403 22.9294 32.9547 22.7452 33.2409 22.6753L33.349 23.1771H32.8085ZM33.0883 22.3577L33.1709 22.2053L33.2218 22.3577H33.0883ZM33.4888 22.1672C33.4316 21.9195 33.5206 21.7099 33.7622 21.5447L34.0102 22.0401L33.4952 22.1735L33.4888 22.1672ZM33.5334 21.3034L33.616 21.1065L33.6796 21.2779L33.5397 21.3034H33.5334ZM33.9021 21.0366C33.7622 20.7952 33.8004 20.5793 33.9848 20.376L34.3281 20.7508L33.9021 21.0366ZM17.6695 20.376C18.0446 20.7762 18.4516 21.1446 18.9284 21.4558C18.5152 21.8814 18.2163 22.3387 18.0192 22.815C17.6123 22.5038 17.3198 22.1291 17.1291 21.6908C17.2054 21.2589 17.358 20.827 17.6695 20.376ZM19.5515 21.3796C20.0666 20.9096 20.7787 20.592 21.7833 20.484C22.4255 20.4395 23.0804 20.4967 23.7671 20.827C23.2521 21.2843 22.6035 21.5447 21.8596 21.6781C21.033 21.8178 20.27 21.6972 19.5515 21.3796ZM19.2909 21.6209C20.1365 22.0147 21.0902 22.1545 22.2093 21.9195C22.9023 21.7289 23.5572 21.4812 24.0723 20.9604C24.2757 21.062 24.4728 21.1827 24.6382 21.3478C24.6064 21.5511 24.5173 21.7416 24.3775 21.9195C23.3601 21.7924 22.4763 21.9322 21.6943 22.2561C20.8613 22.6626 20.2764 23.1898 19.8758 23.7995C19.2527 23.6852 18.7313 23.4248 18.2926 23.0627C18.4834 22.5292 18.7886 22.0338 19.2972 21.6209H19.2909ZM20.2001 23.8821C20.5816 23.3422 21.1093 22.8786 21.8469 22.5229C22.559 22.2243 23.322 22.11 24.1486 22.2243C23.7798 22.7833 23.2393 23.2215 22.5463 23.5518C21.7324 23.8631 20.9567 23.952 20.2001 23.8758V23.8821ZM19.3926 25.8003C19.5198 25.2223 19.6787 24.657 19.9903 24.1679C20.9376 24.2696 21.9041 24.2441 22.9532 23.7043C23.5636 23.3359 24.1168 22.9103 24.4983 22.3006L25.1405 22.5038L25.026 23.1707C24.0723 23.266 23.322 23.5518 22.7561 23.9964C21.9613 24.5808 21.4082 25.2858 21.1538 26.1242C20.5371 26.1687 19.9521 26.0671 19.399 25.813L19.3926 25.8003ZM21.4972 26.0925C21.8151 25.3557 22.2474 24.7459 22.8515 24.314C23.4047 23.9012 24.0596 23.5963 24.8988 23.482C24.689 24.1171 24.2376 24.6824 23.659 25.1969C23.0168 25.7431 22.292 26.0289 21.4972 26.0925ZM21.2365 28.1821C21.1157 27.5724 21.1729 26.988 21.3827 26.4291C22.6544 26.3084 23.5445 25.7749 24.2567 25.0635C24.7399 24.5363 25.0769 24.0091 25.2231 23.4629L25.9162 23.4947L25.9416 24.187C24.9942 24.5554 24.3584 25.0953 23.8624 25.7114C23.2966 26.499 23.0232 27.2802 22.9914 28.0615C22.3746 28.2647 21.7897 28.3092 21.2301 28.1758L21.2365 28.1821ZM21.8469 29.8653C21.5608 29.4652 21.3891 29.0078 21.3001 28.5061C21.8532 28.5442 22.4064 28.5315 22.9659 28.3727C22.9977 28.9316 23.0804 29.4969 23.2775 30.0559C22.7815 30.0749 22.3047 30.0114 21.8469 29.859V29.8653ZM23.3029 27.9471C23.4174 27.1595 23.6908 26.4418 24.1867 25.8257C24.6382 25.2604 25.2104 24.8221 25.9225 24.5363C25.8526 25.2477 25.611 25.9146 25.1595 26.518C24.6445 27.2357 23.996 27.6423 23.3029 27.9471ZM26.8953 24.2759L27.1369 24.9301C26.4248 25.4128 25.9607 26.0162 25.6364 26.6832C25.2104 27.566 25.1023 28.4807 25.2613 29.4207C24.6954 29.7764 24.1422 29.9669 23.6208 29.9923C23.3411 29.4207 23.2648 28.8491 23.2966 28.2647C24.4283 27.8773 25.0578 27.2294 25.5537 26.518C25.9543 25.8384 26.2086 25.1397 26.2404 24.4029L26.9017 24.2759H26.8953ZM27.1815 25.2985C27.2895 26.0607 27.2196 26.8229 26.908 27.5724C26.5965 28.2393 26.1578 28.8046 25.541 29.2492C25.4329 28.4489 25.5156 27.6613 25.8653 26.8928C26.1832 26.2957 26.5901 25.7431 27.1815 25.2985ZM28.6057 25.6733C28.8537 26.1877 29.0253 26.7848 28.9554 27.6804C28.841 28.6204 28.5103 29.3254 28.0335 29.8907C27.741 29.1476 27.6392 28.4044 27.7219 27.6613C27.8554 26.9372 28.1034 26.264 28.6057 25.6796V25.6733ZM30.0681 25.6606C30.4114 26.0798 30.7166 26.5942 30.8947 27.4136C31.0473 28.2711 30.99 29.1031 30.6403 29.8971C30.1063 29.2302 29.8328 28.4934 29.7184 27.7058C29.6739 26.9944 29.7438 26.3021 30.0681 25.6542V25.6606ZM31.4733 25.2985C32.7195 26.0353 33.3426 27.8836 33.1073 29.2174C32.5669 28.8618 32.1727 28.3409 31.8738 27.7248C31.4606 26.9055 31.3588 26.0988 31.4733 25.3049V25.2985ZM31.7594 24.2886L32.3952 24.441C32.4842 25.1969 32.7513 25.9591 33.2599 26.7149C33.8131 27.4072 34.468 27.9852 35.3645 28.2774C35.3836 28.8681 35.3455 29.4461 35.053 29.9923C34.538 29.9542 33.9848 29.7637 33.4062 29.4715C33.5842 28.4743 33.4507 27.4771 32.9484 26.4799C32.6114 25.8193 32.1091 25.343 31.5305 24.9428L31.753 24.2823L31.7594 24.2886ZM35.6952 28.3917C36.261 28.5378 36.8206 28.5632 37.3865 28.4997C37.2974 28.9761 37.1194 29.427 36.846 29.859C36.4264 30.0114 35.9368 30.0559 35.409 30.0432C35.5998 29.5223 35.7079 28.9761 35.6888 28.3917H35.6952ZM32.7449 24.5363C33.4253 24.7967 33.9721 25.2286 34.4362 25.7558C34.9957 26.391 35.2882 27.1151 35.3455 27.9281C34.6715 27.6359 34.0357 27.2421 33.5079 26.518C33.0183 25.832 32.8149 25.1778 32.7449 24.5363ZM32.7513 23.4947L33.4189 23.4565C33.705 24.1362 34.0929 24.7904 34.7351 25.3747C35.4408 25.9591 36.2674 26.3592 37.3102 26.4227C37.4564 27.0007 37.5708 27.5851 37.4373 28.2012C36.8524 28.2711 36.261 28.2139 35.6761 28.0424C35.5744 27.0134 35.1865 26.0607 34.379 25.2159C33.8703 24.7205 33.3045 24.3966 32.6941 24.1806L32.7449 23.4947H32.7513ZM33.7877 23.4883C35.2692 23.736 36.4963 24.4283 37.1766 26.0925C35.4917 25.9654 34.3218 24.8221 33.7877 23.4883ZM33.5334 22.5165L34.1692 22.3133C34.557 22.8595 35.0466 23.3041 35.6507 23.6534C36.5726 24.1552 37.5772 24.3458 38.6772 24.1679C39.0078 24.6888 39.2113 25.235 39.2367 25.8384C38.7026 26.0798 38.1304 26.1623 37.5327 26.1242C37.113 25.1397 36.4899 24.3077 35.4981 23.7424C34.9067 23.4057 34.29 23.2279 33.6414 23.1898L33.527 22.5165H33.5334ZM34.5507 22.2307C36.42 21.9512 38.0668 23.2088 38.4546 23.8948C36.7061 24.079 35.2437 23.3168 34.5507 22.2307ZM34.0039 21.3351L34.557 20.9858C35.142 21.4494 35.8032 21.8115 36.6235 21.9576C37.539 22.0783 38.461 22.0973 39.402 21.6209C39.8662 22.0084 40.2159 22.4657 40.3812 23.0373C39.9552 23.4057 39.4211 23.6471 38.8171 23.7995C38.2448 22.9357 37.3928 22.3958 36.3564 22.0528C35.5934 21.8496 34.9194 21.8305 34.2963 21.9512L33.9975 21.3351H34.0039ZM40.9916 20.376C41.2586 20.7508 41.4685 21.1636 41.5511 21.6781C41.3604 22.1227 41.0488 22.5102 40.661 22.8531C40.4193 22.3133 40.076 21.8686 39.6818 21.4685C40.1904 21.1954 40.6228 20.827 40.9916 20.376ZM34.9004 20.827C36.2038 20.1601 38.035 20.4395 39.1413 21.3732C37.7489 22.0338 36.0957 21.7543 34.9004 20.827ZM34.1883 20.0838L34.6333 19.5884C35.32 19.8742 36.0512 20.0966 37.005 20.0013C37.8697 19.8806 38.7026 19.6138 39.4529 18.9787C39.9552 19.2454 40.4193 19.5884 40.7881 20.0838C40.4321 20.5666 39.9806 20.935 39.4592 21.2208C38.7598 20.6174 37.8951 20.3189 36.9477 20.1791C36.0639 20.1029 35.3009 20.2807 34.6206 20.6047L34.1819 20.0838H34.1883ZM34.9131 19.3344C36.1021 18.4324 37.787 18.1276 39.154 18.8072C38.0414 19.7409 36.153 20.0394 34.9131 19.3344ZM39.9234 25.8765L39.5991 26.4545V26.0035L39.9234 25.8765ZM40.7309 24.422L40.0633 25.6161L40.2667 25.2477L40.1587 25.3112C40.0506 25.3747 39.5546 25.686 39.5546 25.686C39.5546 25.686 39.5165 25.362 39.3639 24.8984C39.2113 24.4347 38.9951 24.0854 39.0078 24.0854C39.0205 24.0854 39.3957 23.9647 39.7517 23.8186C40.1078 23.6725 40.5211 23.3486 40.5211 23.3486C40.5211 23.3486 40.5719 23.4502 40.6228 23.7297C40.6737 24.0091 40.7245 24.422 40.7245 24.422H40.7309ZM35.5616 17.9751H44.3169L40.9725 23.9901C40.9725 23.9901 40.9471 23.7932 40.9026 23.6153C40.8581 23.4311 40.769 23.1771 40.769 23.1771C40.769 23.1771 40.8263 23.1136 40.928 23.031C41.0297 22.9484 41.532 22.3704 41.5893 22.2561C41.6528 22.1418 41.8881 21.8686 41.8499 21.6781C41.8054 21.4876 41.7164 21.1382 41.5893 20.8333C41.4557 20.5285 41.1823 20.1029 41.1823 20.1029C41.1823 20.1029 41.2904 20.0076 41.4748 19.6519C41.6592 19.2899 41.8881 18.5087 41.8563 18.3753C41.8245 18.2419 41.6338 18.0323 41.6338 18.0323H41.2713C41.2713 18.0323 41.5448 18.407 41.5511 18.5023C41.5638 18.5976 41.4239 19.0612 41.3031 19.3153C41.176 19.5694 40.9789 19.8488 40.9789 19.8488C40.9789 19.8488 40.9598 19.8171 40.8835 19.7218C40.8072 19.6265 40.6927 19.4804 40.4384 19.2454C40.1841 19.0104 39.7072 18.7564 39.7072 18.7564C39.7072 18.7564 39.7962 18.6801 39.9425 18.5087C40.0951 18.3308 40.3049 18.0323 40.3049 18.0323H39.9361C39.9361 18.0323 39.9043 18.064 39.7835 18.2165C39.6563 18.3689 39.4084 18.6039 39.4084 18.6039C39.4084 18.6039 39.1477 18.4578 38.5246 18.2863C37.9015 18.1149 37.1194 18.1276 36.2928 18.3435C35.4663 18.5595 34.894 19.0041 34.8241 19.0549C34.7605 19.1057 34.6206 19.201 34.5761 19.1946C34.5316 19.1883 34.4744 19.2073 34.3854 19.2962C34.2963 19.3788 34.3218 19.4233 34.3027 19.455C34.2836 19.4868 34.0102 19.8044 33.9848 19.8044C33.953 19.8044 33.7114 20.0457 33.6796 20.0711C33.6478 20.1029 33.5651 20.2045 33.4698 20.3125C33.3744 20.4205 33.4125 20.5094 33.4125 20.5094C33.4125 20.5094 33.4634 20.5475 33.4634 20.6237C33.4634 20.7 33.3935 20.719 33.3808 20.719C33.368 20.719 33.1964 21.3478 33.1836 21.4431C33.1646 21.5447 33.19 21.5701 33.1964 21.6527C33.1964 21.7353 33.1073 21.7543 33.0628 21.7861C33.0183 21.8115 32.8276 22.1799 32.8085 22.2116C32.7894 22.2434 32.6623 22.4466 32.6623 22.4975C32.6623 22.5483 32.6496 22.5991 32.6114 22.6435C32.5733 22.688 32.5287 22.6562 32.4779 22.6753C32.427 22.688 32.2681 22.9294 32.1473 23.031C32.0264 23.1326 31.8929 23.266 31.8929 23.266L31.912 23.3168C31.912 23.3168 31.7975 23.4248 31.7721 23.4184C31.7467 23.4184 31.4478 23.6026 31.2952 23.6725C31.1426 23.7424 30.8947 23.971 30.8438 23.9583C30.7929 23.952 30.2525 23.9964 30.0172 24.1425C29.7883 24.2886 29.4704 24.6951 29.4704 24.6951L29.3051 24.53L29.2479 24.5173V24.4601L28.9872 24.1616H28.8982L28.841 24.2314H28.7265L28.6756 24.1362L27.919 23.9329L27.6647 23.952L27.6456 23.8376L26.9589 23.4248L26.8127 23.4502L26.7427 23.374V23.2724L26.1451 22.6944L26.0751 22.7134L25.9988 22.6245V22.4848L25.5982 21.767H25.5347L25.452 21.6717L25.4902 21.532L25.2931 20.7698L25.1786 20.6555C25.2549 20.4332 25.2485 20.1918 25.2168 19.9441L24.8607 19.563L24.6636 19.8488L24.333 19.4614L24.6064 19.2835L24.3965 19.0549L24.0659 19.2327C23.5 18.7119 22.7498 18.3753 21.8532 18.1974C20.9059 18.0831 20.0411 18.2419 19.2209 18.5849L18.7186 17.9878H18.318L18.9284 18.7373C18.9284 18.7373 18.8203 18.8262 18.7377 18.877C18.655 18.9279 18.4643 19.0739 18.2227 19.2518C17.9811 19.4296 17.6695 19.8361 17.6695 19.8361C17.6695 19.8361 17.6631 19.8361 17.5805 19.6964C17.4978 19.5567 17.2499 19.0231 17.1672 18.7627C17.0845 18.5023 17.1163 18.4261 17.1926 18.3308C17.2689 18.2355 17.4279 17.9878 17.4279 17.9878H17.0655C17.0655 17.9878 16.8366 18.3181 16.8175 18.4134C16.7984 18.5087 16.8684 18.8199 16.9828 19.1438C17.0909 19.4741 17.4025 19.9759 17.4025 19.9759C17.4025 19.9759 17.5169 20.0838 17.4533 20.1664C17.3897 20.249 17.2626 20.3824 17.0718 20.8333C16.8811 21.2843 16.7476 21.8051 16.7476 21.8051L16.9955 22.2497L17.0337 22.2307C17.0337 22.2307 17.0782 22.2815 17.2499 22.5038C17.4279 22.7261 17.8666 23.1517 17.8666 23.1517L17.7458 23.5836L17.9874 24.0155C17.9874 24.0155 17.9874 23.9901 18.0129 23.8503C18.0383 23.7106 18.1464 23.393 18.1464 23.393C18.1464 23.393 18.5279 23.6471 18.7886 23.7932C19.0492 23.9393 19.6533 24.1235 19.6533 24.1235C19.6533 24.1235 19.4498 24.441 19.3227 24.8094C19.1955 25.1778 19.1128 25.7114 19.1128 25.7114L18.8649 25.5843L19.3544 26.4545V26.1496C19.3544 26.1496 19.7296 26.2894 20.1238 26.3783C20.518 26.4672 21.0267 26.4418 21.0267 26.4418C21.0267 26.4418 20.9694 26.6578 20.9186 27.0643C20.8677 27.4708 20.9059 28.1567 20.9059 28.1567L20.1874 27.9344L20.4163 28.3409L20.9313 28.4743C20.9313 28.4743 20.944 28.5251 21.0267 28.8173C21.1093 29.1095 21.3509 29.6621 21.3509 29.6621L21.1411 29.624L21.37 30.0241L21.6434 30.1384L21.9931 30.583L22.222 30.4115L22.1203 30.2528C22.1203 30.2528 22.292 30.2972 22.4763 30.3226C22.6607 30.348 23.411 30.3607 23.411 30.3607L23.6335 30.7736H24.0087L23.7226 30.3099C23.7226 30.3099 23.9324 30.329 24.4347 30.1448C24.937 29.9606 25.3121 29.7573 25.3121 29.7573C25.3121 29.7573 25.3566 29.9098 25.4393 30.113C25.5219 30.3163 25.7318 30.7799 25.7318 30.7799H26.0751C26.0751 30.7799 25.9607 30.5513 25.8335 30.2718C25.7063 29.9923 25.6046 29.5858 25.6046 29.5858C25.6046 29.5858 25.9543 29.3889 26.4503 28.8364C26.9462 28.2838 27.3213 27.5216 27.4549 26.6959C27.5884 25.8638 27.4867 25.0889 27.4867 25.0889C27.4867 25.0889 27.5375 25.0508 27.6838 24.9619C27.83 24.873 28.0716 24.784 28.0716 24.784C28.0716 24.784 28.0716 24.7904 28.167 24.9047C28.2624 25.0127 28.4595 25.3493 28.4595 25.3493C28.4595 25.3493 28.256 25.578 28.0144 25.9654C27.7728 26.3529 27.4867 27.0261 27.4358 27.5724C27.3849 28.125 27.3213 28.4934 27.4485 29.0904C27.5757 29.6875 27.8427 30.1511 27.8109 30.1829C27.7791 30.2146 27.1433 30.7736 27.1433 30.7736H27.6202L27.9508 30.4751L28.1352 30.7736H28.5294L28.1924 30.2274C28.1924 30.2274 28.2306 30.2019 28.3832 29.986C28.5358 29.77 28.9618 29.0078 29.108 28.4807C29.2479 27.9535 29.3115 27.077 29.1716 26.4418C29.0317 25.8003 28.8219 25.3747 28.8219 25.3747L29.3496 24.9492L29.8392 25.3874L29.8138 25.4573C29.7883 25.5272 29.623 25.8447 29.5276 26.2767C29.4323 26.7086 29.3878 27.3945 29.4323 27.7883C29.4768 28.1821 29.5467 28.6395 29.8074 29.1793C30.0681 29.7192 30.4623 30.2146 30.4623 30.2146C30.4623 30.2146 30.3924 30.3671 30.3351 30.4497C30.2779 30.5322 30.1253 30.7736 30.1253 30.7736H30.4877C30.4877 30.7736 30.6849 30.4306 30.6976 30.456C30.7103 30.4878 31.0218 30.7672 31.0218 30.7672H31.5305L30.8375 30.1765C30.8375 30.1765 30.8692 30.1511 30.9773 29.8526C31.0854 29.5541 31.2571 28.9507 31.2635 28.3028C31.2698 27.6486 31.1299 26.969 30.8629 26.3719C30.5958 25.7749 30.2207 25.343 30.2207 25.343C30.2207 25.343 30.3733 25.0699 30.4623 24.9047C30.5513 24.7396 30.6149 24.7777 30.6149 24.7777C30.6149 24.7777 30.7039 24.7967 30.8565 24.873C31.0091 24.9555 31.2062 25.0699 31.2062 25.0699C31.2062 25.0699 31.2062 25.108 31.1617 25.3747C31.1172 25.6415 31.0791 25.9083 31.1935 26.6641C31.308 27.4199 31.6958 28.1377 31.9819 28.5569C32.2681 28.9761 33.0438 29.5604 33.0438 29.5604C33.0438 29.5604 33.0438 29.5668 33.0374 29.6112C33.0247 29.6494 32.9611 29.9098 32.8657 30.1575C32.7704 30.4052 32.586 30.7482 32.586 30.7482H32.923C32.923 30.7482 32.9484 30.799 33.0946 30.4497C33.2409 30.1003 33.3235 29.7256 33.3235 29.7256L33.4761 29.8145C33.6287 29.9034 33.794 29.986 34.1755 30.113C34.557 30.2401 34.9194 30.3226 34.9194 30.3226C34.9194 30.3226 34.9195 30.3417 34.8686 30.4179C34.8241 30.5005 34.6524 30.7482 34.6524 30.7482H35.0085L35.2374 30.3353C35.2374 30.3353 35.3327 30.3798 35.7842 30.348C36.2356 30.3163 36.5535 30.2464 36.5535 30.2464L36.4518 30.3861L36.6425 30.5767C36.6425 30.5767 36.687 30.5513 36.7697 30.4687C36.846 30.3861 37.0367 30.113 37.0367 30.113C37.0367 30.113 37.0495 30.113 37.1512 30.0749C37.2529 30.0368 37.5708 29.8844 37.5708 29.8844L37.4437 29.624L37.2593 29.6875C37.2593 29.6875 37.3928 29.4588 37.4755 29.2556C37.5581 29.0523 37.7171 28.4553 37.7171 28.4553L37.8379 28.4298C37.9651 28.4044 38.6009 28.2075 38.6009 28.2075L38.8743 27.7121C38.8743 27.7121 38.728 27.8264 38.4674 27.909C38.2067 27.9916 37.7425 28.1186 37.7425 28.1186C37.7425 28.1186 37.7934 27.9979 37.7807 27.5089C37.7679 27.0134 37.6026 26.4227 37.6026 26.4227C37.6026 26.4227 37.8315 26.4418 38.213 26.4037C38.6009 26.3656 39.2749 26.1306 39.2749 26.1306V26.2449C39.2749 26.3592 39.2558 27.0261 39.2558 27.0261L39.4847 26.6196L37.5391 30.1194H38.2448L45.5123 17.1558H36.242L35.5426 17.9624L35.5616 17.9751Z" fill="#D6992D"/>
<path fill-rule="evenodd" clip-rule="evenodd" d="M19.5388 18.8008C20.2255 18.5213 20.9694 18.3689 21.8723 18.4959C22.5145 18.6103 23.2838 18.9215 23.7671 19.3534C23.4047 19.5948 22.4891 19.7662 21.6688 19.6964C20.766 19.6138 20.0984 19.2708 19.5388 18.8008ZM19.2018 18.9596C19.914 19.5439 20.7342 19.925 21.7006 20.0076C22.5399 20.0457 23.3347 19.9568 24.0468 19.5884L24.511 20.1092L24.0596 20.5856C23.1885 20.2045 22.4891 20.1664 21.7388 20.1855C20.6706 20.2363 19.8567 20.7126 19.2209 21.2335C18.6868 20.9603 18.2608 20.5538 17.8857 20.0838C18.2735 19.6138 18.7059 19.22 19.2082 18.9532L19.2018 18.9596ZM24.9624 20.0076V20.1982L24.8988 20.0902L24.9624 20.0076ZM24.689 20.3697C24.8289 20.5348 24.937 20.738 24.7844 21.0429L24.352 20.7507L24.689 20.3697ZM25.0959 21.1255L25.1341 21.316L25.026 21.2589L25.0896 21.1255H25.0959ZM24.9179 21.5765C25.1405 21.6781 25.2485 21.8686 25.2104 22.1862L24.6827 22.0401L24.9243 21.5765H24.9179ZM25.4965 22.218L25.5728 22.3641H25.4711L25.4965 22.218ZM25.4457 22.6499C25.7 22.7134 25.8653 22.8722 25.878 23.2025L25.3376 23.1707L25.4457 22.6499ZM26.1896 23.1389L26.3231 23.2723L26.1768 23.285L26.1896 23.1389ZM27.0797 23.8313L27.245 23.9329L27.0924 23.9647L27.0797 23.8313ZM28.1288 24.3013L28.3259 24.3585L28.1988 24.4347L28.1288 24.3013ZM26.2532 23.5645C26.5266 23.5836 26.73 23.6979 26.7872 24.0091L26.2722 24.0917L26.2532 23.5645ZM27.2514 24.2378C27.5375 24.1743 27.7601 24.2378 27.8554 24.5045L27.404 24.7586L27.2514 24.2378ZM28.4086 24.6633C28.6439 24.5744 28.8537 24.5935 29.0571 24.7268L28.682 25.0952L28.4086 24.6633ZM29.6294 24.7459C29.7883 24.5998 29.9982 24.549 30.2843 24.657L29.9982 25.0889L29.6294 24.7523V24.7459ZM30.386 24.3521L30.564 24.2949L30.5259 24.4156L30.3797 24.3458L30.386 24.3521ZM30.8057 24.5109C30.9265 24.2759 31.1363 24.187 31.4288 24.2378L31.2952 24.7904L30.8057 24.5109ZM31.4796 23.9138L31.6068 23.8567L31.5941 23.952L31.4796 23.9138ZM31.8929 23.9964C31.9438 23.7551 32.1155 23.6026 32.4461 23.5582L32.4079 24.1044L31.8929 23.9964ZM32.3761 23.2469L32.5097 23.158V23.2533H32.3761V23.2469ZM32.8085 23.1771C32.8403 22.9293 32.9548 22.7451 33.2409 22.6753L33.349 23.1771H32.8085ZM33.0883 22.3577L33.1709 22.2053L33.2218 22.3577H33.0883ZM33.4888 22.1672C33.4316 21.9194 33.5206 21.7098 33.7622 21.5447L34.0102 22.0401L33.4952 22.1735L33.4888 22.1672ZM33.5334 21.3033L33.616 21.1064L33.6796 21.2779L33.5397 21.3033H33.5334ZM33.9021 21.0366C33.7622 20.7952 33.8004 20.5793 33.9848 20.376L34.3281 20.7507L33.9021 21.0366ZM17.6695 20.376C18.0446 20.7762 18.4516 21.1445 18.9284 21.4558C18.5152 21.8813 18.2163 22.3386 18.0192 22.815C17.6123 22.5038 17.3198 22.129 17.1291 21.6908C17.2054 21.2589 17.358 20.827 17.6695 20.376ZM19.5515 21.3796C20.0666 20.9095 20.7787 20.592 21.7833 20.484C22.4255 20.4395 23.0804 20.4967 23.7671 20.827C23.2521 21.2843 22.6035 21.5447 21.8596 21.6781C21.033 21.8178 20.27 21.6971 19.5515 21.3796ZM19.2909 21.6209C20.1365 22.0147 21.0902 22.1544 22.2093 21.9194C22.9023 21.7289 23.5573 21.4812 24.0723 20.9603C24.2757 21.062 24.4728 21.1827 24.6382 21.3478C24.6064 21.551 24.5173 21.7416 24.3775 21.9194C23.3601 21.7924 22.4763 21.9321 21.6943 22.2561C20.8613 22.6626 20.2764 23.1898 19.8758 23.7995C19.2527 23.6852 18.7313 23.4248 18.2926 23.0627C18.4834 22.5292 18.7886 22.0338 19.2972 21.6209H19.2909ZM20.2001 23.8821C20.5816 23.3422 21.1093 22.8785 21.8469 22.5228C22.559 22.2243 23.322 22.11 24.1486 22.2243C23.7798 22.7833 23.2393 23.2215 22.5463 23.5518C21.7324 23.863 20.9567 23.952 20.2001 23.8757V23.8821ZM19.3926 25.8003C19.5198 25.2223 19.6787 24.657 19.9903 24.1679C20.9376 24.2695 21.9041 24.2441 22.9532 23.7042C23.5636 23.3358 24.1168 22.9103 24.4983 22.3005L25.1405 22.5038L25.026 23.1707C24.0723 23.266 23.322 23.5518 22.7561 23.9964C21.9613 24.5808 21.4082 25.2858 21.1538 26.1242C20.5371 26.1687 19.9521 26.067 19.399 25.813L19.3926 25.8003ZM21.4972 26.0924C21.8151 25.3557 22.2474 24.7459 22.8515 24.314C23.4047 23.9011 24.0596 23.5963 24.8988 23.4819C24.689 24.1171 24.2376 24.6824 23.659 25.1969C23.0168 25.7431 22.292 26.0289 21.4972 26.0924ZM21.2365 28.1821C21.1157 27.5724 21.1729 26.988 21.3827 26.4291C22.6544 26.3084 23.5445 25.7749 24.2567 25.0635C24.7399 24.5363 25.0769 24.0091 25.2231 23.4629L25.9162 23.4946L25.9416 24.187C24.9942 24.5554 24.3584 25.0952 23.8624 25.7113C23.2966 26.4989 23.0232 27.2802 22.9914 28.0614C22.3746 28.2647 21.7897 28.3091 21.2301 28.1758L21.2365 28.1821ZM21.8469 29.8653C21.5608 29.4651 21.3891 29.0078 21.3001 28.506C21.8532 28.5442 22.4064 28.5315 22.9659 28.3727C22.9977 28.9316 23.0804 29.4969 23.2775 30.0558C22.7815 30.0749 22.3047 30.0114 21.8469 29.8589V29.8653ZM23.3029 27.9471C23.4174 27.1595 23.6908 26.4418 24.1867 25.8257C24.6382 25.2604 25.2104 24.8221 25.9225 24.5363C25.8526 25.2477 25.611 25.9146 25.1595 26.518C24.6445 27.2357 23.996 27.6422 23.3029 27.9471ZM26.8953 24.2759L27.1369 24.9301C26.4248 25.4128 25.9607 26.0162 25.6364 26.6831C25.2104 27.566 25.1023 28.4806 25.2613 29.4207C24.6954 29.7764 24.1422 29.9669 23.6208 29.9923C23.3411 29.4207 23.2648 28.849 23.2966 28.2647C24.4283 27.8772 25.0578 27.2294 25.5537 26.518C25.9543 25.8384 26.2086 25.1397 26.2404 24.4029L26.9017 24.2759H26.8953ZM27.1815 25.2985C27.2895 26.0607 27.2196 26.8229 26.908 27.5724C26.5965 28.2393 26.1578 28.8046 25.541 29.2492C25.4329 28.4489 25.5156 27.6613 25.8653 26.8927C26.1832 26.2957 26.5901 25.7431 27.1815 25.2985ZM28.6057 25.6732C28.8537 26.1877 29.0253 26.7848 28.9554 27.6803C28.841 28.6204 28.5103 29.3254 28.0335 29.8907C27.741 29.1476 27.6392 28.4044 27.7219 27.6613C27.8554 26.9372 28.1034 26.2639 28.6057 25.6796V25.6732ZM30.0681 25.6605C30.4114 26.0797 30.7166 26.5942 30.8947 27.4136C31.0473 28.271 30.99 29.1031 30.6403 29.897C30.1063 29.2301 29.8328 28.4933 29.7184 27.7057C29.6739 26.9944 29.7438 26.302 30.0681 25.6542V25.6605ZM31.4733 25.2985C32.7195 26.0353 33.3426 27.8836 33.1073 29.2174C32.5669 28.8617 32.1727 28.3409 31.8738 27.7248C31.4606 26.9054 31.3588 26.0988 31.4733 25.3048V25.2985ZM31.7594 24.2886L32.3952 24.441C32.4842 25.1969 32.7513 25.9591 33.2599 26.7149C33.8131 27.4072 34.468 27.9852 35.3645 28.2774C35.3836 28.8681 35.3455 29.4461 35.053 29.9923C34.538 29.9542 33.9848 29.7637 33.4062 29.4715C33.5842 28.4743 33.4507 27.4771 32.9484 26.4799C32.6114 25.8193 32.1091 25.343 31.5305 24.9428L31.753 24.2822L31.7594 24.2886ZM35.6952 28.3917C36.261 28.5378 36.8206 28.5632 37.3865 28.4997C37.2974 28.9761 37.1194 29.427 36.846 29.8589C36.4264 30.0114 35.9368 30.0558 35.409 30.0431C35.5998 29.5223 35.7079 28.9761 35.6888 28.3917H35.6952ZM32.7449 24.5363C33.4253 24.7967 33.9721 25.2286 34.4362 25.7558C34.9958 26.391 35.2882 27.115 35.3455 27.9281C34.6715 27.6359 34.0357 27.2421 33.5079 26.518C33.0183 25.832 32.8149 25.1778 32.7449 24.5363ZM32.7513 23.4946L33.4189 23.4565C33.705 24.1361 34.0929 24.7904 34.7351 25.3747C35.4408 25.9591 36.2674 26.3592 37.3102 26.4227C37.4564 27.0007 37.5708 27.5851 37.4373 28.2012C36.8524 28.271 36.261 28.2139 35.6761 28.0424C35.5744 27.0134 35.1865 26.0607 34.379 25.2159C33.8703 24.7205 33.3045 24.3966 32.6941 24.1806L32.7449 23.4946H32.7513ZM33.7877 23.4883C35.2692 23.736 36.4963 24.4283 37.1766 26.0924C35.4917 25.9654 34.3218 24.8221 33.7877 23.4883ZM33.5334 22.5165L34.1692 22.3132C34.557 22.8595 35.0466 23.3041 35.6507 23.6534C36.5726 24.1552 37.5772 24.3458 38.6772 24.1679C39.0078 24.6887 39.2113 25.235 39.2367 25.8384C38.7026 26.0797 38.1304 26.1623 37.5327 26.1242C37.113 25.1397 36.4899 24.3076 35.4981 23.7424C34.9067 23.4057 34.29 23.2279 33.6414 23.1898L33.527 22.5165H33.5334ZM34.5507 22.2307C36.42 21.9512 38.0668 23.2088 38.4546 23.8948C36.7061 24.079 35.2437 23.3168 34.5507 22.2307ZM34.0039 21.3351L34.557 20.9858C35.142 21.4494 35.8032 21.8115 36.6235 21.9576C37.5391 22.0782 38.461 22.0973 39.402 21.6209C39.8662 22.0084 40.2159 22.4657 40.3812 23.0373C39.9552 23.4057 39.4211 23.6471 38.8171 23.7995C38.2448 22.9357 37.3928 22.3958 36.3564 22.0528C35.5934 21.8496 34.9195 21.8305 34.2963 21.9512L33.9975 21.3351H34.0039ZM40.9916 20.376C41.2586 20.7507 41.4685 21.1636 41.5511 21.6781C41.3604 22.1227 41.0488 22.5101 40.661 22.8531C40.4193 22.3132 40.076 21.8686 39.6818 21.4685C40.1904 21.1954 40.6228 20.827 40.9916 20.376ZM34.9004 20.827C36.2038 20.16 38.035 20.4395 39.1413 21.3732C37.7489 22.0338 36.0957 21.7543 34.9004 20.827ZM34.1883 20.0838L34.6333 19.5884C35.32 19.8742 36.0512 20.0965 37.005 20.0013C37.8697 19.8806 38.7026 19.6138 39.4529 18.9787C39.9552 19.2454 40.4193 19.5884 40.7881 20.0838C40.4321 20.5666 39.9806 20.9349 39.4592 21.2208C38.7598 20.6174 37.8951 20.3188 36.9477 20.1791C36.0639 20.1029 35.3009 20.2807 34.6206 20.6047L34.1819 20.0838H34.1883ZM34.9131 19.3343C36.1021 18.4324 37.787 18.1275 39.1541 18.8072C38.0414 19.7408 36.153 20.0394 34.9131 19.3343ZM40.9662 23.9583C40.9598 23.8948 40.9344 23.7487 40.9026 23.6153C40.8581 23.4311 40.769 23.1771 40.769 23.1771C40.769 23.1771 40.8263 23.1135 40.928 23.031C41.0297 22.9484 41.532 22.3704 41.5893 22.2561C41.6528 22.1417 41.8881 21.8686 41.8499 21.6781C41.8054 21.4875 41.7164 21.1382 41.5893 20.8333C41.4557 20.5284 41.1823 20.1029 41.1823 20.1029C41.1823 20.1029 41.2904 20.0076 41.4748 19.6519C41.6592 19.2899 41.8881 18.5086 41.8563 18.3752C41.8245 18.2419 41.6338 18.0323 41.6338 18.0323H41.2714C41.2714 18.0323 41.5448 18.407 41.5511 18.5023C41.5638 18.5976 41.4239 19.0612 41.3031 19.3153C41.176 19.5693 40.9789 19.8488 40.9789 19.8488C40.9789 19.8488 40.9598 19.8171 40.8835 19.7218C40.8072 19.6265 40.6927 19.4804 40.4384 19.2454C40.1841 19.0104 39.7072 18.7563 39.7072 18.7563C39.7072 18.7563 39.7962 18.6801 39.9425 18.5086C40.0951 18.3308 40.3049 18.0323 40.3049 18.0323H39.9361C39.9361 18.0323 39.9043 18.064 39.7835 18.2165C39.6564 18.3689 39.4084 18.6039 39.4084 18.6039C39.4084 18.6039 39.1477 18.4578 38.5246 18.2863C37.9015 18.1148 37.1194 18.1275 36.2928 18.3435C35.4663 18.5594 34.894 19.0041 34.8241 19.0549C34.7605 19.1057 34.6206 19.201 34.5761 19.1946C34.5316 19.1883 34.4744 19.2073 34.3854 19.2962C34.2963 19.3788 34.3218 19.4233 34.3027 19.455C34.2836 19.4868 34.0102 19.8044 33.9848 19.8044C33.953 19.8044 33.7114 20.0457 33.6796 20.0711C33.6478 20.1029 33.5651 20.2045 33.4698 20.3125C33.3744 20.4205 33.4125 20.5094 33.4125 20.5094C33.4125 20.5094 33.4634 20.5475 33.4634 20.6237C33.4634 20.6999 33.3935 20.719 33.3808 20.719C33.368 20.719 33.1964 21.3478 33.1836 21.4431C33.1646 21.5447 33.19 21.5701 33.1964 21.6527C33.1964 21.7352 33.1073 21.7543 33.0628 21.7861C33.0183 21.8115 32.8276 22.1799 32.8085 22.2116C32.7894 22.2434 32.6623 22.4466 32.6623 22.4974C32.6623 22.5482 32.6496 22.5991 32.6114 22.6435C32.5733 22.688 32.5287 22.6562 32.4779 22.6753C32.427 22.688 32.2681 22.9293 32.1473 23.031C32.0264 23.1326 31.8929 23.266 31.8929 23.266L31.912 23.3168C31.912 23.3168 31.7975 23.4248 31.7721 23.4184C31.7467 23.4184 31.4478 23.6026 31.2952 23.6725C31.1426 23.7424 30.8947 23.971 30.8438 23.9583C30.7929 23.952 30.2525 23.9964 30.0172 24.1425C29.7883 24.2886 29.4704 24.6951 29.4704 24.6951L29.3051 24.5299L29.2479 24.5172V24.4601L28.9872 24.1616H28.8982L28.841 24.2314H28.7265L28.6756 24.1361L27.919 23.9329L27.6647 23.952L27.6456 23.8376L26.9589 23.4248L26.8127 23.4502L26.7427 23.374V23.2723L26.1451 22.6943L26.0751 22.7134L25.9988 22.6245V22.4847L25.5982 21.767H25.5347L25.452 21.6717L25.4902 21.532L25.2931 20.7698L25.1786 20.6555C25.2549 20.4332 25.2485 20.1918 25.2168 19.9441L24.8607 19.563L24.6636 19.8488L24.333 19.4614L24.6064 19.2835L24.3965 19.0549L24.0659 19.2327C23.5 18.7119 22.7498 18.3752 21.8532 18.1974C20.9059 18.0831 20.0411 18.2419 19.2209 18.5849L18.7186 17.9878H18.318L18.9284 18.7373C18.9284 18.7373 18.8203 18.8262 18.7377 18.877C18.655 18.9278 18.4643 19.0739 18.2227 19.2518C17.9811 19.4296 17.6695 19.8361 17.6695 19.8361C17.6695 19.8361 17.6631 19.8361 17.5805 19.6964C17.4978 19.5566 17.2499 19.0231 17.1672 18.7627C17.0845 18.5023 17.1163 18.4261 17.1926 18.3308C17.2689 18.2355 17.4279 17.9878 17.4279 17.9878H17.0655C17.0655 17.9878 16.8366 18.3181 16.8175 18.4134C16.7984 18.5086 16.8684 18.8199 16.9828 19.1438C17.0909 19.4741 17.4025 19.9759 17.4025 19.9759C17.4025 19.9759 17.5169 20.0838 17.4533 20.1664C17.3897 20.249 17.2626 20.3824 17.0718 20.8333C16.8811 21.2843 16.7476 21.8051 16.7476 21.8051L16.9955 22.2497L17.0337 22.2307C17.0337 22.2307 17.0782 22.2815 17.2499 22.5038C17.4279 22.7261 17.8666 23.1517 17.8666 23.1517L17.7458 23.5836L17.9874 24.0155C17.9874 24.0155 17.9874 23.9901 18.0129 23.8503C18.0383 23.7106 18.1464 23.393 18.1464 23.393C18.1464 23.393 18.5279 23.6471 18.7886 23.7932C19.0492 23.9392 19.6533 24.1234 19.6533 24.1234C19.6533 24.1234 19.4498 24.441 19.3227 24.8094C19.1955 25.1778 19.1128 25.7113 19.1128 25.7113L18.8649 25.5843L19.3544 26.4545V26.1496C19.3544 26.1496 19.7296 26.2893 20.1238 26.3783C20.518 26.4672 21.0267 26.4418 21.0267 26.4418C21.0267 26.4418 20.9694 26.6577 20.9186 27.0642C20.8677 27.4707 20.9059 28.1567 20.9059 28.1567L20.1874 27.9344L20.4163 28.3409L20.9313 28.4743C20.9313 28.4743 20.944 28.5251 21.0267 28.8173C21.1093 29.1094 21.3509 29.662 21.3509 29.662L21.1411 29.6239L21.37 30.0241L21.6434 30.1384L21.9931 30.583L22.222 30.4115L22.1203 30.2527C22.1203 30.2527 22.292 30.2972 22.4763 30.3226C22.6607 30.348 23.411 30.3607 23.411 30.3607L23.6335 30.7736H24.0087L23.7226 30.3099C23.7226 30.3099 23.9324 30.329 24.4347 30.1448C24.937 29.9606 25.3121 29.7573 25.3121 29.7573C25.3121 29.7573 25.3566 29.9098 25.4393 30.113C25.5219 30.3163 25.7318 30.7799 25.7318 30.7799H26.0751C26.0751 30.7799 25.9607 30.5513 25.8335 30.2718C25.7063 29.9923 25.6046 29.5858 25.6046 29.5858C25.6046 29.5858 25.9543 29.3889 26.4503 28.8363C26.9462 28.2837 27.3213 27.5216 27.4549 26.6958C27.5884 25.8638 27.4867 25.0889 27.4867 25.0889C27.4867 25.0889 27.5375 25.0508 27.6838 24.9619C27.83 24.8729 28.0716 24.784 28.0716 24.784C28.0716 24.784 28.0716 24.7904 28.167 24.9047C28.2624 25.0127 28.4595 25.3493 28.4595 25.3493C28.4595 25.3493 28.256 25.578 28.0144 25.9654C27.7728 26.3529 27.4867 27.0261 27.4358 27.5724C27.3849 28.125 27.3213 28.4933 27.4485 29.0904C27.5757 29.6874 27.8427 30.1511 27.8109 30.1829C27.7791 30.2146 27.1433 30.7736 27.1433 30.7736H27.6202L27.9508 30.475L28.1352 30.7736H28.5294L28.1924 30.2273C28.1924 30.2273 28.2306 30.2019 28.3832 29.986C28.5358 29.77 28.9618 29.0078 29.108 28.4806C29.2479 27.9535 29.3115 27.0769 29.1716 26.4418C29.0317 25.8003 28.8219 25.3747 28.8219 25.3747L29.3496 24.9492L29.8392 25.3874L29.8138 25.4573C29.7883 25.5272 29.623 25.8447 29.5277 26.2766C29.4323 26.7085 29.3878 27.3945 29.4323 27.7883C29.4768 28.1821 29.5467 28.6394 29.8074 29.1793C30.0681 29.7192 30.4623 30.2146 30.4623 30.2146C30.4623 30.2146 30.3924 30.3671 30.3351 30.4496C30.2779 30.5322 30.1253 30.7736 30.1253 30.7736H30.4877C30.4877 30.7736 30.6849 30.4306 30.6976 30.456C30.7103 30.4877 31.0218 30.7672 31.0218 30.7672H31.5305L30.8375 30.1765C30.8375 30.1765 30.8692 30.1511 30.9773 29.8526C31.0854 29.5541 31.2571 28.9507 31.2635 28.3028C31.2698 27.6486 31.1299 26.969 30.8629 26.3719C30.5958 25.7749 30.2207 25.343 30.2207 25.343C30.2207 25.343 30.3733 25.0698 30.4623 24.9047C30.5513 24.7396 30.6149 24.7777 30.6149 24.7777C30.6149 24.7777 30.7039 24.7967 30.8565 24.8729C31.0091 24.9555 31.2062 25.0698 31.2062 25.0698C31.2062 25.0698 31.2062 25.1079 31.1617 25.3747C31.1172 25.6415 31.0791 25.9082 31.1935 26.6641C31.308 27.4199 31.6958 28.1377 31.9819 28.5569C32.2681 28.9761 33.0438 29.5604 33.0438 29.5604C33.0438 29.5604 33.0438 29.5668 33.0374 29.6112C33.0247 29.6493 32.9611 29.9098 32.8657 30.1575C32.7704 30.4052 32.586 30.7482 32.586 30.7482H32.923C32.923 30.7482 32.9484 30.799 33.0946 30.4496C33.2409 30.1003 33.3235 29.7256 33.3235 29.7256L33.4761 29.8145C33.6287 29.9034 33.794 29.986 34.1755 30.113C34.557 30.24 34.9195 30.3226 34.9195 30.3226C34.9195 30.3226 34.9195 30.3417 34.8686 30.4179C34.8241 30.5005 34.6524 30.7482 34.6524 30.7482H35.0085L35.2374 30.3353C35.2374 30.3353 35.3327 30.3798 35.7842 30.348C36.2356 30.3163 36.5535 30.2464 36.5535 30.2464L36.4518 30.3861L36.6425 30.5767C36.6425 30.5767 36.687 30.5513 36.7697 30.4687C36.846 30.3861 37.0368 30.113 37.0368 30.113C37.0368 30.113 37.0495 30.113 37.1512 30.0749C37.2529 30.0368 37.5708 29.8843 37.5708 29.8843L37.4437 29.6239L37.2593 29.6874C37.2593 29.6874 37.3928 29.4588 37.4755 29.2555C37.5581 29.0523 37.7171 28.4552 37.7171 28.4552L37.8379 28.4298C37.946 28.4044 38.4546 28.252 38.5754 28.2202L38.8425 27.7439C38.7853 27.782 38.6581 27.8582 38.4737 27.9153C38.213 27.9979 37.7489 28.125 37.7489 28.125C37.7489 28.125 37.7997 28.0043 37.787 27.5152C37.7743 27.0198 37.609 26.4291 37.609 26.4291C37.609 26.4291 37.8379 26.4481 38.2194 26.41C38.6072 26.3719 39.2812 26.1369 39.2812 26.1369V26.2512C39.2812 26.3465 39.2685 26.8419 39.2621 26.9944L39.5864 26.41V25.9972L39.8789 25.8765L40.2222 25.2604L40.1523 25.3048C40.0442 25.3684 39.5483 25.6796 39.5483 25.6796C39.5483 25.6796 39.5101 25.3557 39.3575 24.892C39.2049 24.4283 38.9887 24.079 39.0015 24.079C39.0142 24.079 39.3893 23.9583 39.7454 23.8122C40.1014 23.6661 40.5147 23.3422 40.5147 23.3422C40.5147 23.3422 40.5656 23.4438 40.6164 23.7233C40.6546 23.9583 40.6991 24.2822 40.7118 24.3839L40.9534 23.9456L40.9662 23.9583Z" fill="#D6992D"/>
<path fill-rule="evenodd" clip-rule="evenodd" d="M24.7717 13.5543L25.8589 15.409H23.7035L24.7717 13.5543ZM27.2005 14.9262L28.2878 13.0716H26.1323L27.2005 14.9262ZM27.2196 15.8726L29.108 12.6016H25.3058L27.2196 15.8726ZM29.5149 13.548L30.6022 15.4026H28.4468L29.5149 13.548ZM29.5404 12.6016L31.4288 15.8726H27.6265L29.5404 12.6016ZM31.8293 14.9262L32.9166 13.0716H30.7612L31.8293 14.9262ZM31.8548 15.8726L33.7432 12.6016H29.9409L31.8548 15.8726ZM34.2773 13.548L35.3645 15.4026H33.2091L34.2773 13.548ZM34.2963 12.6016L36.1847 15.8726H32.3825L34.2963 12.6016ZM23.8879 16.7682H26.6792L28.2179 22.04L23.8879 16.7682ZM22.9151 16.2982H27.0416L29.3115 24.1424L22.9151 16.2982ZM28.2496 16.7619H30.8247L29.5467 22.1226L28.2496 16.7619ZM27.652 16.2982H31.4415L29.5467 24.1615L27.6456 16.2982H27.652ZM35.1865 16.7682H32.3952L30.8565 22.04L35.1865 16.7682ZM36.1593 16.2982H32.0328L29.7629 24.1424L36.1593 16.2982ZM23.5382 18.0195L23.7416 18.318C22.9024 18.318 22.3301 18.1719 21.8723 17.9687H23.3538C23.3983 18.0004 23.4619 18.0195 23.5382 18.0131V18.0195ZM24.7971 12.6016L26.6855 15.8726H22.8833L24.7971 12.6016ZM35.5934 17.975H36.7888C36.3691 18.1656 35.8478 18.2608 35.2755 18.318L35.568 17.975" fill="#D6992D"/>
<path d="M19.9775 37.8173L21.1347 31.9993H22.2665L21.1157 37.8173H19.9775Z" fill="#D6992D"/>
<path d="M25.2423 34.7051H27.7093L27.2134 37.2013C26.9209 37.3982 26.5648 37.5697 26.1388 37.7031C25.7192 37.8428 25.2868 37.9063 24.8481 37.9063C24.1678 37.9063 23.64 37.7412 23.2776 37.4172C22.7817 36.9726 22.5337 36.3311 22.5337 35.4864C22.5337 34.9211 22.6418 34.3812 22.8516 33.8604C23.1059 33.2379 23.4747 32.7488 23.9452 32.4058C24.4157 32.0629 24.9689 31.8914 25.6111 31.8914C26.2533 31.8914 26.7619 32.0501 27.1434 32.3614C27.5249 32.6726 27.7856 33.1299 27.9064 33.727L26.8509 33.854C26.7556 33.5237 26.6093 33.276 26.3995 33.1109C26.1897 32.9457 25.929 32.8632 25.6174 32.8632C25.2487 32.8632 24.9117 32.9648 24.6065 33.1617C24.3013 33.3649 24.0597 33.6762 23.888 34.0954C23.7163 34.5146 23.6273 34.9719 23.6273 35.4737C23.6273 35.9754 23.7354 36.3248 23.9452 36.5598C24.155 36.7948 24.4666 36.9091 24.8735 36.9091C25.1151 36.9091 25.3631 36.871 25.6238 36.8011C25.8781 36.7313 26.1007 36.6424 26.2851 36.5407L26.4567 35.6769H25.0452L25.2359 34.7051H25.2423Z" fill="#D6992D"/>
<path d="M32.1664 35.7214L33.3109 35.9056C33.0883 36.5598 32.7513 37.0616 32.3063 37.4045C31.8612 37.7475 31.3334 37.9254 30.7358 37.9254C30.0618 37.9254 29.5341 37.7094 29.1526 37.2839C28.7711 36.8519 28.5803 36.2295 28.5803 35.4165C28.5803 34.7559 28.7075 34.1525 28.9618 33.5999C29.2161 33.0537 29.5722 32.6345 30.0236 32.3423C30.4751 32.0501 30.971 31.9041 31.4988 31.9041C32.0964 31.9041 32.5797 32.0692 32.9484 32.4122C33.3172 32.7488 33.5334 33.2125 33.597 33.7905L32.5097 33.8985C32.4461 33.5618 32.3317 33.3141 32.16 33.1617C31.9883 33.0092 31.7594 32.933 31.4733 32.933C31.1618 32.933 30.8693 33.0346 30.5959 33.2315C30.3225 33.4348 30.1063 33.746 29.941 34.1716C29.7757 34.5971 29.693 35.0227 29.693 35.4546C29.693 35.9183 29.8011 36.2803 30.0109 36.5344C30.2208 36.7884 30.4878 36.9155 30.8057 36.9155C31.0982 36.9155 31.3716 36.8138 31.6132 36.6106C31.8612 36.4073 32.0392 36.1152 32.16 35.715" fill="#D6992D"/>
<path d="M37.7299 35.7214L38.8743 35.9056C38.6518 36.5598 38.3148 37.0616 37.8697 37.4045C37.4247 37.7475 36.8969 37.9254 36.2992 37.9254C35.6253 37.9254 35.0975 37.7094 34.716 37.2839C34.3345 36.8519 34.1438 36.2295 34.1438 35.4165C34.1438 34.7559 34.271 34.1525 34.5253 33.5999C34.7796 33.0537 35.1357 32.6345 35.5871 32.3423C36.0386 32.0501 36.5345 31.9041 37.0622 31.9041C37.6599 31.9041 38.1431 32.0692 38.5119 32.4122C38.8807 32.7488 39.0969 33.2125 39.1605 33.7905L38.0732 33.8985C38.0096 33.5618 37.8952 33.3141 37.7235 33.1617C37.5518 33.0092 37.3229 32.933 37.0368 32.933C36.7252 32.933 36.4328 33.0346 36.1594 33.2315C35.886 33.4348 35.6698 33.746 35.5045 34.1716C35.3392 34.5971 35.2565 35.0227 35.2565 35.4546C35.2565 35.9183 35.3646 36.2803 35.5744 36.5344C35.7842 36.7884 36.0513 36.9155 36.3692 36.9155C36.6617 36.9155 36.9351 36.8138 37.1767 36.6106C37.4247 36.4073 37.6027 36.1152 37.7235 35.715" fill="#D6992D"/>
<path fill-rule="evenodd" clip-rule="evenodd" d="M37.5901 4.16668L39.6056 2.52796L37.1641 1.61968L37.5901 4.16668ZM37.2149 5.2528L40.7438 2.35012L36.4329 0.743164L37.2149 5.2528Z" fill="#D6992D"/>
<path fill-rule="evenodd" clip-rule="evenodd" d="M40.572 4.19205L40.9026 6.7708L38.5056 5.74819L40.572 4.1984V4.19205ZM41.0489 3.15039L41.5957 7.68543L37.3674 5.88158L41.0489 3.15674V3.15039Z" fill="#D6992D"/>
<path fill-rule="evenodd" clip-rule="evenodd" d="M42.6957 6.36427L44.9211 5.01773L42.6258 3.77917L42.6957 6.36427ZM42.1743 7.38688L46.0656 4.99232L42.0217 2.80737L42.1743 7.38688Z" fill="#D6992D"/>
<path fill-rule="evenodd" clip-rule="evenodd" d="M45.6205 7.02475L45.4743 9.61621L43.3061 8.16804L45.6205 7.0184V7.02475ZM46.2818 6.08472L45.9829 10.6388L42.1553 8.09182L46.2754 6.08472H46.2818Z" fill="#D6992D"/>
<path fill-rule="evenodd" clip-rule="evenodd" d="M47.1528 9.61626L49.6198 8.7969L47.6551 7.08197L47.1528 9.61626ZM46.4153 10.4991L50.7453 9.02556L47.2864 6.0022L46.4216 10.4991H46.4153Z" fill="#D6992D"/>
<path fill-rule="evenodd" clip-rule="evenodd" d="M49.9313 10.8613L49.1683 13.3448L47.4071 11.4266L49.9313 10.8613ZM50.796 10.1055L49.4227 14.4627L46.3135 11.0773L50.796 10.1055Z" fill="#D6992D"/>
<path fill-rule="evenodd" clip-rule="evenodd" d="M50.9297 13.7131L53.5112 13.4336L51.9598 11.344L50.9297 13.7131ZM50.0269 14.4181L54.5666 13.8973L51.8262 10.207L50.0269 14.4181Z" fill="#D6992D"/>
<path fill-rule="evenodd" clip-rule="evenodd" d="M53.3585 15.5423L52.1187 17.8289L50.7707 15.5995L53.3585 15.5423ZM54.3568 14.9707L52.1504 18.9722L49.7725 15.0406L54.3568 14.9707Z" fill="#D6992D"/>
<path fill-rule="evenodd" clip-rule="evenodd" d="M53.7273 18.5594L56.3088 18.8896L55.2851 16.4951L53.7337 18.5594H53.7273ZM52.6846 19.0357L57.2244 19.582L55.4186 15.3582L52.6846 19.0357Z" fill="#D6992D"/>
<path fill-rule="evenodd" clip-rule="evenodd" d="M55.7427 20.8015L54.0578 22.7769L53.1994 20.3188L55.7427 20.8015ZM56.8364 20.4522L53.848 23.9075L52.3347 19.5693L56.8364 20.4522Z" fill="#D6992D"/>
<path fill-rule="evenodd" clip-rule="evenodd" d="M55.5011 23.8247L57.9681 24.6505L57.4277 22.1035L55.5011 23.8247ZM54.3821 24.0852L58.7311 25.5016L57.7774 21.0046L54.3821 24.0852Z" fill="#D6992D"/>
<path fill-rule="evenodd" clip-rule="evenodd" d="M56.989 26.4416L54.9289 28.0295L54.6047 25.4444L56.989 26.4416ZM58.1335 26.3273L54.4902 29.0902L53.9116 24.5361L58.1271 26.3336L58.1335 26.3273Z" fill="#D6992D"/>
<path fill-rule="evenodd" clip-rule="evenodd" d="M56.1242 29.3254L58.3814 30.6084L58.3433 28.0043L56.1179 29.3254H56.1242ZM54.9797 29.3699L58.9727 31.5993L58.9091 27.0071L54.9861 29.3699H54.9797Z" fill="#D6992D"/>
<path fill-rule="evenodd" clip-rule="evenodd" d="M57.0335 32.2471L54.7064 33.3968L54.8908 30.799L57.0335 32.2471ZM58.178 32.3551L54.0642 34.3495L54.3948 29.77L58.178 32.3551Z" fill="#D6992D"/>
<path fill-rule="evenodd" clip-rule="evenodd" d="M55.603 34.8005L57.6376 36.4138L58 33.835L55.603 34.8005ZM54.4648 34.6671L58.07 37.4809L58.7058 32.9331L54.4648 34.6734V34.6671Z" fill="#D6992D"/>
<path fill-rule="evenodd" clip-rule="evenodd" d="M55.8699 37.8683L53.3393 38.4527L54.1214 35.9692L55.8762 37.8683H55.8699ZM56.9571 38.2367L52.4937 39.2276L53.8734 34.845L56.9571 38.2367Z" fill="#D6992D"/>
<path fill-rule="evenodd" clip-rule="evenodd" d="M53.867 40.1612L55.3803 42.27L56.4358 39.8881L53.8607 40.1612H53.867ZM52.8052 39.723L55.4947 43.4132L57.3577 39.2148L52.7988 39.723H52.8052Z" fill="#D6992D"/>
<path fill-rule="evenodd" clip-rule="evenodd" d="M53.5428 43.1781L50.9423 43.2226L52.2203 40.9551L53.5428 43.1781ZM54.5284 43.7625L49.9568 43.8133L52.214 39.8118L54.5284 43.7625Z" fill="#D6992D"/>
<path fill-rule="evenodd" clip-rule="evenodd" d="M51.1078 45.0138L52.1442 47.3957L53.6765 45.2933L51.1078 45.0202V45.0138ZM50.1667 44.3596L52.0234 48.5326L54.732 44.8169L50.1731 44.3596H50.1667Z" fill="#D6992D"/>
<path fill-rule="evenodd" clip-rule="evenodd" d="M50.1477 47.8404L47.598 47.3386L49.3274 45.3886L50.1477 47.8404ZM50.987 48.6216L46.5107 47.707L49.5627 44.2708L50.9933 48.6216H50.987Z" fill="#D6992D"/>
<path fill-rule="evenodd" clip-rule="evenodd" d="M47.4452 49.1487L48.0238 51.683L49.9249 49.8982L47.4516 49.1487H47.4452ZM46.6377 48.3293L47.6804 52.7755L51.0313 49.6314L46.6377 48.3293Z" fill="#D6992D"/>
<path fill-rule="evenodd" clip-rule="evenodd" d="M45.9192 51.7654L43.5349 50.7238L45.6458 49.193L45.9192 51.7591V51.7654ZM46.5741 52.7118L42.3967 50.8508L46.1227 48.1514L46.5741 52.7055V52.7118Z" fill="#D6992D"/>
<path fill-rule="evenodd" clip-rule="evenodd" d="M42.9754 52.4833L42.9945 55.0811L45.2326 53.7472L42.9754 52.4833ZM42.365 51.5115L42.4349 56.0783L46.3834 53.7218L42.365 51.5115Z" fill="#D6992D"/>
<path fill-rule="evenodd" clip-rule="evenodd" d="M40.909 54.7063L38.779 53.2137L41.1506 52.1339L40.909 54.7063ZM41.3605 55.7606L37.6345 53.112L41.8183 51.2002L41.3605 55.7543V55.7606Z" fill="#D6992D"/>
<path fill-rule="evenodd" clip-rule="evenodd" d="M37.8826 54.7634L37.3294 57.304L39.8028 56.491L37.8762 54.7634H37.8826ZM37.5011 53.6836L36.5664 58.1551L40.9345 56.7197L37.5011 53.6836Z" fill="#D6992D"/>
<path fill-rule="evenodd" clip-rule="evenodd" d="M35.4154 56.5101L33.6478 54.6046L36.1911 54.0456L35.4154 56.5101ZM35.638 57.6343L32.5542 54.2616L37.0495 53.2771L35.638 57.6343Z" fill="#D6992D"/>
<path fill-rule="evenodd" clip-rule="evenodd" d="M32.4208 55.9511L31.3463 58.3139L33.9404 58.0408L32.4208 55.9511ZM32.2746 54.8142L30.418 58.9872L34.9896 58.5045L32.2746 54.8142Z" fill="#D6992D"/>
<path fill-rule="evenodd" clip-rule="evenodd" d="M29.7058 57.1771L28.3579 54.954L30.9648 54.9222L29.7058 57.1771ZM29.6931 58.3267L27.3533 54.4014L31.9503 54.3379L29.6931 58.3203V58.3267Z" fill="#D6992D"/>
<path fill-rule="evenodd" clip-rule="evenodd" d="M26.8573 55.9892L25.3313 58.0916L27.9255 58.3393L26.8573 55.9892ZM26.94 54.8459L24.2822 58.5616L28.8602 59.0062L26.94 54.8459Z" fill="#D6992D"/>
<path fill-rule="evenodd" clip-rule="evenodd" d="M23.8625 56.6182L23.0041 54.1665L25.5602 54.6683L23.8625 56.6182ZM23.6145 57.7361L22.1331 53.417L26.6474 54.2999L23.6145 57.7361Z" fill="#D6992D"/>
<path fill-rule="evenodd" clip-rule="evenodd" d="M21.4082 54.8715L19.4689 56.5992L21.9486 57.3995L21.4082 54.8715ZM21.7325 53.7727L18.3372 56.8342L22.7116 58.2442L21.7261 53.7727H21.7325Z" fill="#D6992D"/>
<path fill-rule="evenodd" clip-rule="evenodd" d="M18.3818 54.8462L18.0575 52.2674L20.4482 53.2964L18.3755 54.8398L18.3818 54.8462ZM17.9049 55.8878L17.3708 51.3528L21.5927 53.1693L17.8986 55.8878H17.9049Z" fill="#D6992D"/>
<path fill-rule="evenodd" clip-rule="evenodd" d="M16.2772 52.6229L14.02 53.9123L16.2772 55.208V52.6229ZM16.824 51.613L12.8691 53.906L16.8558 56.1925L16.824 51.613Z" fill="#D6992D"/>
<path fill-rule="evenodd" clip-rule="evenodd" d="M13.3268 52.0005L13.5748 49.4154L15.6858 50.9398L13.3268 52.0005ZM12.6338 52.9152L13.0979 48.3738L16.8239 51.0669L12.6338 52.9215V52.9152Z" fill="#D6992D"/>
<path fill-rule="evenodd" clip-rule="evenodd" d="M11.7628 49.3772L9.28947 50.1712L11.2351 51.9052L11.7692 49.3772H11.7628ZM12.5068 48.5071L8.16406 49.9298L11.5912 52.9913L12.5068 48.5071Z" fill="#D6992D"/>
<path fill-rule="evenodd" clip-rule="evenodd" d="M8.99047 48.1514L9.75346 45.6679L11.5147 47.5861L8.99047 48.1451V48.1514ZM8.12574 48.9072L9.49913 44.5564L12.602 47.9418L8.11938 48.9072H8.12574Z" fill="#D6992D"/>
<path fill-rule="evenodd" clip-rule="evenodd" d="M8.01778 45.2741L5.42997 45.5409L6.97503 47.6369L8.01778 45.2741ZM8.92701 44.5754L4.38086 45.0772L7.10855 48.7802L8.92701 44.5754Z" fill="#D6992D"/>
<path fill-rule="evenodd" clip-rule="evenodd" d="M5.57614 43.464L6.84143 41.1965L8.16395 43.4386L5.57614 43.464ZM4.57153 44.023L6.82236 40.0469L9.15583 44.0039L4.57153 44.023Z" fill="#D6992D"/>
<path fill-rule="evenodd" clip-rule="evenodd" d="M5.20116 40.4596L2.61335 40.1801L3.68154 42.5556L5.1948 40.4596H5.20116ZM6.23756 39.9641L1.69141 39.5068L3.57981 43.6925L6.23756 39.9641Z" fill="#D6992D"/>
<path fill-rule="evenodd" clip-rule="evenodd" d="M3.16637 38.2175L4.87674 36.2612L5.70332 38.732L3.16637 38.2238V38.2175ZM2.07275 38.5541L5.09928 35.137L6.56168 39.4942L2.07275 38.5605V38.5541Z" fill="#D6992D"/>
<path fill-rule="evenodd" clip-rule="evenodd" d="M3.45877 35.2132L0.991771 34.4002L1.54494 36.9472L3.46513 35.2132H3.45877ZM4.57147 34.9464L0.216064 33.5491L1.18888 38.0397L4.57147 34.9464Z" fill="#D6992D"/>
<path fill-rule="evenodd" clip-rule="evenodd" d="M1.88838 32.609L3.97389 31.0592L4.26001 33.6443L1.88838 32.609ZM0.743896 32.7043L4.43168 30.0049L4.93399 34.5717L0.743896 32.7043Z" fill="#D6992D"/>
<path fill-rule="evenodd" clip-rule="evenodd" d="M2.82308 29.6684L0.572254 28.3663L0.58497 30.9705L2.81672 29.6684H2.82308ZM3.96756 29.6367L-0.00634766 27.3755L0.0190854 31.9677L3.9612 29.6367H3.96756Z" fill="#D6992D"/>
<path fill-rule="evenodd" clip-rule="evenodd" d="M1.92011 26.7974L4.27266 25.6922L4.03105 28.2837L1.91375 26.7974H1.92011ZM0.781982 26.664L4.93392 24.7522L4.51428 29.3253L0.781982 26.664Z" fill="#D6992D"/>
<path fill-rule="evenodd" clip-rule="evenodd" d="M3.36987 24.1487L1.44331 22.402L0.90922 24.949L3.36987 24.1487ZM4.50163 24.3583L1.09361 21.3159L0.152588 25.8128L4.50163 24.3583Z" fill="#D6992D"/>
<path fill-rule="evenodd" clip-rule="evenodd" d="M3.07115 21.1444L5.60173 20.5537L4.82603 23.0372L3.07115 21.1381V21.1444ZM1.98389 20.776L6.44102 19.7725L5.074 24.1551L1.98389 20.776Z" fill="#D6992D"/>
<path fill-rule="evenodd" clip-rule="evenodd" d="M5.06125 18.8453L3.53527 16.7429L2.48616 19.1247L5.05489 18.8453H5.06125ZM6.12308 19.2835L3.41446 15.606L1.56421 19.8107L6.11672 19.2835H6.12308Z" fill="#D6992D"/>
<path fill-rule="evenodd" clip-rule="evenodd" d="M5.39813 15.8473L7.99865 15.8029L6.72064 18.0704L5.40449 15.8473H5.39813ZM4.4126 15.263L8.98418 15.2185L6.727 19.22L4.4126 15.263Z" fill="#D6992D"/>
<path fill-rule="evenodd" clip-rule="evenodd" d="M7.80169 13.999L6.74621 11.6299L5.22659 13.7449L7.80169 13.999ZM8.74907 14.6469L6.86066 10.4866L4.18384 14.2213L8.74907 14.6405V14.6469Z" fill="#D6992D"/>
<path fill-rule="evenodd" clip-rule="evenodd" d="M8.77435 11.1406L11.324 11.636L9.59456 13.586L8.76799 11.1406H8.77435ZM7.93506 10.3594L12.4176 11.2677L9.37202 14.7102L7.94142 10.3594H7.93506Z" fill="#D6992D"/>
<path fill-rule="evenodd" clip-rule="evenodd" d="M11.5148 9.85138L10.9934 7.30439L9.05411 9.04472L11.5148 9.85138ZM12.3032 10.6834L11.3558 6.21826L7.93506 9.29244L12.3032 10.6898V10.6834Z" fill="#D6992D"/>
<path fill-rule="evenodd" clip-rule="evenodd" d="M13.0343 7.23447L15.425 8.25708L13.3268 9.80687L13.0343 7.24082V7.23447ZM12.373 6.29443L16.5631 8.11734L12.8626 10.8485L12.373 6.29443Z" fill="#D6992D"/>
<path fill-rule="evenodd" clip-rule="evenodd" d="M15.9973 6.53568L16.0228 3.93787L13.7656 5.2336L16.0037 6.52932L15.9973 6.53568ZM16.595 7.51382V2.94702L12.6147 5.23995L16.595 7.51382Z" fill="#D6992D"/>
<path fill-rule="evenodd" clip-rule="evenodd" d="M18.0574 4.32536L20.1874 5.81164L17.8158 6.89776L18.0511 4.32536H18.0574ZM17.5996 3.271L21.3319 5.91326L17.1545 7.83144L17.606 3.27735L17.5996 3.271Z" fill="#D6992D"/>
<path fill-rule="evenodd" clip-rule="evenodd" d="M21.0839 4.24917L21.6435 1.71488L19.1637 2.51519L21.0839 4.24917ZM21.4654 5.32894L22.4192 0.86377L18.0447 2.28018L21.4654 5.32894Z" fill="#D6992D"/>
<path fill-rule="evenodd" clip-rule="evenodd" d="M23.5318 2.48971L25.2867 4.40789L22.737 4.94778L23.5318 2.48971ZM23.322 1.36548L26.3803 4.75723L21.885 5.71632L23.322 1.36548Z" fill="#D6992D"/>
<path fill-rule="evenodd" clip-rule="evenodd" d="M26.5331 3.0551L27.614 0.692309L25.0198 0.959076L26.5331 3.0551ZM26.6793 4.19204L28.5486 0.0253906L23.9707 0.495409L26.6793 4.19204Z" fill="#D6992D"/>
<path fill-rule="evenodd" clip-rule="evenodd" d="M29.286 1.85471L30.6212 4.08412L28.0143 4.10318L29.286 1.85471ZM29.3051 0.711426L31.6195 4.64942L27.0225 4.68753L29.3051 0.717777V0.711426Z" fill="#D6992D"/>
<path fill-rule="evenodd" clip-rule="evenodd" d="M32.0837 3.01066L33.6097 0.908279L31.0155 0.660566L32.0837 3.01066ZM32.001 4.15395L34.6524 0.43826L30.0745 0L32.001 4.15395Z" fill="#D6992D"/>
<path fill-rule="evenodd" clip-rule="evenodd" d="M35.0403 2.41354L35.8796 4.8716L33.3236 4.35077L35.034 2.41354H35.0403ZM35.2947 1.29565L36.738 5.62744L32.23 4.70646L35.2883 1.29565H35.2947Z" fill="#D6992D"/>
<path fill-rule="evenodd" clip-rule="evenodd" d="M48.38 22.9736L48.9968 23.92L50.0014 23.6278L49.2956 24.5044L49.8806 25.3682L48.8251 24.9744L48.1829 25.7937L48.2402 24.6695L47.2546 24.3138L48.3419 24.0153L48.38 22.9736Z" fill="#D6992D"/>
<path d="M50.6626 27.7502L48.3419 28.0742L48.1766 26.9118L48.3482 26.8864L48.5199 26.861L48.6153 27.547L49.232 27.4581L49.1367 26.7975L49.3083 26.7721L49.48 26.7467L49.5754 27.4073L50.2494 27.312L50.154 26.6133L50.3256 26.5879L50.4973 26.5625L50.6626 27.7375V27.7502ZM49.3656 29.0714V28.938C49.3592 28.811 49.3274 28.7347 49.2829 28.6903C49.2384 28.6522 49.143 28.6331 49.0031 28.6395C48.876 28.6395 48.787 28.6712 48.7424 28.7157C48.6979 28.7602 48.6789 28.8427 48.6789 28.9634V29.0968L49.3592 29.0714H49.3656ZM50.7008 29.5033L48.3546 29.5859V29.3445L48.3292 28.8808C48.3228 28.6268 48.3609 28.4489 48.45 28.3409C48.539 28.233 48.6916 28.1695 48.9141 28.1631C49.1621 28.1568 49.3338 28.2012 49.4228 28.3092C49.4673 28.36 49.5054 28.4426 49.5309 28.5569V28.5315C49.5309 28.3981 49.5627 28.3028 49.6453 28.233C49.728 28.1631 49.8488 28.1313 50.0077 28.1313C50.0967 28.1313 50.1921 28.1313 50.2939 28.125C50.3956 28.125 50.4719 28.1123 50.5228 28.1059C50.5736 28.0996 50.6118 28.0932 50.6436 28.0805V28.3219L50.6626 28.5633C50.6372 28.5696 50.5991 28.576 50.5482 28.5823C50.4973 28.5823 50.421 28.595 50.3129 28.595L50.0268 28.6077C49.9124 28.6077 49.8297 28.6331 49.7788 28.6839C49.7343 28.7347 49.7089 28.811 49.7153 28.9316V29.0714L50.6754 29.0396V29.281L50.6944 29.5223L50.7008 29.5033ZM50.6881 30.799L48.6916 30.7673V31.2754H48.5072H48.3355L48.3609 29.7828H48.5326H48.7043V30.2845L50.6944 30.3163V30.5577L50.6881 30.799ZM50.4782 32.7236L50.4528 32.9205L50.4274 33.1173L48.1003 32.8315L48.1448 32.4822L48.1893 32.1329L50.2048 31.9741L48.2401 31.7327L48.2656 31.5358L48.291 31.3389L50.6181 31.6247L50.5736 31.9741L50.5291 32.3234L48.4945 32.4885L50.4782 32.7299V32.7236ZM50.1031 34.6544L47.8078 34.1654L48.0494 33.0221L48.2211 33.0602L48.3927 33.0983L48.2465 33.7716L48.8505 33.8986L48.9904 33.2444L49.1621 33.2825L49.3338 33.3206L49.1939 33.9748L49.8551 34.1146L50.0014 33.4286L50.1731 33.4667L50.3447 33.5048L50.0967 34.6608L50.1031 34.6544ZM49.2384 34.7688L49.3083 34.7878C49.5754 34.8577 49.747 34.9593 49.8297 35.099C49.9124 35.2324 49.9187 35.423 49.8488 35.6643C49.7725 35.9248 49.658 36.0899 49.5054 36.1598C49.3528 36.2296 49.1303 36.2233 48.8315 36.1407L48.1384 35.9438C47.8396 35.8549 47.6425 35.7469 47.5535 35.6072C47.4644 35.4674 47.4517 35.2642 47.528 35.0101C47.5916 34.7878 47.6997 34.6354 47.8459 34.5592C47.9795 34.4893 48.1575 34.4829 48.3673 34.5465L48.4118 34.5592L48.4818 34.5782L48.3482 35.0355L48.2783 35.0165C48.1638 34.9784 48.0685 34.972 48.0049 34.9847C47.9349 34.9974 47.8968 35.0419 47.8777 35.1054C47.8523 35.1943 47.8714 35.2642 47.9222 35.3214C47.9795 35.3785 48.0812 35.4293 48.2338 35.4738L48.9268 35.6707C49.1239 35.7279 49.2638 35.7469 49.3528 35.7342C49.4418 35.7215 49.4991 35.6707 49.5245 35.5754C49.5436 35.5055 49.5245 35.442 49.4736 35.3912C49.4164 35.3404 49.321 35.2959 49.1939 35.2578L49.1239 35.2388L49.2575 34.7815L49.2384 34.7688ZM48.7488 38.4527L48.6661 38.6305L48.5835 38.8084L46.4408 37.8556L46.587 37.5317L46.7332 37.2078L48.7043 37.6397L46.8922 36.833L46.9748 36.6552L47.0575 36.4773L49.2002 37.4301L49.0604 37.7477L48.9141 38.0716L46.924 37.6333L48.7488 38.4463V38.4527ZM47.7442 39.7167C47.7887 39.6341 47.7951 39.5642 47.7569 39.5007C47.7188 39.4372 47.6297 39.3673 47.4962 39.2911L46.6506 38.8211C46.5552 38.7703 46.4789 38.7512 46.409 38.7639C46.339 38.7766 46.2882 38.8147 46.2437 38.8846C46.2055 38.9545 46.1991 39.0243 46.2246 39.0879C46.25 39.1514 46.3136 39.2085 46.4026 39.2593L47.2483 39.7294C47.3881 39.8056 47.4899 39.8437 47.5662 39.8437C47.6361 39.8437 47.6933 39.7992 47.7442 39.7167ZM48.0494 39.8882C47.9222 40.1232 47.776 40.2565 47.617 40.2947C47.4581 40.3328 47.2546 40.282 47.0003 40.1422L46.1546 39.6722C45.9639 39.5642 45.8494 39.4372 45.8113 39.272C45.7731 39.1133 45.8113 38.9291 45.9321 38.7131C46.0529 38.4972 46.1864 38.3638 46.339 38.313C46.4916 38.2621 46.6633 38.2875 46.854 38.3892L47.6997 38.8592C47.954 38.9989 48.1066 39.1514 48.1575 39.3038C48.2083 39.4562 48.1702 39.6531 48.0367 39.8882H48.0494ZM47.1974 41.2347L45.2073 39.9898L45.3344 39.7865L45.4616 39.5833L47.4517 40.8282L47.3246 41.0314L47.1974 41.2347ZM46.4598 42.3081L44.8258 41.1648L44.5333 41.5777L44.387 41.4761L44.2472 41.3744L45.0992 40.1549L45.239 40.2565L45.3853 40.3582L45.0992 40.771L46.7332 41.9143L46.5934 42.1112L46.4535 42.3081H46.4598ZM44.0246 42.2827L44.7049 43.1084L44.9529 42.8162L44.0246 42.2891V42.2827ZM44.9593 44.131L43.5032 42.2192L43.6813 42.0032L43.8657 41.7873L46.002 42.8861L45.8558 43.064L45.7032 43.2418L45.2518 42.9877L44.9211 43.3752L45.2454 43.7753L45.0992 43.9532L44.9466 44.131H44.9593ZM44.2026 43.7245L44.2535 43.7753C44.4506 43.9722 44.546 44.1437 44.5524 44.3025C44.5524 44.4613 44.4697 44.6264 44.2853 44.8043C44.0946 44.9885 43.9102 45.0774 43.7449 45.0647C43.5795 45.052 43.3888 44.9313 43.1726 44.709L42.6703 44.1882C42.4541 43.9659 42.3397 43.769 42.3333 43.6038C42.327 43.4387 42.416 43.2609 42.6131 43.0703C42.7784 42.9052 42.9501 42.8289 43.109 42.8353C43.2616 42.8353 43.4142 42.9242 43.5668 43.083L43.5986 43.1148L43.6495 43.1656L43.3061 43.4959L43.2553 43.445C43.1726 43.3561 43.0963 43.299 43.0327 43.2799C42.9691 43.2609 42.9056 43.2799 42.8611 43.3244C42.7975 43.3879 42.772 43.4578 42.7911 43.534C42.8102 43.6102 42.8738 43.7055 42.9819 43.8198L43.4842 44.3406C43.624 44.4867 43.7385 44.5756 43.8212 44.6074C43.9038 44.6392 43.9801 44.6201 44.05 44.5566C44.1009 44.5058 44.12 44.4422 44.1009 44.366C44.0818 44.2898 44.0183 44.2072 43.9229 44.112L43.872 44.0612L44.2154 43.7309L44.2026 43.7245ZM43.0709 45.865L41.5004 44.1247L41.6784 43.9659L41.8565 43.8071L43.4269 45.5474L43.2489 45.7062L43.0709 45.865ZM41.8946 46.7796L40.4195 44.9567L41.2906 44.2517L41.3987 44.3851L41.5067 44.5185L41.0044 44.925L41.405 45.4204L41.8755 45.0393L41.9836 45.1727L42.0917 45.3061L41.6212 45.6872L42.257 46.4684L42.0726 46.6208L41.8882 46.7733L41.8946 46.7796ZM41.1761 47.2751L39.7964 45.3823L39.9935 45.2426L40.1906 45.1028L41.5703 46.9956L41.3732 47.1353L41.1761 47.2751ZM40.0443 47.942L39.0461 46.2143L38.6074 46.4684L38.5184 46.316L38.4294 46.1635L39.7201 45.4204L39.8091 45.5728L39.8981 45.7253L39.4594 45.9793L40.4576 47.707L40.2478 47.8277L40.038 47.9483L40.0443 47.942ZM37.9461 47.5799L38.0606 47.5164C38.1687 47.4593 38.2322 47.3957 38.245 47.3386C38.2577 47.2814 38.2386 47.1861 38.1687 47.0655C38.1114 46.9511 38.0479 46.8876 37.9843 46.8622C37.9271 46.8432 37.838 46.8622 37.7363 46.913L37.6219 46.9765L37.9398 47.5736L37.9461 47.5799ZM38.1369 48.9646L37.0369 46.894L37.2467 46.7796L37.66 46.5637C37.8825 46.443 38.0606 46.4049 38.2005 46.4367C38.3403 46.4684 38.4611 46.5827 38.5629 46.7733C38.6773 46.9892 38.7091 47.1671 38.6519 47.2941C38.6265 47.3576 38.5629 47.4275 38.4802 47.5037L38.5057 47.491C38.6201 47.4275 38.7282 47.4212 38.8299 47.4656C38.9317 47.5101 39.0143 47.6053 39.0843 47.7514C39.1224 47.834 39.1669 47.9166 39.2178 48.0055C39.2686 48.0944 39.3068 48.1579 39.3386 48.2087C39.3704 48.2532 39.3895 48.285 39.4149 48.304L39.2051 48.4184L38.9952 48.5327C38.9952 48.5327 38.9507 48.4819 38.9253 48.4374C38.8999 48.3929 38.8617 48.3231 38.8109 48.2342L38.6773 47.9864C38.6265 47.8848 38.5629 47.8213 38.4993 47.7959C38.4357 47.7768 38.3531 47.7959 38.2513 47.8467L38.1305 47.9102L38.582 48.755L38.3721 48.8693L38.1559 48.9836L38.1369 48.9646ZM36.6999 49.5172L35.8225 47.3449L36.9097 46.9067L36.9733 47.0655L37.0369 47.2242L36.3947 47.4847L36.63 48.0563L37.2467 47.8086L37.3103 47.9674L37.3739 48.1262L36.7508 48.3739L37.0051 49.0027L37.66 48.7359L37.7236 48.8947L37.7872 49.0599L36.6872 49.5045L36.6999 49.5172ZM36.1149 48.8757L36.134 48.9392C36.2167 49.1996 36.2294 49.4028 36.1595 49.5426C36.0895 49.6823 35.9369 49.7966 35.6953 49.8665C35.4346 49.9427 35.2375 49.9427 35.0976 49.8538C34.9577 49.7649 34.8369 49.5743 34.7479 49.2758L34.5381 48.5835C34.4491 48.285 34.4364 48.0627 34.5063 47.9039C34.5763 47.7514 34.7352 47.6371 34.9959 47.5545C35.2184 47.4847 35.4028 47.491 35.5427 47.5736C35.6762 47.6498 35.778 47.7895 35.8352 47.9991L35.8479 48.0436L35.867 48.1135L35.4092 48.2532L35.3901 48.1833C35.3583 48.069 35.3138 47.9864 35.2629 47.9356C35.2121 47.8848 35.1549 47.8721 35.0913 47.8912C35.0086 47.9166 34.9514 47.9674 34.9323 48.05C34.9132 48.1262 34.9323 48.2405 34.9768 48.3929L35.1866 49.0853C35.2439 49.2822 35.3075 49.4092 35.3647 49.4727C35.4219 49.5362 35.4982 49.5553 35.5872 49.5299C35.6572 49.5108 35.7017 49.46 35.7144 49.3838C35.7271 49.3076 35.7144 49.2059 35.6699 49.0726L35.6508 49.0091L36.1086 48.8693L36.1149 48.8757ZM32.8659 50.5144L32.459 48.2087L32.6942 48.1643L32.9295 48.1198L33.2792 50.0825L33.8832 49.9745L33.915 50.146L33.9468 50.3175L32.8722 50.508L32.8659 50.5144ZM31.4607 48.774L31.4162 49.8411L31.7977 49.7903L31.4607 48.774ZM30.9139 50.7748L31.1174 48.3802L31.3971 48.3421L31.6769 48.304L32.5289 50.5525L32.3 50.5842L32.0711 50.616L31.9058 50.1269L31.4035 50.1968L31.378 50.7113L31.1492 50.743L30.9203 50.7748H30.9139ZM30.6151 49.9427V50.0126C30.6341 50.2857 30.5896 50.4826 30.4879 50.6033C30.3862 50.724 30.2081 50.7875 29.9538 50.8002C29.6868 50.8066 29.4896 50.7557 29.3752 50.6287C29.2608 50.508 29.1972 50.2921 29.1845 49.9808L29.159 49.2568C29.1463 48.9455 29.1972 48.7232 29.2989 48.5962C29.407 48.4628 29.5914 48.3929 29.8648 48.3866C30.1 48.3802 30.2717 48.4311 30.3925 48.5454C30.5006 48.6534 30.5578 48.8121 30.5706 49.0345V49.0789V49.1488L30.0937 49.1678V49.098C30.0937 48.9773 30.0683 48.8884 30.0365 48.8249C29.9983 48.7677 29.9474 48.7359 29.8775 48.7423C29.7885 48.7423 29.7249 48.7804 29.6868 48.8503C29.6486 48.9201 29.6359 49.0345 29.6422 49.1932L29.6677 49.9173C29.674 50.1206 29.6995 50.2603 29.7376 50.3429C29.7758 50.4191 29.8457 50.4572 29.9411 50.4572C30.0174 50.4572 30.0682 50.4191 30.1 50.3492C30.1318 50.2794 30.1445 50.1777 30.1382 50.038V49.9681L30.6151 49.9491V49.9427ZM28.3515 50.7684L28.4342 48.4247H28.6758L28.9174 48.4438L28.8347 50.7875H28.5931L28.3515 50.7684ZM27.1816 50.6859C26.9146 50.6478 26.7365 50.5525 26.6539 50.4C26.5712 50.2476 26.5521 49.9935 26.5966 49.6442L26.6729 49.0916C26.7174 48.774 26.8128 48.5517 26.9527 48.4311C27.0926 48.3104 27.2961 48.2659 27.5695 48.304C27.8047 48.3358 27.97 48.4184 28.0718 48.5517C28.1671 48.6788 28.1989 48.863 28.1608 49.0853L28.1481 49.1551L27.6775 49.0916L27.6903 49.0218C27.7093 48.9074 27.703 48.8249 27.6712 48.7613C27.6394 48.6978 27.5822 48.6661 27.4995 48.6534C27.4041 48.6407 27.3278 48.6661 27.277 48.7359C27.2261 48.8058 27.188 48.9392 27.1625 49.1361L27.0862 49.6887C27.0481 49.9427 27.0481 50.1142 27.0735 50.1968C27.0989 50.2794 27.1689 50.3302 27.2833 50.3492C27.3278 50.3556 27.4041 50.3492 27.5059 50.3492L27.5822 49.8157L27.366 49.7839L27.4169 49.441L28.1099 49.5362L27.9446 50.7113C27.6839 50.7367 27.4359 50.7303 27.2007 50.6986L27.1816 50.6859ZM25.3949 50.0634C25.4903 50.0825 25.5602 50.0634 25.6048 50.0063C25.6493 49.9491 25.6874 49.8475 25.7192 49.6887L25.8845 48.7359C25.9036 48.6343 25.8972 48.5517 25.8654 48.4882C25.8337 48.4247 25.7764 48.3866 25.6938 48.3739C25.6111 48.3612 25.5475 48.3739 25.4967 48.4247C25.4458 48.4692 25.414 48.5454 25.3949 48.647L25.2296 49.5997C25.2042 49.7585 25.1978 49.8665 25.2296 49.9364C25.2551 50.0063 25.3123 50.0444 25.4076 50.0634M25.3441 50.4128C25.0834 50.3683 24.9053 50.273 24.8163 50.1396C24.7273 49.9999 24.7082 49.7903 24.7591 49.5045L24.9244 48.5517C24.9626 48.3358 25.0516 48.1897 25.1915 48.1008C25.3313 48.0119 25.5157 47.9928 25.7574 48.0373C25.999 48.0817 26.1706 48.1643 26.2724 48.2913C26.3741 48.4184 26.4059 48.5898 26.3677 48.8058L26.2024 49.7585C26.1516 50.0444 26.0625 50.2413 25.9354 50.3365C25.8082 50.4382 25.6111 50.4636 25.3441 50.4128ZM23.2713 49.8411L23.958 47.599L24.1869 47.6689L24.4158 47.7387L23.8308 49.6442L24.4158 49.8221L24.3649 49.9872L24.314 50.1523L23.2713 49.8348V49.8411ZM22.254 49.1869C22.343 49.225 22.4129 49.2187 22.4701 49.1742C22.5274 49.1297 22.5846 49.0345 22.6482 48.8884L23.0106 47.9928C23.0487 47.8975 23.0615 47.8149 23.0424 47.7451C23.0233 47.6816 22.9724 47.6308 22.9025 47.599C22.8262 47.5672 22.7563 47.5672 22.699 47.599C22.6418 47.6308 22.5909 47.7006 22.5528 47.7959L22.1904 48.6915C22.1331 48.8376 22.1077 48.9455 22.1204 49.0218C22.1331 49.0916 22.1777 49.1488 22.2667 49.1805M22.1331 49.5045C21.8852 49.4028 21.7326 49.2758 21.6754 49.1297C21.6181 48.9773 21.6436 48.7677 21.7517 48.4946L22.1141 47.599C22.1967 47.3957 22.3112 47.2687 22.4638 47.2115C22.6164 47.1544 22.8071 47.1734 23.0297 47.2624C23.2586 47.3513 23.4048 47.472 23.4747 47.618C23.5447 47.7641 23.5447 47.9356 23.462 48.1389L23.0996 49.0345C22.9915 49.3076 22.8643 49.4727 22.7181 49.5426C22.5719 49.6125 22.3748 49.5997 22.1268 49.4981L22.1331 49.5045ZM19.5581 48.3104L19.3864 48.2151L19.2147 48.1198L20.3147 46.0492L20.6135 46.208L20.9124 46.3668L20.4037 48.1262L21.5736 46.7161L21.8661 46.8749L22.1649 47.0337L21.065 49.1043L20.8933 49.0154L20.7216 48.9201L21.6499 47.1798L20.3592 48.7232L20.1494 48.6089L19.9396 48.4946L20.5054 46.5573L19.5771 48.304L19.5581 48.3104ZM17.8858 47.3386L19.1956 45.395L20.1684 46.0492L20.0731 46.1953L19.9777 46.3414L19.4055 45.9539L19.0558 46.4684L19.6089 46.8432L19.5135 46.9892L19.4182 47.1353L18.865 46.7606L18.4835 47.3259L19.0685 47.7197L18.9731 47.8658L18.8777 48.0118L17.8922 47.3513L17.8858 47.3386ZM16.8685 46.6907C16.646 46.5383 16.5315 46.3731 16.5252 46.1953C16.5188 46.0174 16.6142 45.7888 16.8176 45.4966L17.1356 45.0393C17.3199 44.7789 17.5043 44.6264 17.6824 44.5756C17.8604 44.5312 18.0639 44.582 18.2864 44.7408C18.4835 44.8805 18.5916 45.0266 18.6234 45.1854C18.6488 45.3442 18.598 45.5157 18.4581 45.6999L18.4199 45.757L18.0321 45.4839L18.0702 45.4267C18.1338 45.3378 18.172 45.2553 18.172 45.1854C18.172 45.1155 18.1338 45.0584 18.0702 45.0075C17.9876 44.9504 17.9113 44.944 17.835 44.9821C17.7587 45.0202 17.6633 45.1219 17.5488 45.287L17.2309 45.7443C17.0847 45.9539 17.002 46.1 16.983 46.1889C16.9639 46.2779 17.0084 46.3541 17.0974 46.4176C17.1356 46.443 17.1991 46.4748 17.3009 46.5129L17.6124 46.0683L17.4344 45.9412L17.6315 45.6554L18.2037 46.0556L17.5234 47.0274C17.2818 46.9321 17.0593 46.8177 16.8622 46.678L16.8685 46.6907ZM14.7067 44.7916L16.3344 43.1084L16.5061 43.2736L16.6778 43.4387L15.2917 44.8742L15.7304 45.2997L15.6096 45.4267L15.4888 45.5538L14.7067 44.7979V44.7916ZM15.2789 42.6638L14.3761 43.2354L14.6368 43.5149L15.2789 42.6575V42.6638ZM13.327 43.3688L15.4061 42.162L15.5969 42.3653L15.7876 42.5749L14.4333 44.5629L14.2743 44.3914L14.1154 44.2199L14.4206 43.8071L14.0709 43.4323L13.6322 43.7055L13.4732 43.534L13.3142 43.3625L13.327 43.3688ZM12.4177 42.2382L12.2969 42.0795L12.1761 41.9207L14.0518 40.5106L14.2616 40.7901L14.4778 41.0759L13.1426 42.5876L14.7258 41.3998L14.8466 41.5586L14.9674 41.7174L13.0917 43.1275L12.8819 42.848L12.6721 42.5685L14.02 41.0441L12.4241 42.2446L12.4177 42.2382ZM11.8073 40.771C11.8582 40.8536 11.9154 40.8917 11.9917 40.8854C12.0617 40.8854 12.1698 40.8409 12.3033 40.7583L13.1235 40.2438C13.2125 40.1867 13.2697 40.1295 13.2952 40.0596C13.3206 39.9961 13.3079 39.9263 13.2634 39.8564C13.2189 39.7865 13.1617 39.7484 13.0981 39.7421C13.0281 39.7357 12.9518 39.7611 12.8628 39.8183L12.0426 40.3328C11.9091 40.4153 11.8264 40.4916 11.7883 40.5551C11.7565 40.6186 11.7628 40.6885 11.8137 40.771M11.5149 40.9552C11.375 40.7266 11.3241 40.536 11.3686 40.3836C11.4131 40.2248 11.5594 40.0723 11.8073 39.9199L12.6276 39.4118C12.8119 39.2975 12.9836 39.2593 13.1426 39.3038C13.3015 39.3483 13.4414 39.4753 13.5686 39.6786C13.6957 39.8882 13.7466 40.066 13.7212 40.2311C13.6957 40.3899 13.5877 40.5297 13.4033 40.644L12.583 41.1521C12.3351 41.3046 12.1316 41.3681 11.9727 41.3363C11.8137 41.3046 11.6611 41.1775 11.5212 40.9489L11.5149 40.9552ZM10.7074 39.5388L12.7611 38.4019L12.8755 38.6115L12.99 38.8211L10.9363 39.958L10.8218 39.7484L10.7074 39.5388ZM10.1478 38.3828L11.9727 37.5698L11.7692 37.1062L11.9281 37.0363L12.0871 36.9664L12.6911 38.3257L12.5322 38.3955L12.3732 38.4654L12.1698 38.0081L10.3449 38.8211L10.2496 38.6051L10.1542 38.3828H10.1478ZM11.3305 36.2995L10.2814 36.4964L10.4212 36.8521L11.3368 36.2995H11.3305ZM9.25768 36.2169L11.642 35.8739L11.7438 36.1344L11.8455 36.3948L9.84264 37.7286L9.75998 37.5127L9.67733 37.2967L10.116 37.0299L9.93166 36.5536L9.423 36.6425L9.34034 36.4265L9.25768 36.2106V36.2169ZM8.86347 34.8259L8.80625 34.6354L8.74902 34.4448L11.0062 33.797L11.1016 34.1336L11.197 34.4766L9.40392 35.4103L11.305 34.864L11.3559 35.0546L11.4131 35.2451L9.15595 35.893L9.06058 35.5564L8.9652 35.2197L10.7709 34.2797L8.85075 34.8323L8.86347 34.8259ZM9.83628 32.9205L9.85536 33.0538C9.87443 33.1745 9.91258 33.2571 9.96345 33.2888C10.0143 33.3206 10.1097 33.327 10.2432 33.3079C10.3704 33.2888 10.453 33.2507 10.4912 33.1999C10.5293 33.1491 10.542 33.0665 10.523 32.9459L10.5039 32.8125L9.83628 32.9205ZM8.4629 32.6537L10.7837 32.2853L10.8218 32.5203L10.8918 32.9776C10.9299 33.2253 10.9108 33.4095 10.8409 33.5302C10.7646 33.6509 10.6183 33.7271 10.4022 33.7652C10.1542 33.8033 9.98252 33.7779 9.88079 33.6826C9.82993 33.6382 9.78542 33.5556 9.74091 33.454V33.4794C9.76634 33.6064 9.74091 33.7144 9.66461 33.7906C9.58831 33.8732 9.47386 33.9177 9.31491 33.9367C9.22589 33.9494 9.13052 33.9621 9.03514 33.9748C8.93341 33.9939 8.85711 34.0066 8.80625 34.0193C8.75538 34.032 8.71723 34.0447 8.6918 34.0574L8.65365 33.8224L8.6155 33.5874C8.6155 33.5874 8.67908 33.562 8.72995 33.5556C8.78081 33.5429 8.85711 33.5302 8.95884 33.5111L9.23861 33.4667C9.35306 33.4476 9.43571 33.4159 9.47386 33.3651C9.51201 33.3142 9.52473 33.2253 9.50565 33.1173L9.48658 32.9776L8.5392 33.1301L8.50105 32.895L8.4629 32.6537ZM8.27215 31.1484L10.612 30.9832L10.6946 32.1519L10.523 32.1646L10.3513 32.1773L10.3004 31.485L9.68368 31.5294L9.72819 32.1964L9.55652 32.2091L9.38485 32.2218L9.34034 31.5549L8.66636 31.5993L8.71723 32.3043L8.54556 32.317L8.37388 32.3298L8.29123 31.1484H8.27215ZM8.20221 29.8272L10.1987 29.7955V29.2873H10.364H10.5357L10.5611 30.7736H10.3895H10.2114V30.2718L8.20857 30.3036V30.0622L8.20221 29.8209V29.8272ZM8.26579 27.909L8.28487 27.7121L8.30394 27.5152L10.6438 27.7185L10.612 28.0678L10.5802 28.4172L8.57099 28.6458L10.542 28.8173L10.523 29.0142L10.5039 29.2111L8.16406 29.0079L8.19585 28.6585L8.22764 28.3092L10.2559 28.0742L8.26579 27.9027V27.909ZM8.39932 26.6006L10.7201 26.9245L10.6883 27.1595L10.6565 27.4009L8.33574 27.077L8.36753 26.842L8.39932 26.6006Z" fill="#D6992D"/>
</g>
<defs>
<clipPath id="clip0_167_954">
<rect width="203" height="59" fill="white"/>
</clipPath>
</defs>
</svg>
